<svg width="784" height="504" viewBox="0 0 784 504" fill="none" xmlns="http://www.w3.org/2000/svg">
<path d="M68 415V169.4H10V117H130V415H68ZM283.234 419.8C267.501 419.8 252.301 416.867 237.634 411C222.968 404.867 210.434 396.333 200.034 385.4C189.634 374.2 182.834 360.867 179.634 345.4L234.434 327C238.434 339.8 244.834 349.133 253.634 355C262.434 360.867 272.301 363.8 283.234 363.8C292.568 363.8 300.701 361.933 307.634 358.2C314.568 354.2 319.901 348.733 323.634 341.8C327.634 334.6 329.634 326.333 329.634 317C329.634 307.667 327.634 299.533 323.634 292.6C319.901 285.667 314.568 280.333 307.634 276.6C300.701 272.6 292.568 270.6 283.234 270.6C273.634 270.6 265.101 272.733 257.634 277C250.168 281 244.701 287.267 241.234 295.8L190.434 283.8L214.434 117H380.834V169H239.634L262.834 141L246.434 265L229.634 250.2C236.301 239.267 244.701 231.267 254.834 226.2C265.234 221.133 278.568 218.6 294.834 218.6C314.834 218.6 332.034 222.867 346.434 231.4C360.834 239.667 371.901 251.133 379.634 265.8C387.634 280.467 391.634 297.533 391.634 317C391.634 336.467 386.834 354.067 377.234 369.8C367.901 385.267 355.101 397.533 338.834 406.6C322.568 415.4 304.034 419.8 283.234 419.8Z" fill="url(#paint0_linear_80_658)"/>
<path d="M433.928 330V282.32H441.48V323.28H462.088V330H433.928ZM483.98 330.768C480.524 330.768 477.452 329.979 474.764 328.4C472.119 326.779 470.049 324.603 468.556 321.872C467.063 319.099 466.316 316.005 466.316 312.592C466.316 309.093 467.063 306 468.556 303.312C470.092 300.624 472.14 298.512 474.7 296.976C477.26 295.397 480.161 294.608 483.404 294.608C486.007 294.608 488.332 295.056 490.38 295.952C492.428 296.848 494.156 298.085 495.564 299.664C496.972 301.2 498.039 302.971 498.764 304.976C499.532 306.981 499.916 309.115 499.916 311.376C499.916 311.931 499.895 312.507 499.852 313.104C499.809 313.701 499.724 314.256 499.596 314.768H472.012V309.008H495.5L492.044 311.632C492.471 309.541 492.321 307.685 491.596 306.064C490.913 304.4 489.847 303.099 488.396 302.16C486.988 301.179 485.324 300.688 483.404 300.688C481.484 300.688 479.777 301.179 478.284 302.16C476.791 303.099 475.639 304.464 474.828 306.256C474.017 308.005 473.697 310.139 473.868 312.656C473.655 315.003 473.975 317.051 474.828 318.8C475.724 320.549 476.961 321.915 478.54 322.896C480.161 323.877 481.996 324.368 484.044 324.368C486.135 324.368 487.905 323.899 489.356 322.96C490.849 322.021 492.023 320.805 492.876 319.312L498.764 322.192C498.081 323.813 497.015 325.285 495.564 326.608C494.156 327.888 492.449 328.912 490.444 329.68C488.481 330.405 486.327 330.768 483.98 330.768ZM516.397 330L502.829 295.376H510.701L521.133 323.6H518.253L528.685 295.376H536.621L522.989 330H516.397ZM557.168 330.768C553.712 330.768 550.64 329.979 547.952 328.4C545.306 326.779 543.237 324.603 541.744 321.872C540.25 319.099 539.504 316.005 539.504 312.592C539.504 309.093 540.25 306 541.744 303.312C543.28 300.624 545.328 298.512 547.888 296.976C550.448 295.397 553.349 294.608 556.592 294.608C559.194 294.608 561.52 295.056 563.568 295.952C565.616 296.848 567.344 298.085 568.752 299.664C570.16 301.2 571.226 302.971 571.951 304.976C572.72 306.981 573.104 309.115 573.104 311.376C573.104 311.931 573.082 312.507 573.04 313.104C572.997 313.701 572.912 314.256 572.784 314.768H545.2V309.008H568.688L565.232 311.632C565.658 309.541 565.509 307.685 564.784 306.064C564.101 304.4 563.034 303.099 561.584 302.16C560.176 301.179 558.512 300.688 556.592 300.688C554.672 300.688 552.965 301.179 551.472 302.16C549.978 303.099 548.826 304.464 548.016 306.256C547.205 308.005 546.885 310.139 547.056 312.656C546.842 315.003 547.162 317.051 548.016 318.8C548.912 320.549 550.149 321.915 551.728 322.896C553.349 323.877 555.184 324.368 557.232 324.368C559.322 324.368 561.093 323.899 562.544 322.96C564.037 322.021 565.21 320.805 566.064 319.312L571.951 322.192C571.269 323.813 570.202 325.285 568.752 326.608C567.344 327.888 565.637 328.912 563.632 329.68C561.669 330.405 559.514 330.768 557.168 330.768ZM580.161 330V281.552H587.394V330H580.161ZM608.649 330.768C605.108 330.768 601.993 329.893 599.305 328.144C596.66 326.395 594.804 324.048 593.737 321.104L599.305 318.48C600.244 320.443 601.524 322 603.145 323.152C604.809 324.304 606.644 324.88 608.649 324.88C610.356 324.88 611.742 324.496 612.809 323.728C613.876 322.96 614.409 321.915 614.409 320.592C614.409 319.739 614.174 319.056 613.705 318.544C613.236 317.989 612.638 317.541 611.913 317.2C611.23 316.859 610.526 316.603 609.801 316.432L604.361 314.896C601.374 314.043 599.134 312.763 597.641 311.056C596.19 309.307 595.465 307.28 595.465 304.976C595.465 302.885 595.998 301.072 597.065 299.536C598.132 297.957 599.604 296.741 601.481 295.888C603.358 295.035 605.47 294.608 607.817 294.608C610.974 294.608 613.79 295.397 616.265 296.976C618.74 298.512 620.489 300.667 621.513 303.44L615.945 306.064C615.262 304.4 614.174 303.077 612.681 302.096C611.23 301.115 609.588 300.624 607.753 300.624C606.174 300.624 604.916 301.008 603.977 301.776C603.038 302.501 602.569 303.461 602.569 304.656C602.569 305.467 602.782 306.149 603.209 306.704C603.636 307.216 604.19 307.643 604.873 307.984C605.556 308.283 606.26 308.539 606.985 308.752L612.617 310.416C615.476 311.227 617.673 312.507 619.209 314.256C620.745 315.963 621.513 318.011 621.513 320.4C621.513 322.448 620.958 324.261 619.849 325.84C618.782 327.376 617.289 328.592 615.369 329.488C613.449 330.341 611.209 330.768 608.649 330.768ZM656.491 330.768C653.163 330.768 650.112 329.979 647.339 328.4C644.608 326.821 642.432 324.667 640.811 321.936C639.189 319.205 638.379 316.112 638.379 312.656C638.379 309.157 639.189 306.064 640.811 303.376C642.432 300.645 644.608 298.512 647.339 296.976C650.069 295.397 653.12 294.608 656.491 294.608C659.904 294.608 662.955 295.397 665.643 296.976C668.373 298.512 670.528 300.645 672.107 303.376C673.728 306.064 674.539 309.157 674.539 312.656C674.539 316.155 673.728 319.269 672.107 322C670.485 324.731 668.309 326.885 665.579 328.464C662.848 330 659.819 330.768 656.491 330.768ZM656.491 324.048C658.539 324.048 660.352 323.557 661.931 322.576C663.509 321.595 664.747 320.251 665.643 318.544C666.581 316.795 667.051 314.832 667.051 312.656C667.051 310.48 666.581 308.539 665.643 306.832C664.747 305.125 663.509 303.781 661.931 302.8C660.352 301.819 658.539 301.328 656.491 301.328C654.485 301.328 652.672 301.819 651.051 302.8C649.472 303.781 648.213 305.125 647.275 306.832C646.379 308.539 645.931 310.48 645.931 312.656C645.931 314.832 646.379 316.795 647.275 318.544C648.213 320.251 649.472 321.595 651.051 322.576C652.672 323.557 654.485 324.048 656.491 324.048ZM684.566 330V301.904H678.166V295.376H684.566V293.584C684.566 290.981 685.099 288.805 686.166 287.056C687.232 285.264 688.704 283.899 690.582 282.96C692.502 282.021 694.699 281.552 697.174 281.552C697.643 281.552 698.176 281.595 698.774 281.68C699.371 281.723 699.862 281.787 700.246 281.872V288.144C699.904 288.059 699.52 288.016 699.094 288.016C698.667 287.973 698.326 287.952 698.07 287.952C696.15 287.952 694.614 288.4 693.462 289.296C692.31 290.149 691.734 291.579 691.734 293.584V295.376H699.67V301.904H691.734V330H684.566ZM433.224 400V365.376H440.456V400H433.224ZM433.224 360.64V352.32H440.456V360.64H433.224ZM448.911 400V365.376H455.824V372.16L454.992 371.264C455.845 369.088 457.21 367.445 459.088 366.336C460.965 365.184 463.141 364.608 465.616 364.608C468.176 364.608 470.437 365.163 472.4 366.272C474.362 367.381 475.898 368.917 477.007 370.88C478.117 372.843 478.672 375.104 478.672 377.664V400H471.504V379.584C471.504 377.835 471.184 376.363 470.544 375.168C469.904 373.931 468.986 372.992 467.792 372.352C466.64 371.669 465.317 371.328 463.824 371.328C462.33 371.328 460.986 371.669 459.792 372.352C458.64 372.992 457.744 373.931 457.104 375.168C456.464 376.405 456.144 377.877 456.144 379.584V400H448.911ZM502.86 400.768C499.404 400.768 496.332 399.979 493.644 398.4C490.998 396.779 488.886 394.603 487.308 391.872C485.772 389.141 485.004 386.048 485.004 382.592C485.004 379.179 485.772 376.107 487.308 373.376C488.844 370.645 490.956 368.512 493.644 366.976C496.332 365.397 499.404 364.608 502.86 364.608C505.206 364.608 507.404 365.035 509.452 365.888C511.5 366.699 513.27 367.829 514.764 369.28C516.3 370.731 517.43 372.416 518.156 374.336L511.82 377.28C511.094 375.488 509.921 374.059 508.3 372.992C506.721 371.883 504.908 371.328 502.86 371.328C500.897 371.328 499.126 371.819 497.548 372.8C496.012 373.739 494.796 375.083 493.9 376.832C493.004 378.539 492.556 380.48 492.556 382.656C492.556 384.832 493.004 386.795 493.9 388.544C494.796 390.251 496.012 391.595 497.548 392.576C499.126 393.557 500.897 394.048 502.86 394.048C504.95 394.048 506.764 393.515 508.3 392.448C509.878 391.339 511.052 389.867 511.82 388.032L518.156 391.04C517.473 392.875 516.364 394.539 514.828 396.032C513.334 397.483 511.564 398.635 509.516 399.488C507.468 400.341 505.249 400.768 502.86 400.768ZM541.928 400.768C538.6 400.768 535.549 399.979 532.776 398.4C530.045 396.821 527.869 394.667 526.248 391.936C524.627 389.205 523.816 386.112 523.816 382.656C523.816 379.157 524.627 376.064 526.248 373.376C527.869 370.645 530.045 368.512 532.776 366.976C535.507 365.397 538.557 364.608 541.928 364.608C545.341 364.608 548.392 365.397 551.08 366.976C553.811 368.512 555.965 370.645 557.544 373.376C559.165 376.064 559.976 379.157 559.976 382.656C559.976 386.155 559.165 389.269 557.544 392C555.923 394.731 553.747 396.885 551.016 398.464C548.285 400 545.256 400.768 541.928 400.768ZM541.928 394.048C543.976 394.048 545.789 393.557 547.368 392.576C548.947 391.595 550.184 390.251 551.08 388.544C552.019 386.795 552.488 384.832 552.488 382.656C552.488 380.48 552.019 378.539 551.08 376.832C550.184 375.125 548.947 373.781 547.368 372.8C545.789 371.819 543.976 371.328 541.928 371.328C539.923 371.328 538.109 371.819 536.488 372.8C534.909 373.781 533.651 375.125 532.712 376.832C531.816 378.539 531.368 380.48 531.368 382.656C531.368 384.832 531.816 386.795 532.712 388.544C533.651 390.251 534.909 391.595 536.488 392.576C538.109 393.557 539.923 394.048 541.928 394.048ZM567.036 400V365.376H573.949V372.864L573.053 371.712C573.778 369.365 575.101 367.595 577.021 366.4C578.941 365.205 581.138 364.608 583.613 364.608C586.386 364.608 588.839 365.355 590.973 366.848C593.149 368.299 594.599 370.24 595.325 372.672L593.277 372.864C594.301 370.091 595.858 368.021 597.949 366.656C600.082 365.291 602.514 364.608 605.245 364.608C607.634 364.608 609.789 365.163 611.709 366.272C613.671 367.381 615.229 368.917 616.381 370.88C617.533 372.843 618.109 375.083 618.109 377.6V400H610.877V379.584C610.877 377.835 610.557 376.363 609.917 375.168C609.319 373.931 608.466 372.992 607.357 372.352C606.29 371.669 605.031 371.328 603.581 371.328C602.13 371.328 600.85 371.669 599.741 372.352C598.631 372.992 597.757 373.931 597.117 375.168C596.477 376.405 596.157 377.877 596.157 379.584V400H588.989V379.584C588.989 377.835 588.669 376.363 588.029 375.168C587.431 373.931 586.578 372.992 585.469 372.352C584.402 371.669 583.122 371.328 581.628 371.328C580.178 371.328 578.898 371.669 577.789 372.352C576.679 372.992 575.805 373.931 575.165 375.168C574.567 376.405 574.269 377.877 574.269 379.584V400H567.036ZM642.105 400.768C638.649 400.768 635.577 399.979 632.889 398.4C630.244 396.779 628.174 394.603 626.681 391.872C625.188 389.099 624.441 386.005 624.441 382.592C624.441 379.093 625.188 376 626.681 373.312C628.217 370.624 630.265 368.512 632.825 366.976C635.385 365.397 638.286 364.608 641.529 364.608C644.132 364.608 646.457 365.056 648.505 365.952C650.553 366.848 652.281 368.085 653.689 369.664C655.097 371.2 656.164 372.971 656.889 374.976C657.657 376.981 658.041 379.115 658.041 381.376C658.041 381.931 658.02 382.507 657.977 383.104C657.934 383.701 657.849 384.256 657.721 384.768H630.137V379.008H653.625L650.169 381.632C650.596 379.541 650.446 377.685 649.721 376.064C649.038 374.4 647.972 373.099 646.521 372.16C645.113 371.179 643.449 370.688 641.529 370.688C639.609 370.688 637.902 371.179 636.409 372.16C634.916 373.099 633.764 374.464 632.953 376.256C632.142 378.005 631.822 380.139 631.993 382.656C631.78 385.003 632.1 387.051 632.953 388.8C633.849 390.549 635.086 391.915 636.665 392.896C638.286 393.877 640.121 394.368 642.169 394.368C644.26 394.368 646.03 393.899 647.481 392.96C648.974 392.021 650.148 390.805 651.001 389.312L656.889 392.192C656.206 393.813 655.14 395.285 653.689 396.608C652.281 397.888 650.574 398.912 648.569 399.68C646.606 400.405 644.452 400.768 642.105 400.768Z" fill="#F98B3B"/>
<defs>
<linearGradient id="paint0_linear_80_658" x1="205.5" y1="0" x2="205.5" y2="504" gradientUnits="userSpaceOnUse">
<stop stop-color="#E07E37"/>
<stop offset="1" stop-color="#FF8935"/>
</linearGradient>
</defs>
</svg>
