<svg width="714" height="427" viewBox="0 0 714 427" fill="none" xmlns="http://www.w3.org/2000/svg">
<path d="M111.885 343.911V337.917H113.885V343.911M111.885 335.922V329.927H113.885V335.922M111.885 327.927V321.938H113.885V327.927M111.885 319.938V313.948H113.885V319.938M111.885 311.948V305.958H113.885V311.948M111.885 303.958V297.969H113.885V303.958M111.885 295.969V289.979H113.885V295.969M111.885 287.979V281.984H113.885V287.979M111.885 279.99V273.995H113.885V279.99M111.885 272V266.005H113.885V272M111.885 264.01V258.016H113.885V264.01M111.885 256.021V250.026H113.885V256.021M111.885 248.031V242.036H113.885V248.031M111.885 240.042V234.047H113.885V240.042" fill="white"/>
<path d="M247.047 343.911V337.917H249.042V343.911M247.047 335.922V329.927H249.042V335.922M247.047 327.927V321.938H249.042V327.927M247.047 319.938V313.948H249.042V319.938M247.047 311.948V305.958H249.042V311.948M247.047 303.958V297.969H249.042V303.958M247.047 295.969V289.979H249.042V295.969M247.047 287.979V281.984H249.042V287.979M247.047 279.99V273.995H249.042V279.99M247.047 272V266.005H249.042V272M247.047 264.01V258.016H249.042V264.01M247.047 256.021V250.026H249.042V256.021M247.047 248.031V242.036H249.042V248.031M247.047 240.042V234.047H249.042V240.042" fill="white"/>
<mask id="mask0_63_316" style="mask-type:luminance" maskUnits="userSpaceOnUse" x="204" y="333" width="94" height="94">
<path d="M204.203 333.005H297.974V426.776H204.203V333.005Z" fill="white"/>
</mask>
<g mask="url(#mask0_63_316)">
<mask id="mask1_63_316" style="mask-type:luminance" maskUnits="userSpaceOnUse" x="204" y="333" width="94" height="94">
<path d="M251.089 333.005C225.193 333.005 204.203 354 204.203 379.891C204.203 405.786 225.193 426.776 251.089 426.776C276.979 426.776 297.974 405.786 297.974 379.891C297.974 354 276.979 333.005 251.089 333.005Z" fill="white"/>
</mask>
<g mask="url(#mask1_63_316)">
<path d="M204.203 333.005H297.974V426.776H204.203V333.005Z" fill="#3B286E"/>
</g>
</g>
<path d="M392.661 343.911V337.917H394.661V343.911M392.661 335.922V329.927H394.661V335.922M392.661 327.927V321.938H394.661V327.927M392.661 319.938V313.948H394.661V319.938M392.661 311.948V305.958H394.661V311.948M392.661 303.958V297.969H394.661V303.958M392.661 295.969V289.979H394.661V295.969M392.661 287.979V281.984H394.661V287.979M392.661 279.99V273.995H394.661V279.99M392.661 272V266.005H394.661V272M392.661 264.01V258.016H394.661V264.01M392.661 256.021V250.026H394.661V256.021M392.661 248.031V242.036H394.661V248.031M392.661 240.042V234.047H394.661V240.042" fill="white"/>
<mask id="mask2_63_316" style="mask-type:luminance" maskUnits="userSpaceOnUse" x="345" y="331" width="95" height="95">
<path d="M345.87 331.526H439.641V425.297H345.87V331.526Z" fill="white"/>
</mask>
<g mask="url(#mask2_63_316)">
<mask id="mask3_63_316" style="mask-type:luminance" maskUnits="userSpaceOnUse" x="345" y="331" width="95" height="95">
<path d="M392.755 331.526C366.859 331.526 345.87 352.521 345.87 378.412C345.87 404.307 366.859 425.297 392.755 425.297C418.646 425.297 439.641 404.307 439.641 378.412C439.641 352.521 418.646 331.526 392.755 331.526Z" fill="white"/>
</mask>
<g mask="url(#mask3_63_316)">
<path d="M345.87 331.526H439.641V425.297H345.87V331.526Z" fill="#3B286E"/>
</g>
</g>
<mask id="mask4_63_316" style="mask-type:luminance" maskUnits="userSpaceOnUse" x="66" y="333" width="95" height="94">
<path d="M66 333.115H160.026V426.776H66V333.115Z" fill="white"/>
</mask>
<g mask="url(#mask4_63_316)">
<mask id="mask5_63_316" style="mask-type:luminance" maskUnits="userSpaceOnUse" x="66" y="333" width="94" height="94">
<path d="M112.885 333.115C86.9896 333.115 66 354.083 66 379.948C66 405.813 86.9896 426.776 112.885 426.776C138.781 426.776 159.771 405.813 159.771 379.948C159.771 354.083 138.781 333.115 112.885 333.115Z" fill="white"/>
</mask>
<g mask="url(#mask5_63_316)">
<path d="M66 333.115H159.661V426.776H66V333.115Z" fill="#36BC9B"/>
</g>
</g>
<path d="M529.719 345.391V339.396H531.719V345.391M529.719 337.401V331.406H531.719V337.401M529.719 329.406V323.417H531.719V329.406M529.719 321.417V315.427H531.719V321.417M529.719 313.427V307.437H531.719V313.427M529.719 305.437V299.448H531.719V305.437M529.719 297.448V291.458H531.719V297.448M529.719 289.458V283.464H531.719V289.458M529.719 281.469V275.474H531.719V281.469M529.719 273.479V267.484H531.719V273.479M529.719 265.49V259.495H531.719V265.49M529.719 257.5V251.505H531.719V257.5M529.719 249.51V243.516H531.719V249.51M529.719 241.521V235.526H531.719V241.521" fill="white"/>
<path d="M67 174.052H570.416" stroke="#8C52FF" stroke-width="132.834" stroke-linecap="round"/>
<mask id="mask6_63_316" style="mask-type:luminance" maskUnits="userSpaceOnUse" x="482" y="333" width="95" height="94">
<path d="M482.927 333.005H576.698V426.776H482.927V333.005Z" fill="white"/>
</mask>
<g mask="url(#mask6_63_316)">
<mask id="mask7_63_316" style="mask-type:luminance" maskUnits="userSpaceOnUse" x="482" y="333" width="95" height="94">
<path d="M529.812 333.005C503.916 333.005 482.927 354 482.927 379.891C482.927 405.786 503.916 426.776 529.812 426.776C555.708 426.776 576.698 405.786 576.698 379.891C576.698 354 555.708 333.005 529.812 333.005Z" fill="white"/>
</mask>
<g mask="url(#mask7_63_316)">
<path d="M482.927 333.005H576.698V426.776H482.927V333.005Z" fill="#3B286E"/>
</g>
</g>
<mask id="mask8_63_316" style="mask-type:luminance" maskUnits="userSpaceOnUse" x="482" y="333" width="95" height="94">
<path d="M482.927 333.005H576.682V426.766H482.927V333.005Z" fill="white"/>
</mask>
<g mask="url(#mask8_63_316)">
<mask id="mask9_63_316" style="mask-type:luminance" maskUnits="userSpaceOnUse" x="482" y="333" width="95" height="94">
<path d="M529.807 333.005C503.916 333.005 482.927 353.995 482.927 379.885C482.927 405.776 503.916 426.766 529.807 426.766C555.698 426.766 576.682 405.776 576.682 379.885C576.682 353.995 555.698 333.005 529.807 333.005Z" fill="white"/>
</mask>
<g mask="url(#mask9_63_316)">
<path d="M529.807 333.005C503.916 333.005 482.927 353.995 482.927 379.885C482.927 405.776 503.916 426.766 529.807 426.766C555.698 426.766 576.682 405.776 576.682 379.885C576.682 353.995 555.698 333.005 529.807 333.005Z" stroke="#19E56A" stroke-width="7.99"/>
</g>
</g>
<mask id="mask10_63_316" style="mask-type:luminance" maskUnits="userSpaceOnUse" x="332" y="0" width="277" height="82">
<path d="M332.219 0H608.219V81.0677H332.219V0Z" fill="white"/>
</mask>
<g mask="url(#mask10_63_316)">
<path d="M373.026 39.9635H567.609" stroke="#1E1D1D" stroke-width="79.8999" stroke-linecap="round"/>
</g>
<mask id="mask11_63_316" style="mask-type:luminance" maskUnits="userSpaceOnUse" x="638" y="34" width="35" height="37">
<path d="M638.886 34.4011H672.219V70.4011H638.886V34.4011Z" fill="white"/>
</mask>
<g mask="url(#mask11_63_316)">
<mask id="mask12_63_316" style="mask-type:luminance" maskUnits="userSpaceOnUse" x="474" y="23" width="324" height="330">
<path d="M654.813 23.875L797.943 222.344L617.297 352.62L474.167 154.156L654.813 23.875Z" fill="white"/>
</mask>
<g mask="url(#mask12_63_316)">
<mask id="mask13_63_316" style="mask-type:luminance" maskUnits="userSpaceOnUse" x="474" y="23" width="324" height="330">
<path d="M797.808 222.151L654.672 23.6875L474.032 153.969L617.162 352.432L797.808 222.151Z" fill="white"/>
</mask>
<g mask="url(#mask13_63_316)">
<mask id="mask14_63_316" style="mask-type:luminance" maskUnits="userSpaceOnUse" x="474" y="23" width="324" height="330">
<path d="M797.808 222.151L654.678 23.6875L474.032 153.969L617.162 352.432L797.808 222.151Z" fill="white"/>
</mask>
<g mask="url(#mask14_63_316)">
<path d="M671.802 47.7292L646.219 69.25L639.292 34.7812L671.802 47.7292Z" fill="#98C1D9"/>
</g>
</g>
</g>
</g>
<mask id="mask15_63_316" style="mask-type:luminance" maskUnits="userSpaceOnUse" x="613" y="345" width="9" height="7">
<path d="M613.552 345.068H621.552V351.734H613.552V345.068Z" fill="white"/>
</mask>
<g mask="url(#mask15_63_316)">
<mask id="mask16_63_316" style="mask-type:luminance" maskUnits="userSpaceOnUse" x="474" y="23" width="324" height="330">
<path d="M654.812 23.875L797.943 222.344L617.297 352.62L474.167 154.156L654.812 23.875Z" fill="white"/>
</mask>
<g mask="url(#mask16_63_316)">
<mask id="mask17_63_316" style="mask-type:luminance" maskUnits="userSpaceOnUse" x="474" y="23" width="324" height="330">
<path d="M797.807 222.151L654.672 23.6875L474.031 153.969L617.161 352.432L797.807 222.151Z" fill="white"/>
</mask>
<g mask="url(#mask17_63_316)">
<mask id="mask18_63_316" style="mask-type:luminance" maskUnits="userSpaceOnUse" x="474" y="23" width="324" height="330">
<path d="M797.807 222.151L654.677 23.6875L474.031 153.969L617.161 352.432L797.807 222.151Z" fill="white"/>
</mask>
<g mask="url(#mask18_63_316)">
<path d="M616.677 351.469C617.828 350.635 619.474 349.885 620.625 349.057L618.208 345.099C617.057 345.932 615.411 346.677 614.26 347.51L616.677 351.469Z" fill="#98C1D9"/>
</g>
</g>
</g>
</g>
<mask id="mask19_63_316" style="mask-type:luminance" maskUnits="userSpaceOnUse" x="625" y="69" width="89" height="277">
<path d="M625.552 69.0677H713.552V345.068H625.552V69.0677Z" fill="white"/>
</mask>
<g mask="url(#mask19_63_316)">
<mask id="mask20_63_316" style="mask-type:luminance" maskUnits="userSpaceOnUse" x="474" y="23" width="324" height="330">
<path d="M654.812 23.875L797.943 222.344L617.297 352.62L474.167 154.156L654.812 23.875Z" fill="white"/>
</mask>
<g mask="url(#mask20_63_316)">
<mask id="mask21_63_316" style="mask-type:luminance" maskUnits="userSpaceOnUse" x="474" y="23" width="324" height="330">
<path d="M797.807 222.151L654.672 23.6875L474.031 153.969L617.161 352.432L797.807 222.151Z" fill="white"/>
</mask>
<g mask="url(#mask21_63_316)">
<mask id="mask22_63_316" style="mask-type:luminance" maskUnits="userSpaceOnUse" x="474" y="23" width="324" height="330">
<path d="M797.807 222.151L654.677 23.6875L474.031 153.969L617.161 352.432L797.807 222.151Z" fill="white"/>
</mask>
<g mask="url(#mask22_63_316)">
<path d="M628.807 344.031C630.245 342.995 631.682 341.958 633.411 340.714C634.562 339.885 635.422 339.26 636.573 338.432L633.87 334.682C632.719 335.51 631.854 336.135 630.703 336.964C629.266 338 627.828 339.036 626.391 340.078L628.807 344.031ZM640.854 329.208L643.844 332.75C646.224 330.594 648.818 328.724 650.703 326.49L647.422 323.156C645.536 325.391 643.234 327.052 640.854 329.208ZM654.276 316.896L657.557 320.229C659.938 318.073 661.823 315.839 663.995 313.396L660.427 310.266C658.542 312.505 656.448 314.453 654.276 316.896ZM666.656 303.141L670.016 305.979C672.193 303.536 673.87 301.01 675.547 298.484L671.896 295.854C670.51 298.172 668.333 300.615 666.656 303.141ZM677.427 288.359L681.359 290.786C683.036 288.26 684.714 285.734 686.474 282.714L682.536 280.292C680.573 283.021 679.104 285.833 677.427 288.359ZM686.865 272.344L691.089 274.563C692.557 271.75 694.026 268.932 695.495 266.12L691.479 264.193C689.516 266.927 688.333 269.531 686.865 272.344ZM694.609 255.797L698.911 257.516C700.172 254.417 701.354 251.807 702.328 248.917L698.026 247.193C697.052 250.089 696.078 252.984 694.609 255.797ZM700.943 238.51L705.328 239.734C706.302 236.839 707.068 233.656 707.833 230.474L703.448 229.25C702.682 232.432 701.917 235.615 700.943 238.51ZM705.38 220.406L710.047 221.422C710.286 219.932 710.526 218.448 711.052 216.75C711.292 215.26 711.531 213.776 711.771 212.286L707.307 211.557C707.068 213.047 706.828 214.536 706.589 216.021C705.854 217.427 705.62 218.917 705.38 220.406ZM708.036 202.26L712.786 202.781C713.057 199.521 713.036 196.464 713.307 193.198L708.766 192.964C708.495 196.229 708.229 199.495 708.036 202.26ZM708.427 184.005L713.255 184.031C713.234 180.974 713.01 177.63 712.99 174.573L708.37 174.833C708.391 177.891 708.406 180.948 708.427 184.005ZM707.328 165.5L711.74 164.953C711.224 161.813 711.208 158.755 710.693 155.62L705.995 156.38C706.797 159.307 707.021 162.651 707.328 165.5ZM704.661 147.255L709.151 146.208C708.641 143.068 707.839 140.141 707.036 137.208L702.542 138.255C703.057 141.396 703.859 144.323 704.661 147.255ZM699.854 129.672L704.135 128.339C703.333 125.406 702.036 122.396 701.234 119.464L696.667 121.01C698.042 123.526 699.052 126.745 699.854 129.672ZM693.766 112.135L698.13 110.307C696.833 107.297 695.745 104.573 694.156 101.771L690.005 103.891C691.094 106.609 692.677 109.417 693.766 112.135ZM685.745 95.5573L689.901 93.4375C688.318 90.6354 686.729 87.8334 685.354 85.3177L681.406 87.724C682.781 90.2396 684.37 93.0417 685.745 95.5573ZM676.078 79.7292L679.818 77.0313C677.943 74.4375 676.073 71.8386 674.198 69.2448L670.458 71.9375C672.828 74.6146 674.698 77.2136 676.078 79.7292Z" fill="#98C1D9"/>
</g>
</g>
</g>
</g>
<mask id="mask23_63_316" style="mask-type:luminance" maskUnits="userSpaceOnUse" x="661" y="58" width="9" height="9">
<path d="M661.552 58.4011H669.552V66.4011H661.552V58.4011Z" fill="white"/>
</mask>
<g mask="url(#mask23_63_316)">
<mask id="mask24_63_316" style="mask-type:luminance" maskUnits="userSpaceOnUse" x="474" y="23" width="324" height="330">
<path d="M654.812 23.875L797.943 222.344L617.297 352.62L474.167 154.156L654.812 23.875Z" fill="white"/>
</mask>
<g mask="url(#mask24_63_316)">
<mask id="mask25_63_316" style="mask-type:luminance" maskUnits="userSpaceOnUse" x="474" y="23" width="324" height="330">
<path d="M797.807 222.151L654.672 23.6875L474.031 153.969L617.161 352.432L797.807 222.151Z" fill="white"/>
</mask>
<g mask="url(#mask25_63_316)">
<mask id="mask26_63_316" style="mask-type:luminance" maskUnits="userSpaceOnUse" x="474" y="23" width="324" height="330">
<path d="M797.807 222.151L654.677 23.6875L474.031 153.969L617.161 352.432L797.807 222.151Z" fill="white"/>
</mask>
<g mask="url(#mask26_63_316)">
<path d="M662.188 61.6823C663.021 62.8334 664.349 64.0677 665.177 65.224L668.708 62.2396C667.88 61.0834 666.552 59.849 665.719 58.6979L662.188 61.6823Z" fill="#98C1D9"/>
</g>
</g>
</g>
</g>
<path d="M98.3276 395.99C105.604 395.99 110.302 391.844 110.302 385.396C110.302 379.183 105.833 374.943 99.3433 374.943H94.1401L94.5985 369.417H108.598V363.11H88.2912L86.6766 380.657H98.2339C101.322 380.657 103.302 382.407 103.302 385.074C103.302 387.792 101.322 389.542 98.2339 389.542C95.2912 389.542 93.3537 387.933 93.2183 385.261H86.2183C86.4943 391.891 91.0985 395.99 98.3276 395.99Z" fill="white"/>
<path d="M123.881 400.688H129.87V395.85C136.084 395.162 139.813 391.709 139.813 386.271C139.813 381.162 136.454 378.12 128.443 376.235C123.516 375.084 121.808 373.839 121.808 371.86C121.808 369.74 123.699 368.454 126.782 368.454C130.146 368.454 132.173 370.204 132.173 373.105H139.214C139.214 367.532 135.626 363.709 129.824 362.745V358.047H123.975V362.652C118.173 363.433 114.673 366.839 114.673 372.001C114.673 377.245 118.219 380.381 125.771 381.99C130.329 382.959 132.402 384.292 132.402 386.547C132.402 388.714 130.469 389.959 127.428 389.959C123.881 389.959 121.579 388.162 121.579 385.074H114.396C114.396 390.693 117.943 394.61 123.881 395.667V400.688Z" fill="white"/>
<path d="M236.528 394.511C243.804 394.511 248.502 390.365 248.502 383.917C248.502 377.704 244.033 373.464 237.543 373.464H232.34L232.799 367.938H246.799V361.631H226.491L224.877 379.178H236.434C239.523 379.178 241.502 380.928 241.502 383.594C241.502 386.313 239.523 388.063 236.434 388.063C233.491 388.063 231.554 386.454 231.418 383.782H224.418C224.694 390.412 229.299 394.511 236.528 394.511Z" fill="white"/>
<path d="M262.081 399.209H268.071V394.37C274.284 393.683 278.014 390.23 278.014 384.792C278.014 379.683 274.654 376.641 266.644 374.756C261.717 373.605 260.008 372.36 260.008 370.381C260.008 368.261 261.899 366.975 264.982 366.975C268.347 366.975 270.373 368.725 270.373 371.626H277.415C277.415 366.053 273.826 362.23 268.024 361.266V356.568H262.175V361.173C256.373 361.954 252.873 365.36 252.873 370.521C252.873 375.766 256.42 378.902 263.972 380.511C268.529 381.48 270.602 382.813 270.602 385.068C270.602 387.235 268.67 388.48 265.628 388.48C262.081 388.48 259.779 386.683 259.779 383.594H252.597C252.597 389.214 256.144 393.131 262.081 394.188V399.209Z" fill="white"/>
<path d="M379.104 394.511C386.38 394.511 391.078 390.365 391.078 383.917C391.078 377.704 386.609 373.464 380.12 373.464H374.917L375.375 367.938H389.375V361.631H369.068L367.453 379.178H379.01C382.099 379.178 384.078 380.928 384.078 383.594C384.078 386.313 382.099 388.063 379.01 388.063C376.068 388.063 374.13 386.454 373.995 383.782H366.995C367.271 390.412 371.875 394.511 379.104 394.511Z" fill="white"/>
<path d="M404.657 399.209H410.647V394.37C416.86 393.683 420.59 390.23 420.59 384.792C420.59 379.683 417.23 376.641 409.22 374.756C404.293 373.605 402.584 372.36 402.584 370.381C402.584 368.261 404.475 366.975 407.558 366.975C410.923 366.975 412.949 368.725 412.949 371.626H419.991C419.991 366.053 416.402 362.23 410.6 361.266V356.568H404.751V361.173C398.949 361.954 395.449 365.36 395.449 370.521C395.449 375.766 398.996 378.902 406.548 380.511C411.105 381.48 413.178 382.813 413.178 385.068C413.178 387.235 411.246 388.48 408.204 388.48C404.657 388.48 402.355 386.683 402.355 383.594H395.173C395.173 389.214 398.72 393.131 404.657 394.188V399.209Z" fill="white"/>
<path d="M90.0847 194.896C99.6576 194.896 105.84 189.442 105.84 180.958C105.84 172.781 99.9597 167.203 91.4181 167.203H84.5691L85.1785 159.932H103.595V151.635H76.8764L74.7566 174.718H89.9649C94.0222 174.718 96.6264 177.021 96.6264 180.536C96.6264 184.109 94.0222 186.411 89.9649 186.411C86.0847 186.411 83.5378 184.291 83.3608 180.776H74.1472C74.5118 189.5 80.5691 194.896 90.0847 194.896Z" fill="white"/>
<path d="M123.708 201.073H131.588V194.713C139.765 193.802 144.677 189.26 144.677 182.109C144.677 175.385 140.25 171.385 129.708 168.901C123.224 167.385 120.984 165.75 120.984 163.146C120.984 160.359 123.468 158.661 127.526 158.661C131.948 158.661 134.614 160.963 134.614 164.781H143.885C143.885 157.448 139.161 152.422 131.526 151.151V144.969H123.833V151.026C116.198 152.057 111.593 156.541 111.593 163.328C111.593 170.234 116.255 174.354 126.192 176.474C132.192 177.75 134.921 179.505 134.921 182.474C134.921 185.323 132.375 186.958 128.375 186.958C123.708 186.958 120.682 184.594 120.682 180.536H111.229C111.229 187.927 115.895 193.078 123.708 194.469V201.073Z" fill="white"/>
<path d="M174.405 185.369C179.228 185.369 182.348 183.004 182.348 179.16C182.348 175.915 180.171 173.962 174.535 172.577C170.249 171.535 168.832 170.4 168.832 168.577C168.832 166.462 170.723 165.139 173.874 165.139C177.119 165.139 179.134 166.78 179.197 169.426H181.936C181.905 165.139 178.817 162.494 173.874 162.494C169.051 162.494 165.994 164.858 165.994 168.577C165.994 171.978 168.421 173.869 173.837 175.16C177.811 176.103 179.478 177.207 179.478 179.254C179.478 181.431 177.525 182.723 174.405 182.723C170.973 182.723 168.577 181.02 168.514 178.186H165.744C165.775 182.499 169.145 185.369 174.405 185.369Z" fill="white"/>
<path d="M187.166 184.957H189.812V161.645H187.166V184.957Z" fill="white"/>
<path d="M203.041 185.369C208.114 185.369 211.703 181.775 211.703 176.764C211.703 171.759 208.114 168.197 203.041 168.197C197.968 168.197 194.38 171.759 194.38 176.764C194.38 181.775 197.968 185.369 203.041 185.369ZM197.026 176.764C197.026 173.207 199.51 170.718 203.041 170.718C206.567 170.718 209.057 173.207 209.057 176.764C209.057 180.358 206.567 182.817 203.041 182.817C199.51 182.817 197.026 180.358 197.026 176.764Z" fill="white"/>
<path d="M223.325 184.957H225.783V182.405H223.455C221.278 182.405 220.273 181.301 220.273 178.942V171.03H225.564V168.608H220.273V164.54H218.226L217.971 166.749C217.783 168.228 217.34 168.608 215.83 168.608H214.189V171.03H217.627V179.067C217.627 182.817 219.705 184.957 223.325 184.957Z" fill="white"/>
<path d="M238.071 184.957H240.717V168.608H238.071V184.957ZM237.248 163.848C237.248 165.014 238.102 165.895 239.394 165.895C240.686 165.895 241.504 165.014 241.504 163.848C241.504 162.65 240.686 161.77 239.394 161.77C238.102 161.77 237.248 162.65 237.248 163.848Z" fill="white"/>
<path d="M246.576 184.957H249.222V176.702C249.222 173.113 251.394 170.718 254.451 170.718C257.316 170.718 259.082 172.796 259.082 176.103V184.957H261.727V175.853C261.727 171.192 259.144 168.197 254.795 168.197C252.592 168.197 250.451 169.046 249.03 170.999L248.748 168.608H246.576V184.957Z" fill="white"/>
<path d="M274.392 185.369C278.486 185.369 281.668 182.91 282.772 178.942H279.965C279.147 181.301 277.038 182.817 274.392 182.817C271.017 182.817 268.627 180.327 268.627 176.764C268.627 173.238 271.017 170.718 274.392 170.718C276.877 170.718 278.929 172.072 279.903 174.343H282.58C281.762 170.655 278.455 168.197 274.392 168.197C269.476 168.197 265.981 171.79 265.981 176.764C265.981 181.775 269.476 185.369 274.392 185.369Z" fill="white"/>
<path d="M294.614 185.369C299.687 185.369 303.275 181.775 303.275 176.764C303.275 171.759 299.687 168.197 294.614 168.197C289.541 168.197 285.952 171.759 285.952 176.764C285.952 181.775 289.541 185.369 294.614 185.369ZM288.598 176.764C288.598 173.207 291.082 170.718 294.614 170.718C298.14 170.718 300.629 173.207 300.629 176.764C300.629 180.358 298.14 182.817 294.614 182.817C291.082 182.817 288.598 180.358 288.598 176.764Z" fill="white"/>
<path d="M307.845 184.957H310.491V176.264C310.491 172.889 312.382 170.718 315.215 170.718C317.955 170.718 319.689 172.796 319.689 176.04V184.957H322.335V176.264C322.335 172.889 324.225 170.718 327.059 170.718C329.804 170.718 331.533 172.796 331.533 176.04V184.957H334.179V175.603C334.179 171.03 331.533 168.197 327.408 168.197C324.762 168.197 322.616 169.332 321.324 171.41C320.225 169.301 318.21 168.197 315.595 168.197C313.324 168.197 311.496 169.046 310.267 170.655L310.017 168.608H307.845V184.957Z" fill="white"/>
<path d="M346.812 185.369C350.495 185.369 353.521 183.384 354.844 180.202H351.849C350.844 181.931 348.984 182.879 346.844 182.879C343.724 182.879 341.515 180.926 341.109 177.837H355.255C355.443 172.134 352.073 168.197 346.844 168.197C341.896 168.197 338.432 171.728 338.432 176.764C338.432 181.837 341.864 185.369 346.812 185.369ZM341.14 175.504C341.609 172.608 343.818 170.686 346.844 170.686C349.833 170.686 352.042 172.514 352.609 175.504H341.14Z" fill="white"/>
<path d="M369.143 166.936V168.608H365.581V171.03H369.143V184.957H371.789V171.03H377.492V168.608H371.789V167.093C371.789 164.733 372.8 163.723 375.096 163.723H377.649V161.233H374.846C371.159 161.233 369.143 163.218 369.143 166.936Z" fill="white"/>
<path d="M380.895 184.957H383.541V177.363C383.541 172.702 385.869 171.061 388.833 171.061H390.437V168.608H388.958C386.187 168.608 384.546 169.488 383.379 171.441L383.067 168.608H380.895V184.957Z" fill="white"/>
<path d="M401.999 185.369C407.072 185.369 410.661 181.775 410.661 176.764C410.661 171.759 407.072 168.197 401.999 168.197C396.926 168.197 393.338 171.759 393.338 176.764C393.338 181.775 396.926 185.369 401.999 185.369ZM395.984 176.764C395.984 173.207 398.468 170.718 401.999 170.718C405.525 170.718 408.015 173.207 408.015 176.764C408.015 180.358 405.525 182.817 401.999 182.817C398.468 182.817 395.984 180.358 395.984 176.764Z" fill="white"/>
<path d="M415.23 184.957H417.876V176.264C417.876 172.889 419.767 170.718 422.6 170.718C425.34 170.718 427.074 172.796 427.074 176.04V184.957H429.72V176.264C429.72 172.889 431.611 170.718 434.444 170.718C437.189 170.718 438.918 172.796 438.918 176.04V184.957H441.564V175.603C441.564 171.03 438.918 168.197 434.793 168.197C432.147 168.197 430.001 169.332 428.71 171.41C427.611 169.301 425.595 168.197 422.98 168.197C420.71 168.197 418.882 169.046 417.652 170.655L417.402 168.608H415.23V184.957Z" fill="white"/>
<path d="M461.38 185.369C465.885 185.369 468.906 182.561 468.906 178.374C468.906 174.374 466.135 171.629 461.911 171.41L468.151 164.921V162.905H454.26V165.488H464.026L457.817 171.947V173.931H461.411C464.244 173.931 466.135 175.634 466.135 178.28C466.135 180.926 464.276 182.686 461.38 182.686C458.635 182.686 456.744 181.082 456.588 178.593H453.88C454.036 182.686 457 185.369 461.38 185.369Z" fill="white"/>
<path d="M488.844 185.369C491.495 185.369 493.76 184.264 495.24 182.436L495.557 184.957H497.729V161.645H495.083V170.905C493.604 169.207 491.396 168.197 488.844 168.197C483.995 168.197 480.5 171.822 480.5 176.764C480.5 181.744 483.995 185.369 488.844 185.369ZM483.146 176.764C483.146 173.238 485.63 170.718 489.161 170.718C492.719 170.718 495.177 173.238 495.177 176.764C495.177 180.327 492.719 182.817 489.161 182.817C485.63 182.817 483.146 180.327 483.146 176.764Z" fill="white"/>
<path d="M503.59 184.957H506.236V168.608H503.59V184.957ZM502.767 163.848C502.767 165.014 503.621 165.895 504.913 165.895C506.205 165.895 507.022 165.014 507.022 163.848C507.022 162.65 506.205 161.77 504.913 161.77C503.621 161.77 502.767 162.65 502.767 163.848Z" fill="white"/>
<path d="M512.095 184.957H514.741V177.363C514.741 172.702 517.069 171.061 520.033 171.061H521.637V168.608H520.158C517.387 168.608 515.746 169.488 514.58 171.441L514.267 168.608H512.095V184.957Z" fill="white"/>
<path d="M532.918 185.369C536.601 185.369 539.627 183.384 540.95 180.202H537.955C536.95 181.931 535.09 182.879 532.95 182.879C529.83 182.879 527.621 180.926 527.215 177.837H541.361C541.549 172.134 538.179 168.197 532.95 168.197C528.002 168.197 524.538 171.728 524.538 176.764C524.538 181.837 527.97 185.369 532.918 185.369ZM527.246 175.504C527.715 172.608 529.924 170.686 532.95 170.686C535.939 170.686 538.147 172.514 538.715 175.504H527.246Z" fill="white"/>
<path d="M552.984 185.369C557.077 185.369 560.26 182.91 561.364 178.942H558.557C557.739 181.301 555.63 182.817 552.984 182.817C549.609 182.817 547.218 180.327 547.218 176.764C547.218 173.238 549.609 170.718 552.984 170.718C555.468 170.718 557.52 172.072 558.494 174.343H561.171C560.354 170.655 557.046 168.197 552.984 168.197C548.067 168.197 544.572 171.79 544.572 176.764C544.572 181.775 548.067 185.369 552.984 185.369Z" fill="white"/>
<path d="M572.887 184.957H575.346V182.405H573.018C570.84 182.405 569.835 181.301 569.835 178.942V171.03H575.127V168.608H569.835V164.54H567.788L567.533 166.749C567.346 168.228 566.903 168.608 565.393 168.608H563.752V171.03H567.189V179.067C567.189 182.817 569.268 184.957 572.887 184.957Z" fill="white"/>
<path d="M585.743 185.369C589.775 185.369 592.389 183.509 592.389 180.671C592.389 178.119 590.249 176.389 586.118 175.567C582.717 174.905 581.551 174.244 581.551 172.858C581.551 171.41 582.936 170.53 585.301 170.53C587.79 170.53 589.269 171.504 589.457 173.301H592.077C591.853 170.087 589.301 168.197 585.269 168.197C581.332 168.197 578.936 169.931 578.936 172.858C578.936 175.442 580.92 177.02 585.144 177.712C588.327 178.249 589.775 179.129 589.775 180.608C589.775 182.093 588.264 183.004 585.775 183.004C582.967 183.004 581.301 181.806 581.207 179.822H578.592C578.655 183.16 581.457 185.369 585.743 185.369Z" fill="white"/>
<path d="M516.162 395.99C523.438 395.99 528.136 391.844 528.136 385.396C528.136 379.183 523.667 374.943 517.178 374.943H511.975L512.433 369.417H526.433V363.11H506.126L504.511 380.657H516.068C519.157 380.657 521.136 382.407 521.136 385.074C521.136 387.792 519.157 389.542 516.068 389.542C513.126 389.542 511.188 387.933 511.053 385.261H504.053C504.329 391.891 508.933 395.99 516.162 395.99Z" fill="white"/>
<path d="M541.715 400.688H547.705V395.85C553.918 395.162 557.648 391.709 557.648 386.271C557.648 381.162 554.288 378.12 546.278 376.235C541.351 375.084 539.642 373.839 539.642 371.86C539.642 369.74 541.533 368.454 544.616 368.454C547.981 368.454 550.007 370.204 550.007 373.105H557.049C557.049 367.532 553.46 363.709 547.658 362.745V358.047H541.809V362.652C536.007 363.433 532.507 366.839 532.507 372.001C532.507 377.245 536.054 380.381 543.606 381.99C548.163 382.959 550.236 384.292 550.236 386.547C550.236 388.714 548.304 389.959 545.262 389.959C541.715 389.959 539.413 388.162 539.413 385.074H532.231C532.231 390.693 535.778 394.61 541.715 395.667V400.688Z" fill="white"/>
<path d="M376.018 51.2491C381.341 51.2491 384.554 47.7491 384.554 41.8897V28.8168H381.784V41.7022C381.784 46.2074 379.799 48.5355 376.018 48.5355C372.268 48.5355 370.252 46.2074 370.252 41.7022V28.8168H367.513V41.8897C367.513 47.7491 370.695 51.2491 376.018 51.2491Z" fill="#B5B4B6"/>
<path d="M399.357 51.2803C404.18 51.2803 407.674 47.6553 407.674 42.6761C407.674 37.7334 404.18 34.1084 399.357 34.1084C396.68 34.1084 394.414 35.2126 392.93 37.0407L392.617 34.5199H390.445V57.1709H393.091V48.5355C394.57 50.2386 396.773 51.2803 399.357 51.2803ZM392.992 42.6761C392.992 39.1501 395.482 36.6292 399.013 36.6292C402.57 36.6292 405.029 39.1501 405.029 42.6761C405.029 46.2386 402.57 48.7282 399.013 48.7282C395.482 48.7282 392.992 46.2386 392.992 42.6761Z" fill="#B5B4B6"/>
<path d="M412.243 50.8688H414.889V27.5563H412.243V50.8688Z" fill="#B5B4B6"/>
<path d="M420.749 50.8688H423.395V34.5199H420.749V50.8688ZM419.926 29.7595C419.926 30.9261 420.78 31.8063 422.072 31.8063C423.363 31.8063 424.181 30.9261 424.181 29.7595C424.181 28.5615 423.363 27.6813 422.072 27.6813C420.78 27.6813 419.926 28.5615 419.926 29.7595Z" fill="#B5B4B6"/>
<path d="M429.254 50.8688H431.9V42.6136C431.9 39.0251 434.072 36.6292 437.129 36.6292C439.993 36.6292 441.759 38.7074 441.759 42.0146V50.8688H444.405V41.7646C444.405 37.1032 441.822 34.1084 437.473 34.1084C435.27 34.1084 433.129 34.9574 431.707 36.9105L431.426 34.5199H429.254V50.8688Z" fill="#B5B4B6"/>
<path d="M457.038 51.2803C460.721 51.2803 463.747 49.2959 465.07 46.1136H462.075C461.07 47.8428 459.21 48.7907 457.07 48.7907C453.95 48.7907 451.742 46.8376 451.335 43.749H465.481C465.669 38.0459 462.299 34.1084 457.07 34.1084C452.122 34.1084 448.658 37.6396 448.658 42.6761C448.658 47.749 452.09 51.2803 457.038 51.2803ZM451.367 41.4157C451.835 38.5199 454.044 36.598 457.07 36.598C460.059 36.598 462.268 38.4261 462.835 41.4157H451.367Z" fill="#B5B4B6"/>
<path d="M485.104 57.5771C489.984 57.5771 493.166 54.5563 493.166 49.9261V34.5199H490.994L490.713 36.723C489.26 35.0876 487.119 34.1084 484.661 34.1084C480 34.1084 476.505 37.6396 476.505 42.3949C476.505 47.1813 480 50.7126 484.661 50.7126C487.026 50.7126 489.073 49.7959 490.521 48.2855V49.8271C490.521 53.2021 488.536 55.124 485.104 55.124C482.427 55.124 480.567 53.8949 480.062 51.9105H477.385C477.984 55.4053 480.942 57.5771 485.104 57.5771ZM479.151 42.3949C479.151 39.0563 481.573 36.6605 484.948 36.6605C488.349 36.6605 490.744 39.0563 490.744 42.3949C490.744 45.7646 488.349 48.1292 484.948 48.1292C481.573 48.1292 479.151 45.7646 479.151 42.3949Z" fill="#B5B4B6"/>
<path d="M506.117 51.2803C509.799 51.2803 512.825 49.2959 514.148 46.1136H511.153C510.148 47.8428 508.288 48.7907 506.148 48.7907C503.028 48.7907 500.82 46.8376 500.413 43.749H514.559C514.747 38.0459 511.377 34.1084 506.148 34.1084C501.2 34.1084 497.736 37.6396 497.736 42.6761C497.736 47.749 501.169 51.2803 506.117 51.2803ZM500.445 41.4157C500.913 38.5199 503.122 36.598 506.148 36.598C509.137 36.598 511.346 38.4261 511.913 41.4157H500.445Z" fill="#B5B4B6"/>
<path d="M526.114 50.8688H528.572V48.3167H526.244C524.067 48.3167 523.062 47.2126 523.062 44.8532V36.9417H528.354V34.5199H523.062V30.4521H521.015L520.76 32.6605C520.572 34.1396 520.13 34.5199 518.619 34.5199H516.979V36.9417H520.416V44.9782C520.416 48.7282 522.494 50.8688 526.114 50.8688Z" fill="#B5B4B6"/>
<path d="M547.475 51.2803C552.012 51.2803 555.038 48.4418 555.038 44.2543C555.038 40.0928 552.012 37.2595 547.506 37.2595H543.475L543.944 31.4001H554.027V28.8168H541.423L540.574 39.8116H547.506C550.371 39.8116 552.262 41.5147 552.262 44.1918C552.262 46.8376 550.402 48.598 547.506 48.598C544.767 48.598 542.876 47.0251 542.715 44.5043H540.006C540.199 48.6345 543.126 51.2803 547.475 51.2803Z" fill="#B5B4B6"/>
<path d="M565.652 54.5876H568.391V51.2491C572.646 50.9314 575.323 48.6345 575.323 45.072C575.323 41.8272 573.115 39.8741 567.511 38.4886C563.224 37.447 561.808 36.3116 561.808 34.4886C561.808 32.3428 563.698 31.0511 566.849 31.0511C570.094 31.0511 572.11 32.6918 572.172 35.3376H574.912C574.881 31.5251 572.422 29.0043 568.391 28.4991V25.223H565.652V28.4678C561.521 28.8168 558.969 31.0511 558.969 34.4886C558.969 37.8897 561.396 39.7803 566.813 41.072C570.756 41.9834 572.454 43.1189 572.454 45.1657C572.454 47.3428 570.469 48.6345 567.381 48.6345C563.948 48.6345 561.553 46.9314 561.49 44.098H558.719C558.75 47.9053 561.396 50.6189 565.652 51.1501V54.5876Z" fill="#B5B4B6"/>
</svg>
