<svg width="107" height="19" viewBox="0 0 107 19" fill="none" xmlns="http://www.w3.org/2000/svg">
<path d="M18.995 11.0501C18.4315 10.7458 17.7622 10.993 17.4804 11.6016C16.0715 14.7968 12.1793 16.0901 9.36149 14.3023C8.48092 14.6827 7.60034 15.025 6.70215 15.3293L7.63556 16.014C11.5629 19.038 17.4452 17.4214 19.5234 12.6857C19.7699 12.0961 19.541 11.3544 18.995 11.0501Z" fill="#8949F3"/>
<path d="M22.3588 0.893896C21.4606 0.494497 20.4568 0.684678 19.6114 0.931925C19.2944 1.02702 19.312 1.55956 19.6643 1.52152C20.2278 1.46446 20.9499 1.4074 21.4606 1.67367C21.6544 1.76877 21.7072 1.93994 21.7072 1.997C21.7072 2.11111 21.6896 2.22522 21.6191 2.33934C19.6819 5.68668 12.0385 9.83283 7.14244 11.8488C6.61409 10.8979 6.33231 9.79479 6.33231 8.67267C6.33231 5.23022 8.92121 2.41542 12.1265 2.41542C13.0775 2.41542 14.0286 2.68168 14.8563 3.15715C15.4023 3.48047 16.0715 3.25225 16.3709 2.66266C16.6703 2.07307 16.459 1.35034 15.913 1.02702C14.7506 0.361354 13.4474 0 12.1089 0C7.6884 0 4.09564 3.87988 4.09564 8.65365C4.09564 10.0611 4.41265 11.4114 4.99383 12.6476C4.90577 12.6667 4.83533 12.7047 4.74727 12.7237C4.11325 12.9139 1.26018 13.8458 1.04884 12.9329C1.01362 12.7618 1.11929 12.4574 1.24257 12.2482C1.55957 11.6586 1.99986 11.1261 2.44015 10.6316C2.56343 10.4985 2.56343 10.2893 2.42254 10.1561C2.31687 10.042 2.12314 10.042 2.01748 10.1561C1.48913 10.6126 0.960782 11.2212 0.643773 11.6967C0.361988 12.0581 0.0273686 12.7237 0.00975706 13.0851C-0.0606892 13.6556 0.256319 14.1882 0.767054 14.3594C0.819889 14.3974 0.872724 14.3974 0.925558 14.4354C1.06645 14.4925 1.24257 14.5305 1.38346 14.5686C6.82543 15.2152 18.2729 8.59659 21.8657 4.16516C22.94 2.96696 23.6621 1.48349 22.3588 0.893896Z" fill="#8949F3"/>
<path d="M1.9469 4.54556C2.26391 4.54556 2.52809 4.26028 2.52809 3.91794C2.52809 3.5756 2.26391 3.29031 1.9469 3.29031C1.6299 3.29031 1.36572 3.5756 1.36572 3.91794C1.36572 4.26028 1.6299 4.54556 1.9469 4.54556Z" fill="#8949F3"/>
<path d="M4.83509 19C5.15606 19 5.41627 18.719 5.41627 18.3724C5.41627 18.0257 5.15606 17.7448 4.83509 17.7448C4.51411 17.7448 4.25391 18.0257 4.25391 18.3724C4.25391 18.719 4.51411 19 4.83509 19Z" fill="#8949F3"/>
<path d="M22.1124 8.52051C22.4334 8.52051 22.6936 8.23951 22.6936 7.89288C22.6936 7.54625 22.4334 7.26526 22.1124 7.26526C21.7915 7.26526 21.5312 7.54625 21.5312 7.89288C21.5312 8.23951 21.7915 8.52051 22.1124 8.52051Z" fill="#8949F3"/>
<path d="M29.1919 10.1752C29.1919 7.74072 31.182 5.70569 33.5243 5.70569C34.81 5.70569 35.8667 6.27626 36.6416 7.17015L35.1622 8.53951C34.7572 8.06404 34.1407 7.74072 33.5243 7.74072C32.362 7.74072 31.3757 8.84382 31.3757 10.1561C31.3757 11.4875 32.362 12.6286 33.542 12.6286C34.1584 12.6286 34.7924 12.3053 35.2151 11.7918L36.6944 13.1421C35.9195 14.074 34.8452 14.6446 33.5243 14.6446C31.1644 14.6636 29.1919 12.6096 29.1919 10.1752Z" fill="white"/>
<path d="M45.5529 9.01501V14.4545L43.3867 14.4545V9.52853C43.3867 8.46346 42.7703 7.74075 41.8897 7.74075C40.9563 7.74075 40.2342 8.46346 40.2342 9.39539V14.4545H37.9976V2.8909L40.2342 2.8909V6.94195C40.7273 6.20021 41.5903 5.70571 42.6118 5.70571C44.3201 5.70571 45.5529 7.07507 45.5529 9.01501Z" fill="white"/>
<path d="M54.4468 9.33836V14.4545L52.2806 14.4545V13.5986C51.717 14.3023 50.8012 14.6637 49.9559 14.6637C48.2652 14.6637 46.9619 13.5796 46.9619 11.925C46.9619 10.2323 48.4237 9.0721 50.2553 9.0721C50.9069 9.0721 51.6114 9.22425 52.2806 9.50953V9.33836C52.2806 8.42545 51.7523 7.62665 50.449 7.62665C49.7093 7.62665 49.0225 7.89292 48.3885 8.23526L47.6312 6.63766C48.7583 6.02905 49.8326 5.68671 50.9421 5.68671C53.0379 5.70573 54.4468 7.11313 54.4468 9.33836ZM52.2982 11.7538V10.955C51.7875 10.7648 51.2063 10.6316 50.5899 10.6316C49.7798 10.6316 49.1281 11.1452 49.1281 11.8489C49.1281 12.5526 49.6917 12.971 50.4666 12.971C51.3296 12.99 52.1397 12.5526 52.2982 11.7538Z" fill="white"/>
<path d="M56.2256 3.40441C56.2256 2.71972 56.7539 2.11111 57.4584 2.11111C58.11 2.11111 58.656 2.71972 58.656 3.40441C58.656 4.12713 58.1276 4.73574 57.4584 4.73574C56.7715 4.73574 56.2256 4.12713 56.2256 3.40441ZM56.3136 5.8959H58.5503V14.4545H56.3136V5.8959Z" fill="white"/>
<path d="M68.0256 9.01499V14.4544L65.8594 14.4544V9.52851C65.8594 8.46344 65.243 7.74073 64.3624 7.74073C63.429 7.74073 62.7069 8.46344 62.7069 9.39537L62.6893 9.33832V14.4544H60.4526V5.89588H62.6893V6.97996C63.1648 6.20019 64.0454 5.70569 65.0845 5.70569C66.7928 5.70569 68.0256 7.07505 68.0256 9.01499Z" fill="white"/>
<path d="M76.9371 9.33836V14.4545L74.7709 14.4545V13.5986C74.2073 14.3023 73.2915 14.6637 72.4461 14.6637C70.7554 14.6637 69.4521 13.5796 69.4521 11.925C69.4521 10.2323 70.9139 9.0721 72.7455 9.0721C73.3972 9.0721 74.1016 9.22425 74.7709 9.50953V9.33836C74.7709 8.42545 74.2425 7.62665 72.9393 7.62665C72.1996 7.62665 71.5127 7.89292 70.8787 8.23526L70.1214 6.63766C71.2485 6.02905 72.3228 5.68671 73.4324 5.68671C75.5105 5.70573 76.9371 7.11313 76.9371 9.33836ZM74.7709 11.7538V10.955C74.2601 10.7648 73.6789 10.6316 73.0625 10.6316C72.2524 10.6316 71.6008 11.1452 71.6008 11.8489C71.6008 12.5526 72.1643 12.971 72.9393 12.971C73.8022 12.99 74.6124 12.5526 74.7709 11.7538Z" fill="white"/>
<path d="M87.3453 10.1752C87.3453 12.7998 85.8131 14.6637 83.6997 14.6637C82.5902 14.6637 81.6744 14.1502 81.0404 13.2563V17.3073H78.8037V5.91491H81.0404V7.11311C81.6744 6.23824 82.5902 5.72472 83.6997 5.72472C85.8131 5.70571 87.3453 7.55055 87.3453 10.1752ZM85.1791 10.1752C85.1791 8.74875 84.2985 7.74075 83.0657 7.74075C81.9738 7.74075 81.1813 8.5966 81.058 9.83284V10.4985C81.1813 11.7538 81.9738 12.6096 83.0657 12.6096C84.2985 12.6286 85.1791 11.6206 85.1791 10.1752Z" fill="white"/>
<path d="M88.3315 13.3704L89.3002 11.6967C90.0046 12.2483 90.8852 12.6477 91.9595 12.6477C92.5583 12.6477 92.981 12.3814 92.981 12.001C92.981 11.4685 92.3998 11.2973 91.5897 11.0691C89.9694 10.6317 88.7014 10.1562 88.7014 8.46349C88.6838 6.84687 89.9342 5.68671 91.801 5.68671C92.9282 5.68671 94.0553 6.12415 94.9183 6.75178L94.0201 8.46349C93.298 7.98802 92.4703 7.70273 91.801 7.70273C91.2551 7.70273 90.8676 7.91194 90.8676 8.21625C90.8676 8.6727 91.1846 8.80583 92.2589 9.12916C93.615 9.50954 95.1472 10.004 95.1472 11.8679C95.1472 13.5606 93.8792 14.6256 91.9243 14.6256C90.621 14.6637 89.2826 14.1882 88.3315 13.3704Z" fill="white"/>
<path d="M96.5034 3.40441C96.5034 2.71972 97.0318 2.11111 97.7362 2.11111C98.3879 2.11111 98.9338 2.71972 98.9338 3.40441C98.9338 4.12713 98.4055 4.73574 97.7362 4.73574C97.0494 4.73574 96.5034 4.12713 96.5034 3.40441ZM96.6091 5.8959H98.8457V14.4545H96.6091V5.8959Z" fill="white"/>
<path d="M100.184 13.3704L101.153 11.6967C101.857 12.2483 102.738 12.6477 103.812 12.6477C104.411 12.6477 104.834 12.3814 104.834 12.001C104.834 11.4685 104.252 11.2973 103.442 11.0691C101.822 10.6317 100.554 10.1562 100.554 8.46349C100.536 6.84687 101.787 5.68671 103.654 5.68671C104.781 5.68671 105.908 6.12415 106.771 6.75178L105.873 8.46349C105.151 7.98802 104.323 7.70273 103.654 7.70273C103.108 7.70273 102.72 7.91194 102.72 8.21625C102.72 8.6727 103.037 8.80583 104.111 9.12916C105.468 9.50954 107 10.004 107 11.8679C107 13.5606 105.732 14.6256 103.777 14.6256C102.491 14.6637 101.135 14.1882 100.184 13.3704Z" fill="white"/>
</svg>
