<svg width="64" height="64" viewBox="0 0 64 64" fill="none" xmlns="http://www.w3.org/2000/svg">
<mask id="mask0_112_76" style="mask-type:luminance" maskUnits="userSpaceOnUse" x="0" y="0" width="64" height="64">
<path d="M0 0H63.3594V63.3594H0V0Z" fill="white"/>
</mask>
<g mask="url(#mask0_112_76)">
<path d="M31.8646 63.7345C14.2865 63.7345 -0.0104065 49.4377 -0.0104065 31.8647C-0.0104065 14.2866 14.2865 -0.0102539 31.8646 -0.0102539C49.4375 -0.0102539 63.7344 14.2866 63.7344 31.8647C63.7344 49.4377 49.4375 63.7345 31.8646 63.7345ZM31.8646 3.46891C16.2083 3.46891 3.46876 16.2085 3.46876 31.8647C3.46876 47.521 16.2083 60.2554 31.8646 60.2554C47.5208 60.2554 60.2552 47.521 60.2552 31.8647C60.2552 16.2085 47.5208 3.46891 31.8646 3.46891Z" fill="#3CDFA6"/>
</g>
<path d="M24.7409 46.3503C24.2982 46.3503 23.8503 46.1836 23.5117 45.8398L14.5117 36.8398C13.8294 36.1628 13.8294 35.0586 14.5117 34.3815C15.1888 33.7044 16.293 33.7044 16.9701 34.3815L24.7409 42.1523L47.3815 19.5117C48.0638 18.8294 49.1628 18.8294 49.8398 19.5117C50.5221 20.1888 50.5221 21.293 49.8398 21.9701L25.9701 45.8398C25.6315 46.1836 25.1888 46.3503 24.7409 46.3503Z" fill="#3CDFA6"/>
</svg>
