<svg width="60" height="53" viewBox="0 0 60 53" fill="none" xmlns="http://www.w3.org/2000/svg">
<path d="M57.2339 32.226L57.177 32.2544C57.8306 33.0501 58.399 33.9311 58.8253 34.8689L59.081 35.4088C61.0987 40.2115 59.6778 45.753 55.955 49.22C52.5733 52.3175 47.8559 53.1417 43.4795 52.5733C39.3305 52.0618 35.5225 49.4473 33.3343 45.8382C32.6807 44.7299 32.1123 43.4795 31.8282 42.2007C31.4587 41.2061 31.3451 40.1262 31.2598 39.0748C31.004 34.5279 32.8228 29.6968 36.2614 26.855C34.6984 30.2936 35.0678 34.5847 37.3697 37.5686L37.6823 37.938C38.0801 38.279 38.5632 38.3643 39.0179 38.1938C39.4442 38.0233 39.7852 37.597 39.7852 37.1423L39.5863 36.4603C37.0855 29.8389 39.1884 22.166 44.5026 17.8181C45.9519 16.6245 47.7422 15.5446 49.6178 15.0615C47.6854 18.9264 48.3106 23.9848 51.4082 26.9971C52.7154 28.418 54.3068 29.2421 55.6424 30.4925L57.2339 32.226ZM50.7546 45.4688L50.7261 45.3835C52.0049 44.2752 52.7154 42.3712 52.6586 40.6662L52.5733 39.7852C52.0049 36.9434 49.5326 35.9772 47.9412 33.9027L46.7192 31.6861C46.094 33.107 46.0372 34.4426 46.2929 35.9772C46.5771 37.597 47.2023 38.9895 46.8897 40.6662C46.435 42.5133 44.9857 44.3605 42.4565 44.9573C43.8774 46.3498 46.1793 47.4581 48.4811 46.6624C49.22 46.4634 50.1578 45.9235 50.7546 45.4688ZM2.8418 34.1016H25.7467L25.5762 36.9434C25.5762 40.9503 26.5993 44.7015 28.418 47.9696V48.3106H2.8418V34.1016ZM0 17.0508H17.0508V31.2598H0V17.0508ZM19.8926 17.0508H36.9434V17.2497C31.7429 20.262 27.8212 25.292 26.2867 31.2598H19.8926V17.0508ZM2.8418 0H25.5762V14.209H2.8418V0ZM28.418 0H53.9942V14.209H28.418V0Z" fill="#E07E37"/>
</svg>
