<svg width="60" height="60" viewBox="0 0 60 60" fill="none" xmlns="http://www.w3.org/2000/svg">
<path d="M24 0C20.67 0 18 2.67 18 6V15C18 18.33 20.67 21 24 21H27V27H0V33H12V39H9C5.67 39 3 41.67 3 45V54C3 57.33 5.67 60 9 60H21C24.33 60 27 57.33 27 54V45C27 41.67 24.33 39 21 39H18V33H42V39H39C35.67 39 33 41.67 33 45V54C33 57.33 35.67 60 39 60H51C54.33 60 57 57.33 57 54V45C57 41.67 54.33 39 51 39H48V33H60V27H33V21H36C39.33 21 42 18.33 42 15V6C42 2.67 39.33 0 36 0H24ZM24 6H36V15H24V6ZM9 45H21V54H9V45ZM39 45H51V54H39V45Z" fill="#E07E37"/>
</svg>
