<svg width="60" height="37" viewBox="0 0 60 37" fill="none" xmlns="http://www.w3.org/2000/svg">
<path d="M46.9565 31.3043V36.5217H15.6522V31.3043C15.6522 31.3043 15.6522 20.8696 31.3043 20.8696C46.9565 20.8696 46.9565 31.3043 46.9565 31.3043ZM39.1304 7.82609C39.1304 6.27824 38.6714 4.76514 37.8115 3.47815C36.9516 2.19116 35.7293 1.18807 34.2993 0.595729C32.8692 0.00339093 31.2957 -0.151592 29.7776 0.15038C28.2594 0.452351 26.865 1.19771 25.7705 2.29221C24.676 3.38671 23.9306 4.78118 23.6286 6.2993C23.3267 7.81741 23.4816 9.39097 24.074 10.821C24.6663 12.251 25.6694 13.4733 26.9564 14.3332C28.2434 15.1932 29.7565 15.6522 31.3043 15.6522C33.38 15.6522 35.3706 14.8276 36.8382 13.36C38.3059 11.8923 39.1304 9.9017 39.1304 7.82609ZM47.4783 21.0261C48.9043 22.3417 50.0539 23.9281 50.8601 25.6928C51.6663 27.4575 52.113 29.3652 52.1739 31.3043V36.5217H60V31.3043C60 31.3043 60 22.3043 47.4783 21.0261ZM44.3478 2.97783e-06C43.5596 0.000474665 42.7764 0.12369 42.0261 0.36522C43.5523 2.55384 44.3706 5.15787 44.3706 7.82609C44.3706 10.4943 43.5523 13.0983 42.0261 15.287C42.7764 15.5285 43.5596 15.6517 44.3478 15.6522C46.4234 15.6522 48.414 14.8276 49.8817 13.36C51.3494 11.8923 52.1739 9.9017 52.1739 7.82609C52.1739 5.75048 51.3494 3.75989 49.8817 2.29221C48.414 0.824535 46.4234 2.97783e-06 44.3478 2.97783e-06ZM16.5391 10.2261L19.5652 13.9043L7.17391 26.2957L0 18.4696L3.02609 15.4435L7.17391 19.5652L16.5391 10.2261Z" fill="#E07E37"/>
</svg>
