<svg width="438" height="210" viewBox="0 0 438 210" fill="none" xmlns="http://www.w3.org/2000/svg">
<rect x="103" y="72" width="232" height="66" rx="14" fill="#0B0F20"/>
<rect x="236" y="90.5144" width="89" height="36.4476" rx="8.47619" fill="#254EC2"/>
<g filter="url(#filter0_i_396_6011)">
<rect x="236" y="82.0381" width="89" height="41.5333" rx="8.47619" fill="url(#paint0_linear_396_6011)"/>
<path d="M271.25 101.369H269.449C269.397 101.074 269.303 100.812 269.165 100.584C269.027 100.353 268.855 100.157 268.649 99.9969C268.444 99.8364 268.21 99.7159 267.946 99.6357C267.686 99.5522 267.405 99.5105 267.103 99.5105C266.567 99.5105 266.092 99.6453 265.678 99.915C265.264 100.181 264.939 100.573 264.705 101.09C264.471 101.604 264.354 102.232 264.354 102.973C264.354 103.728 264.471 104.363 264.705 104.88C264.943 105.394 265.267 105.783 265.678 106.046C266.092 106.306 266.566 106.436 267.099 106.436C267.394 106.436 267.67 106.397 267.927 106.32C268.187 106.24 268.42 106.123 268.625 105.969C268.834 105.815 269.009 105.625 269.15 105.4C269.295 105.176 269.394 104.919 269.449 104.63L271.25 104.64C271.183 105.108 271.037 105.548 270.812 105.959C270.59 106.37 270.3 106.733 269.94 107.048C269.58 107.359 269.16 107.603 268.678 107.78C268.197 107.953 267.662 108.04 267.075 108.04C266.208 108.04 265.434 107.839 264.753 107.438C264.073 107.036 263.536 106.457 263.145 105.699C262.753 104.941 262.557 104.033 262.557 102.973C262.557 101.91 262.755 101.002 263.15 100.247C263.544 99.4896 264.082 98.9101 264.763 98.5087C265.444 98.1074 266.214 97.9067 267.075 97.9067C267.624 97.9067 268.134 97.9838 268.606 98.1379C269.078 98.292 269.499 98.5184 269.868 98.817C270.237 99.1123 270.54 99.4751 270.778 99.9054C271.019 100.332 271.176 100.82 271.25 101.369ZM274.553 98.0416V107.905H272.809V98.0416H274.553ZM278.474 108.054C278.005 108.054 277.583 107.971 277.207 107.804C276.835 107.633 276.54 107.383 276.321 107.052C276.106 106.722 275.999 106.314 275.999 105.829C275.999 105.412 276.076 105.067 276.23 104.794C276.384 104.521 276.594 104.302 276.861 104.139C277.127 103.975 277.427 103.851 277.761 103.768C278.098 103.681 278.447 103.619 278.806 103.58C279.24 103.535 279.591 103.495 279.861 103.46C280.131 103.421 280.327 103.363 280.449 103.286C280.574 103.206 280.636 103.082 280.636 102.915V102.886C280.636 102.524 280.529 102.243 280.314 102.044C280.099 101.845 279.789 101.745 279.384 101.745C278.957 101.745 278.619 101.838 278.368 102.024C278.121 102.211 277.954 102.431 277.867 102.684L276.239 102.453C276.368 102.004 276.58 101.628 276.875 101.326C277.171 101.021 277.532 100.793 277.959 100.642C278.386 100.488 278.858 100.411 279.375 100.411C279.731 100.411 280.086 100.453 280.439 100.536C280.792 100.62 281.115 100.758 281.407 100.95C281.699 101.14 281.934 101.398 282.11 101.726C282.29 102.053 282.38 102.463 282.38 102.954V107.905H280.704V106.889H280.646C280.54 107.094 280.391 107.287 280.198 107.467C280.009 107.643 279.77 107.786 279.481 107.895C279.195 108.001 278.859 108.054 278.474 108.054ZM278.927 106.773C279.277 106.773 279.58 106.704 279.837 106.566C280.094 106.425 280.291 106.238 280.429 106.007C280.571 105.776 280.641 105.524 280.641 105.251V104.379C280.587 104.424 280.494 104.466 280.362 104.505C280.234 104.543 280.089 104.577 279.929 104.606C279.768 104.635 279.609 104.66 279.452 104.683C279.294 104.705 279.158 104.725 279.042 104.741C278.782 104.776 278.55 104.834 278.344 104.914C278.139 104.994 277.976 105.107 277.858 105.251C277.739 105.392 277.679 105.575 277.679 105.8C277.679 106.121 277.797 106.364 278.031 106.527C278.265 106.691 278.564 106.773 278.927 106.773ZM284.133 107.905V100.507H285.876V107.905H284.133ZM285.009 99.4575C284.733 99.4575 284.496 99.366 284.297 99.183C284.098 98.9968 283.998 98.7736 283.998 98.5136C283.998 98.2503 284.098 98.0271 284.297 97.8441C284.496 97.6579 284.733 97.5648 285.009 97.5648C285.289 97.5648 285.526 97.6579 285.722 97.8441C285.921 98.0271 286.021 98.2503 286.021 98.5136C286.021 98.7736 285.921 98.9968 285.722 99.183C285.526 99.366 285.289 99.4575 285.009 99.4575ZM287.669 107.905V100.507H289.335V101.764H289.422C289.576 101.341 289.831 101.01 290.188 100.772C290.544 100.531 290.97 100.411 291.464 100.411C291.965 100.411 292.387 100.533 292.731 100.777C293.077 101.018 293.321 101.347 293.463 101.764H293.54C293.704 101.353 293.98 101.026 294.368 100.782C294.76 100.535 295.224 100.411 295.76 100.411C296.441 100.411 296.996 100.626 297.426 101.056C297.857 101.487 298.072 102.114 298.072 102.939V107.905H296.323V103.209C296.323 102.75 296.201 102.415 295.957 102.203C295.713 101.988 295.415 101.88 295.062 101.88C294.641 101.88 294.312 102.012 294.074 102.275C293.84 102.535 293.723 102.874 293.723 103.291V107.905H292.013V103.137C292.013 102.755 291.898 102.45 291.666 102.222C291.438 101.994 291.14 101.88 290.771 101.88C290.52 101.88 290.292 101.944 290.087 102.073C289.881 102.198 289.717 102.376 289.595 102.607C289.473 102.835 289.412 103.102 289.412 103.407V107.905H287.669Z" fill="white"/>
</g>
<rect x="236.424" y="82.4619" width="88.1524" height="40.6857" rx="8.05238" fill="white" fill-opacity="0.01"/>
<path d="M271.25 101.369H269.449C269.397 101.074 269.303 100.812 269.165 100.584C269.027 100.353 268.855 100.157 268.649 99.9969C268.444 99.8364 268.21 99.7159 267.946 99.6357C267.686 99.5522 267.405 99.5105 267.103 99.5105C266.567 99.5105 266.092 99.6453 265.678 99.915C265.264 100.181 264.939 100.573 264.705 101.09C264.471 101.604 264.354 102.232 264.354 102.973C264.354 103.728 264.471 104.363 264.705 104.88C264.943 105.394 265.267 105.783 265.678 106.046C266.092 106.306 266.566 106.436 267.099 106.436C267.394 106.436 267.67 106.397 267.927 106.32C268.187 106.24 268.42 106.123 268.625 105.969C268.834 105.815 269.009 105.625 269.15 105.4C269.295 105.176 269.394 104.919 269.449 104.63L271.25 104.64C271.183 105.108 271.037 105.548 270.812 105.959C270.59 106.37 270.3 106.733 269.94 107.048C269.58 107.359 269.16 107.603 268.678 107.78C268.197 107.953 267.662 108.04 267.075 108.04C266.208 108.04 265.434 107.839 264.753 107.438C264.073 107.036 263.536 106.457 263.145 105.699C262.753 104.941 262.557 104.033 262.557 102.973C262.557 101.91 262.755 101.002 263.15 100.247C263.544 99.4896 264.082 98.9101 264.763 98.5087C265.444 98.1074 266.214 97.9067 267.075 97.9067C267.624 97.9067 268.134 97.9838 268.606 98.1379C269.078 98.292 269.499 98.5184 269.868 98.817C270.237 99.1123 270.54 99.4751 270.778 99.9054C271.019 100.332 271.176 100.82 271.25 101.369ZM274.553 98.0416V107.905H272.809V98.0416H274.553ZM278.474 108.054C278.005 108.054 277.583 107.971 277.207 107.804C276.835 107.633 276.54 107.383 276.321 107.052C276.106 106.722 275.999 106.314 275.999 105.829C275.999 105.412 276.076 105.067 276.23 104.794C276.384 104.521 276.594 104.302 276.861 104.139C277.127 103.975 277.427 103.851 277.761 103.768C278.098 103.681 278.447 103.619 278.806 103.58C279.24 103.535 279.591 103.495 279.861 103.46C280.131 103.421 280.327 103.363 280.449 103.286C280.574 103.206 280.636 103.082 280.636 102.915V102.886C280.636 102.524 280.529 102.243 280.314 102.044C280.099 101.845 279.789 101.745 279.384 101.745C278.957 101.745 278.619 101.838 278.368 102.024C278.121 102.211 277.954 102.431 277.867 102.684L276.239 102.453C276.368 102.004 276.58 101.628 276.875 101.326C277.171 101.021 277.532 100.793 277.959 100.642C278.386 100.488 278.858 100.411 279.375 100.411C279.731 100.411 280.086 100.453 280.439 100.536C280.792 100.62 281.115 100.758 281.407 100.95C281.699 101.14 281.934 101.398 282.11 101.726C282.29 102.053 282.38 102.463 282.38 102.954V107.905H280.704V106.889H280.646C280.54 107.094 280.391 107.287 280.198 107.467C280.009 107.643 279.77 107.786 279.481 107.895C279.195 108.001 278.859 108.054 278.474 108.054ZM278.927 106.773C279.277 106.773 279.58 106.704 279.837 106.566C280.094 106.425 280.291 106.238 280.429 106.007C280.571 105.776 280.641 105.524 280.641 105.251V104.379C280.587 104.424 280.494 104.466 280.362 104.505C280.234 104.543 280.089 104.577 279.929 104.606C279.768 104.635 279.609 104.66 279.452 104.683C279.294 104.705 279.158 104.725 279.042 104.741C278.782 104.776 278.55 104.834 278.344 104.914C278.139 104.994 277.976 105.107 277.858 105.251C277.739 105.392 277.679 105.575 277.679 105.8C277.679 106.121 277.797 106.364 278.031 106.527C278.265 106.691 278.564 106.773 278.927 106.773ZM284.133 107.905V100.507H285.876V107.905H284.133ZM285.009 99.4575C284.733 99.4575 284.496 99.366 284.297 99.183C284.098 98.9968 283.998 98.7736 283.998 98.5136C283.998 98.2503 284.098 98.0271 284.297 97.8441C284.496 97.6579 284.733 97.5648 285.009 97.5648C285.289 97.5648 285.526 97.6579 285.722 97.8441C285.921 98.0271 286.021 98.2503 286.021 98.5136C286.021 98.7736 285.921 98.9968 285.722 99.183C285.526 99.366 285.289 99.4575 285.009 99.4575ZM287.669 107.905V100.507H289.335V101.764H289.422C289.576 101.341 289.831 101.01 290.188 100.772C290.544 100.531 290.97 100.411 291.464 100.411C291.965 100.411 292.387 100.533 292.731 100.777C293.077 101.018 293.321 101.347 293.463 101.764H293.54C293.704 101.353 293.98 101.026 294.368 100.782C294.76 100.535 295.224 100.411 295.76 100.411C296.441 100.411 296.996 100.626 297.426 101.056C297.857 101.487 298.072 102.114 298.072 102.939V107.905H296.323V103.209C296.323 102.75 296.201 102.415 295.957 102.203C295.713 101.988 295.415 101.88 295.062 101.88C294.641 101.88 294.312 102.012 294.074 102.275C293.84 102.535 293.723 102.874 293.723 103.291V107.905H292.013V103.137C292.013 102.755 291.898 102.45 291.666 102.222C291.438 101.994 291.14 101.88 290.771 101.88C290.52 101.88 290.292 101.944 290.087 102.073C289.881 102.198 289.717 102.376 289.595 102.607C289.473 102.835 289.412 103.102 289.412 103.407V107.905H287.669Z" fill="white"/>
<rect x="236.424" y="82.4619" width="88.1524" height="40.6857" rx="8.05238" stroke="#254EC2" stroke-width="0.847619"/>
<path d="M120.815 111.455V96.9091H121.747V111.455H120.815ZM123.503 101.562C123.45 101.066 123.226 100.68 122.832 100.403C122.442 100.127 121.935 99.9886 121.31 99.9886C120.87 99.9886 120.493 100.055 120.179 100.188C119.865 100.32 119.624 100.5 119.457 100.727C119.291 100.955 119.205 101.214 119.202 101.506C119.202 101.748 119.257 101.958 119.366 102.136C119.48 102.314 119.634 102.466 119.827 102.591C120.02 102.712 120.234 102.814 120.469 102.898C120.704 102.981 120.94 103.051 121.179 103.108L122.27 103.381C122.709 103.483 123.132 103.621 123.537 103.795C123.946 103.97 124.312 104.189 124.634 104.455C124.959 104.72 125.217 105.04 125.406 105.415C125.596 105.79 125.69 106.229 125.69 106.733C125.69 107.415 125.516 108.015 125.168 108.534C124.819 109.049 124.315 109.453 123.656 109.744C123.001 110.032 122.207 110.176 121.276 110.176C120.37 110.176 119.584 110.036 118.918 109.756C118.255 109.475 117.736 109.066 117.361 108.528C116.99 107.991 116.789 107.335 116.759 106.562H118.832C118.863 106.968 118.988 107.305 119.207 107.574C119.427 107.843 119.713 108.044 120.065 108.176C120.421 108.309 120.819 108.375 121.259 108.375C121.717 108.375 122.118 108.307 122.463 108.17C122.812 108.03 123.084 107.837 123.281 107.591C123.478 107.341 123.579 107.049 123.582 106.716C123.579 106.413 123.49 106.163 123.315 105.966C123.141 105.765 122.897 105.598 122.582 105.466C122.272 105.33 121.908 105.208 121.491 105.102L120.168 104.761C119.209 104.515 118.452 104.142 117.895 103.642C117.342 103.138 117.065 102.47 117.065 101.636C117.065 100.951 117.251 100.35 117.622 99.8352C117.997 99.3201 118.507 98.9205 119.151 98.6364C119.795 98.3485 120.524 98.2045 121.338 98.2045C122.164 98.2045 122.887 98.3485 123.509 98.6364C124.134 98.9205 124.624 99.3163 124.98 99.8239C125.336 100.328 125.52 100.907 125.531 101.562H123.503ZM131.501 110.159C130.744 110.159 130.066 110.017 129.467 109.733C128.869 109.445 128.393 109.051 128.041 108.551C127.693 108.051 127.507 107.479 127.484 106.835H129.53C129.568 107.312 129.774 107.703 130.149 108.006C130.524 108.305 130.975 108.455 131.501 108.455C131.914 108.455 132.282 108.36 132.604 108.17C132.926 107.981 133.179 107.718 133.365 107.381C133.551 107.044 133.642 106.659 133.638 106.227C133.642 105.788 133.549 105.398 133.359 105.057C133.17 104.716 132.911 104.449 132.581 104.256C132.251 104.059 131.873 103.96 131.445 103.96C131.096 103.956 130.753 104.021 130.416 104.153C130.079 104.286 129.812 104.46 129.615 104.676L127.712 104.364L128.32 98.3636H135.07V100.125H130.064L129.729 103.21H129.797C130.013 102.956 130.318 102.746 130.712 102.58C131.106 102.409 131.537 102.324 132.007 102.324C132.712 102.324 133.34 102.491 133.893 102.824C134.446 103.153 134.882 103.608 135.2 104.188C135.518 104.767 135.678 105.43 135.678 106.176C135.678 106.945 135.5 107.631 135.143 108.233C134.791 108.831 134.301 109.303 133.672 109.648C133.047 109.989 132.323 110.159 131.501 110.159ZM137.581 110V108.477L141.621 104.517C142.007 104.127 142.329 103.78 142.587 103.477C142.844 103.174 143.037 102.881 143.166 102.597C143.295 102.312 143.359 102.009 143.359 101.688C143.359 101.32 143.276 101.006 143.109 100.744C142.943 100.479 142.714 100.275 142.422 100.131C142.13 99.9867 141.799 99.9148 141.428 99.9148C141.045 99.9148 140.71 99.9943 140.422 100.153C140.134 100.309 139.911 100.53 139.751 100.818C139.596 101.106 139.518 101.449 139.518 101.847H137.513C137.513 101.108 137.681 100.466 138.018 99.9205C138.356 99.375 138.82 98.9527 139.411 98.6534C140.005 98.3542 140.687 98.2045 141.456 98.2045C142.236 98.2045 142.922 98.3504 143.513 98.642C144.104 98.9337 144.562 99.3333 144.888 99.8409C145.217 100.348 145.382 100.928 145.382 101.58C145.382 102.015 145.299 102.443 145.132 102.864C144.965 103.284 144.672 103.75 144.251 104.261C143.835 104.773 143.25 105.392 142.496 106.119L140.49 108.159V108.239H145.558V110H137.581ZM151.78 110.159C151.223 110.155 150.679 110.059 150.149 109.869C149.619 109.676 149.142 109.364 148.717 108.932C148.293 108.496 147.956 107.919 147.706 107.199C147.456 106.475 147.333 105.58 147.337 104.511C147.337 103.515 147.443 102.627 147.655 101.847C147.867 101.066 148.172 100.407 148.57 99.8693C148.967 99.3277 149.446 98.9148 150.007 98.6307C150.571 98.3466 151.202 98.2045 151.899 98.2045C152.63 98.2045 153.278 98.3485 153.842 98.6364C154.411 98.9242 154.869 99.3182 155.217 99.8182C155.566 100.314 155.782 100.875 155.865 101.5H153.791C153.685 101.053 153.467 100.697 153.138 100.432C152.812 100.163 152.399 100.028 151.899 100.028C151.092 100.028 150.471 100.379 150.036 101.08C149.604 101.78 149.386 102.742 149.382 103.966H149.462C149.647 103.633 149.888 103.347 150.183 103.108C150.479 102.869 150.812 102.686 151.183 102.557C151.558 102.424 151.954 102.358 152.371 102.358C153.053 102.358 153.664 102.521 154.206 102.847C154.751 103.172 155.183 103.621 155.501 104.193C155.82 104.761 155.977 105.413 155.973 106.148C155.977 106.913 155.803 107.6 155.45 108.21C155.098 108.816 154.607 109.294 153.979 109.642C153.35 109.991 152.617 110.163 151.78 110.159ZM151.768 108.455C152.181 108.455 152.551 108.354 152.876 108.153C153.202 107.953 153.46 107.682 153.649 107.341C153.839 107 153.931 106.617 153.928 106.193C153.931 105.777 153.84 105.4 153.655 105.062C153.473 104.725 153.221 104.458 152.899 104.261C152.577 104.064 152.21 103.966 151.797 103.966C151.49 103.966 151.204 104.025 150.939 104.142C150.674 104.259 150.443 104.422 150.246 104.631C150.049 104.835 149.893 105.074 149.78 105.347C149.67 105.616 149.613 105.903 149.609 106.21C149.613 106.616 149.708 106.989 149.893 107.33C150.079 107.67 150.335 107.943 150.661 108.148C150.986 108.352 151.356 108.455 151.768 108.455ZM158.683 110.125C158.339 110.125 158.043 110.004 157.797 109.761C157.551 109.519 157.429 109.223 157.433 108.875C157.429 108.534 157.551 108.242 157.797 108C158.043 107.758 158.339 107.636 158.683 107.636C159.017 107.636 159.306 107.758 159.553 108C159.803 108.242 159.929 108.534 159.933 108.875C159.929 109.106 159.869 109.316 159.751 109.506C159.638 109.695 159.486 109.847 159.297 109.96C159.111 110.07 158.907 110.125 158.683 110.125ZM165.82 110.159C165.001 110.159 164.274 110.019 163.638 109.739C163.005 109.458 162.505 109.068 162.138 108.568C161.77 108.068 161.575 107.491 161.553 106.835H163.689C163.708 107.15 163.812 107.424 164.001 107.659C164.191 107.89 164.443 108.07 164.757 108.199C165.071 108.328 165.424 108.392 165.814 108.392C166.231 108.392 166.6 108.32 166.922 108.176C167.244 108.028 167.496 107.824 167.678 107.562C167.859 107.301 167.948 107 167.945 106.659C167.948 106.307 167.857 105.996 167.672 105.727C167.486 105.458 167.217 105.248 166.865 105.097C166.517 104.945 166.096 104.869 165.604 104.869H164.575V103.244H165.604C166.009 103.244 166.363 103.174 166.666 103.034C166.973 102.894 167.214 102.697 167.388 102.443C167.562 102.186 167.647 101.888 167.643 101.551C167.647 101.222 167.573 100.936 167.422 100.693C167.274 100.447 167.064 100.256 166.791 100.119C166.522 99.983 166.206 99.9148 165.842 99.9148C165.486 99.9148 165.157 99.9792 164.854 100.108C164.551 100.237 164.306 100.42 164.121 100.659C163.935 100.894 163.837 101.174 163.825 101.5H161.797C161.812 100.848 162 100.277 162.359 99.7841C162.723 99.2879 163.208 98.9015 163.814 98.625C164.42 98.3447 165.1 98.2045 165.854 98.2045C166.63 98.2045 167.304 98.3504 167.876 98.642C168.452 98.9299 168.897 99.3182 169.212 99.8068C169.526 100.295 169.683 100.835 169.683 101.426C169.687 102.081 169.494 102.631 169.104 103.074C168.717 103.517 168.21 103.807 167.581 103.943V104.034C168.399 104.148 169.026 104.451 169.462 104.943C169.901 105.432 170.119 106.04 170.115 106.767C170.115 107.419 169.929 108.002 169.558 108.517C169.191 109.028 168.683 109.43 168.036 109.722C167.392 110.013 166.653 110.159 165.82 110.159ZM172.065 110V108.477L176.105 104.517C176.491 104.127 176.813 103.78 177.071 103.477C177.329 103.174 177.522 102.881 177.651 102.597C177.779 102.312 177.844 102.009 177.844 101.688C177.844 101.32 177.76 101.006 177.594 100.744C177.427 100.479 177.198 100.275 176.906 100.131C176.615 99.9867 176.283 99.9148 175.912 99.9148C175.529 99.9148 175.194 99.9943 174.906 100.153C174.618 100.309 174.395 100.53 174.236 100.818C174.08 101.106 174.003 101.449 174.003 101.847H171.997C171.997 101.108 172.166 100.466 172.503 99.9205C172.84 99.375 173.304 98.9527 173.895 98.6534C174.49 98.3542 175.171 98.2045 175.94 98.2045C176.721 98.2045 177.406 98.3504 177.997 98.642C178.588 98.9337 179.046 99.3333 179.372 99.8409C179.702 100.348 179.866 100.928 179.866 101.58C179.866 102.015 179.783 102.443 179.616 102.864C179.45 103.284 179.156 103.75 178.736 104.261C178.319 104.773 177.734 105.392 176.98 106.119L174.974 108.159V108.239H180.043V110H172.065Z" fill="white"/>
<defs>
<filter id="filter0_i_396_6011" x="236" y="82.0381" width="89" height="41.5334" filterUnits="userSpaceOnUse" color-interpolation-filters="sRGB">
<feFlood flood-opacity="0" result="BackgroundImageFix"/>
<feBlend mode="normal" in="SourceGraphic" in2="BackgroundImageFix" result="shape"/>
<feColorMatrix in="SourceAlpha" type="matrix" values="0 0 0 0 0 0 0 0 0 0 0 0 0 0 0 0 0 0 127 0" result="hardAlpha"/>
<feOffset/>
<feGaussianBlur stdDeviation="6.35714"/>
<feComposite in2="hardAlpha" operator="arithmetic" k2="-1" k3="1"/>
<feColorMatrix type="matrix" values="0 0 0 0 1 0 0 0 0 1 0 0 0 0 1 0 0 0 1 0"/>
<feBlend mode="normal" in2="shape" result="effect1_innerShadow_396_6011"/>
</filter>
<linearGradient id="paint0_linear_396_6011" x1="236" y1="102.6" x2="324.891" y2="102.6" gradientUnits="userSpaceOnUse">
<stop stop-color="#284DFF"/>
<stop offset="1" stop-color="#1BB8FF"/>
</linearGradient>
</defs>
</svg>
