<svg width="438" height="210" viewBox="0 0 438 210" fill="none" xmlns="http://www.w3.org/2000/svg">
<rect x="80" y="43" width="278" height="124.931" rx="14" fill="#0B0F20"/>
<rect x="89.0039" y="52.0042" width="77.007" height="23.2625" rx="4.81293" fill="#314FDF"/>
<path d="M97.3675 60.4688L99.1771 65.9418H99.2484L101.055 60.4688H102.44L99.9886 67.4221H98.4336L95.9857 60.4688H97.3675ZM105.016 67.524C104.507 67.524 104.065 67.4119 103.692 67.1879C103.318 66.9638 103.029 66.6503 102.823 66.2474C102.619 65.8445 102.517 65.3737 102.517 64.835C102.517 64.2963 102.619 63.8244 102.823 63.4192C103.029 63.0141 103.318 62.6995 103.692 62.4754C104.065 62.2513 104.507 62.1393 105.016 62.1393C105.525 62.1393 105.967 62.2513 106.34 62.4754C106.714 62.6995 107.002 63.0141 107.206 63.4192C107.412 63.8244 107.515 64.2963 107.515 64.835C107.515 65.3737 107.412 65.8445 107.206 66.2474C107.002 66.6503 106.714 66.9638 106.34 67.1879C105.967 67.4119 105.525 67.524 105.016 67.524ZM105.023 66.5394C105.299 66.5394 105.53 66.4636 105.715 66.3119C105.901 66.158 106.039 65.952 106.13 65.694C106.222 65.436 106.269 65.1485 106.269 64.8316C106.269 64.5125 106.222 64.2239 106.13 63.9659C106.039 63.7056 105.901 63.4985 105.715 63.3445C105.53 63.1906 105.299 63.1137 105.023 63.1137C104.74 63.1137 104.504 63.1906 104.317 63.3445C104.131 63.4985 103.992 63.7056 103.899 63.9659C103.808 64.2239 103.763 64.5125 103.763 64.8316C103.763 65.1485 103.808 65.436 103.899 65.694C103.992 65.952 104.131 66.158 104.317 66.3119C104.504 66.4636 104.74 66.5394 105.023 66.5394ZM111.162 62.2072V63.1578H108.164V62.2072H111.162ZM108.904 60.9577H110.133V65.8536C110.133 66.0188 110.158 66.1455 110.208 66.2338C110.26 66.3198 110.328 66.3787 110.412 66.4104C110.495 66.4421 110.588 66.4579 110.69 66.4579C110.767 66.4579 110.837 66.4522 110.901 66.4409C110.966 66.4296 111.016 66.4194 111.05 66.4104L111.257 67.3712C111.191 67.3938 111.097 67.4187 110.975 67.4459C110.855 67.473 110.708 67.4889 110.534 67.4934C110.226 67.5025 109.949 67.4561 109.702 67.3542C109.455 67.2501 109.26 67.0894 109.115 66.8721C108.972 66.6548 108.902 66.3832 108.904 66.0573V60.9577ZM112.19 67.4221V62.2072H113.419V67.4221H112.19ZM112.808 61.467C112.613 61.467 112.446 61.4025 112.305 61.2735C112.165 61.1422 112.095 60.9849 112.095 60.8016C112.095 60.616 112.165 60.4587 112.305 60.3296C112.446 60.1984 112.613 60.1327 112.808 60.1327C113.005 60.1327 113.172 60.1984 113.31 60.3296C113.451 60.4587 113.521 60.616 113.521 60.8016C113.521 60.9849 113.451 61.1422 113.31 61.2735C113.172 61.4025 113.005 61.467 112.808 61.467ZM115.912 64.3665V67.4221H114.683V62.2072H115.857V63.0933H115.919C116.039 62.8013 116.23 62.5693 116.492 62.3973C116.757 62.2253 117.084 62.1393 117.474 62.1393C117.833 62.1393 118.147 62.2162 118.414 62.3701C118.683 62.524 118.892 62.747 119.039 63.039C119.188 63.331 119.262 63.6852 119.259 64.1017V67.4221H118.03V64.2918C118.03 63.9432 117.94 63.6705 117.759 63.4736C117.58 63.2766 117.332 63.1782 117.015 63.1782C116.8 63.1782 116.609 63.2257 116.441 63.3208C116.276 63.4136 116.146 63.5482 116.051 63.7248C115.958 63.9013 115.912 64.1152 115.912 64.3665ZM122.777 69.4864C122.335 69.4864 121.956 69.4264 121.639 69.3064C121.323 69.1887 121.068 69.0303 120.876 68.8311C120.683 68.6319 120.55 68.4112 120.475 68.1691L121.582 67.9008C121.632 68.0027 121.704 68.1034 121.799 68.203C121.894 68.3049 122.022 68.3886 122.183 68.4542C122.346 68.5221 122.55 68.5561 122.797 68.5561C123.146 68.5561 123.434 68.4712 123.663 68.3015C123.892 68.134 124.006 67.8578 124.006 67.473V66.4851H123.945C123.881 66.6118 123.789 66.742 123.666 66.8755C123.546 67.009 123.387 67.1211 123.188 67.2116C122.991 67.3022 122.743 67.3474 122.444 67.3474C122.043 67.3474 121.68 67.2535 121.354 67.0656C121.031 66.8755 120.773 66.5926 120.58 66.2168C120.39 65.8388 120.295 65.3658 120.295 64.7977C120.295 64.225 120.39 63.7418 120.58 63.3479C120.773 62.9518 121.032 62.6519 121.358 62.4482C121.684 62.2422 122.047 62.1393 122.447 62.1393C122.753 62.1393 123.004 62.1913 123.201 62.2954C123.4 62.3973 123.559 62.5206 123.677 62.6655C123.794 62.8081 123.884 62.9428 123.945 63.0695H124.013V62.2072H125.225V67.507C125.225 67.9529 125.118 68.3218 124.906 68.6138C124.693 68.9058 124.402 69.1242 124.033 69.2691C123.664 69.4139 123.245 69.4864 122.777 69.4864ZM122.787 66.3832C123.047 66.3832 123.269 66.3198 123.452 66.1931C123.636 66.0663 123.775 65.8841 123.87 65.6465C123.965 65.4088 124.013 65.1236 124.013 64.7909C124.013 64.4627 123.965 64.1752 123.87 63.9285C123.777 63.6818 123.639 63.4905 123.456 63.3547C123.275 63.2167 123.052 63.1476 122.787 63.1476C122.513 63.1476 122.285 63.2189 122.101 63.3615C121.918 63.5041 121.78 63.6999 121.687 63.9489C121.594 64.1956 121.548 64.4763 121.548 64.7909C121.548 65.11 121.594 65.3896 121.687 65.6295C121.782 65.8671 121.921 66.0527 122.105 66.1863C122.29 66.3176 122.518 66.3832 122.787 66.3832ZM128.91 67.4221V60.4688H131.518C132.052 60.4688 132.5 60.5684 132.862 60.7676C133.227 60.9668 133.502 61.2407 133.687 61.5892C133.875 61.9356 133.969 62.3294 133.969 62.7708C133.969 63.2167 133.875 63.6128 133.687 63.9591C133.499 64.3054 133.222 64.5781 132.855 64.7773C132.489 64.9742 132.037 65.0727 131.501 65.0727H129.773V64.0372H131.331C131.643 64.0372 131.899 63.9828 132.098 63.8742C132.297 63.7655 132.445 63.6162 132.54 63.426C132.637 63.2359 132.686 63.0175 132.686 62.7708C132.686 62.524 132.637 62.3068 132.54 62.1189C132.445 61.931 132.296 61.785 132.095 61.6809C131.896 61.5745 131.639 61.5213 131.324 61.5213H130.17V67.4221H128.91ZM137.243 67.524C136.72 67.524 136.268 67.4153 135.888 67.198C135.51 66.9785 135.219 66.6684 135.015 66.2678C134.812 65.8649 134.71 65.3907 134.71 64.8452C134.71 64.3088 134.812 63.838 135.015 63.4328C135.221 63.0254 135.509 62.7085 135.878 62.4822C136.247 62.2536 136.68 62.1393 137.178 62.1393C137.5 62.1393 137.803 62.1913 138.088 62.2954C138.376 62.3973 138.629 62.5557 138.849 62.7708C139.07 62.9858 139.245 63.2597 139.371 63.5924C139.498 63.9228 139.562 64.3167 139.562 64.7739V65.1508H135.287V64.3223H138.383C138.381 64.0869 138.33 63.8776 138.231 63.6942C138.131 63.5086 137.992 63.3626 137.813 63.2563C137.637 63.1499 137.431 63.0967 137.195 63.0967C136.944 63.0967 136.723 63.1578 136.533 63.28C136.343 63.4 136.195 63.5584 136.088 63.7554C135.984 63.95 135.931 64.1639 135.929 64.397V65.1202C135.929 65.4235 135.984 65.6838 136.095 65.9011C136.206 66.1161 136.361 66.2813 136.56 66.3968C136.759 66.51 136.993 66.5665 137.26 66.5665C137.439 66.5665 137.6 66.5416 137.745 66.4918C137.89 66.4398 138.016 66.364 138.122 66.2644C138.228 66.1648 138.309 66.0414 138.363 65.8943L139.511 66.0233C139.438 66.3266 139.3 66.5914 139.096 66.8178C138.895 67.0419 138.637 67.2161 138.322 67.3406C138.008 67.4629 137.648 67.524 137.243 67.524ZM140.601 67.4221V62.2072H141.793V63.0763H141.847C141.942 62.7753 142.105 62.5433 142.336 62.3803C142.569 62.2151 142.835 62.1325 143.134 62.1325C143.202 62.1325 143.278 62.1359 143.362 62.1427C143.448 62.1472 143.519 62.1551 143.576 62.1664V63.297C143.523 63.2789 143.441 63.2631 143.328 63.2495C143.217 63.2336 143.109 63.2257 143.005 63.2257C142.781 63.2257 142.58 63.2744 142.401 63.3717C142.224 63.4668 142.085 63.5992 141.983 63.7689C141.881 63.9387 141.83 64.1345 141.83 64.3563V67.4221H140.601ZM144.392 67.4221V62.2072H145.621V67.4221H144.392ZM145.01 61.467C144.815 61.467 144.648 61.4025 144.507 61.2735C144.367 61.1422 144.297 60.9849 144.297 60.8016C144.297 60.616 144.367 60.4587 144.507 60.3296C144.648 60.1984 144.815 60.1327 145.01 60.1327C145.207 60.1327 145.374 60.1984 145.512 60.3296C145.653 60.4587 145.723 60.616 145.723 60.8016C145.723 60.9849 145.653 61.1422 145.512 61.2735C145.374 61.4025 145.207 61.467 145.01 61.467ZM149.16 67.524C148.65 67.524 148.209 67.4119 147.836 67.1879C147.462 66.9638 147.172 66.6503 146.966 66.2474C146.763 65.8445 146.661 65.3737 146.661 64.835C146.661 64.2963 146.763 63.8244 146.966 63.4192C147.172 63.0141 147.462 62.6995 147.836 62.4754C148.209 62.2513 148.65 62.1393 149.16 62.1393C149.669 62.1393 150.11 62.2513 150.484 62.4754C150.857 62.6995 151.146 63.0141 151.35 63.4192C151.556 63.8244 151.659 64.2963 151.659 64.835C151.659 65.3737 151.556 65.8445 151.35 66.2474C151.146 66.6503 150.857 66.9638 150.484 67.1879C150.11 67.4119 149.669 67.524 149.16 67.524ZM149.166 66.5394C149.443 66.5394 149.674 66.4636 149.859 66.3119C150.045 66.158 150.183 65.952 150.273 65.694C150.366 65.436 150.413 65.1485 150.413 64.8316C150.413 64.5125 150.366 64.2239 150.273 63.9659C150.183 63.7056 150.045 63.4985 149.859 63.3445C149.674 63.1906 149.443 63.1137 149.166 63.1137C148.884 63.1137 148.648 63.1906 148.46 63.3445C148.275 63.4985 148.135 63.7056 148.043 63.9659C147.952 64.2239 147.907 64.5125 147.907 64.8316C147.907 65.1485 147.952 65.436 148.043 65.694C148.135 65.952 148.275 66.158 148.46 66.3119C148.648 66.4636 148.884 66.5394 149.166 66.5394ZM154.637 67.5138C154.227 67.5138 153.861 67.4085 153.537 67.198C153.213 66.9875 152.957 66.682 152.77 66.2813C152.582 65.8807 152.488 65.3941 152.488 64.8214C152.488 64.242 152.583 63.7531 152.773 63.3547C152.965 62.9541 153.225 62.6519 153.55 62.4482C153.876 62.2422 154.24 62.1393 154.64 62.1393C154.946 62.1393 155.197 62.1913 155.394 62.2954C155.591 62.3973 155.747 62.5206 155.863 62.6655C155.978 62.8081 156.067 62.9428 156.131 63.0695H156.182V60.4688H157.414V67.4221H156.205V66.6005H156.131C156.067 66.7272 155.976 66.8619 155.856 67.0045C155.736 67.1448 155.577 67.2648 155.38 67.3644C155.184 67.464 154.936 67.5138 154.637 67.5138ZM154.98 66.5054C155.24 66.5054 155.462 66.4353 155.645 66.2949C155.829 66.1523 155.968 65.9543 156.063 65.7008C156.158 65.4473 156.205 65.1519 156.205 64.8146C156.205 64.4774 156.158 64.1843 156.063 63.9353C155.97 63.6863 155.832 63.4928 155.649 63.3547C155.468 63.2167 155.245 63.1476 154.98 63.1476C154.706 63.1476 154.477 63.2189 154.294 63.3615C154.111 63.5041 153.973 63.701 153.88 63.9523C153.787 64.2035 153.741 64.491 153.741 64.8146C153.741 65.1406 153.787 65.4314 153.88 65.6872C153.975 65.9407 154.114 66.141 154.297 66.2881C154.483 66.433 154.71 66.5054 154.98 66.5054Z" fill="white"/>
<path d="M321.725 67.3806L322.799 60.8322H323.695L322.62 67.3806H321.725ZM318.774 65.6924L318.924 64.7971H323.963L323.813 65.6924H318.774ZM319.423 67.3806L320.497 60.8322H321.392L320.318 67.3806H319.423ZM319.154 63.4158L319.301 62.5205H324.34L324.193 63.4158H319.154ZM327.366 67.4701C326.891 67.4701 326.469 67.3902 326.1 67.2303C325.733 67.0705 325.445 66.852 325.237 66.5749C325.03 66.2956 324.927 65.9791 324.93 65.6252C324.927 65.3502 324.987 65.0976 325.109 64.8674C325.23 64.6372 325.394 64.4453 325.601 64.2919C325.81 64.1363 326.042 64.0371 326.298 63.9945V63.9497C325.961 63.8751 325.688 63.7035 325.48 63.4349C325.273 63.1642 325.17 62.8519 325.173 62.4981C325.17 62.1613 325.264 61.8607 325.454 61.5964C325.644 61.3321 325.904 61.1243 326.234 60.9729C326.565 60.8194 326.942 60.7427 327.366 60.7427C327.786 60.7427 328.16 60.8194 328.488 60.9729C328.819 61.1243 329.079 61.3321 329.269 61.5964C329.46 61.8607 329.556 62.1613 329.556 62.4981C329.556 62.8519 329.451 63.1642 329.24 63.4349C329.031 63.7035 328.761 63.8751 328.431 63.9497V63.9945C328.687 64.0371 328.917 64.1363 329.121 64.2919C329.328 64.4453 329.492 64.6372 329.614 64.8674C329.737 65.0976 329.799 65.3502 329.799 65.6252C329.799 65.9791 329.695 66.2956 329.486 66.5749C329.277 66.852 328.989 67.0705 328.623 67.2303C328.258 67.3902 327.839 67.4701 327.366 67.4701ZM327.366 66.5557C327.611 66.5557 327.824 66.5141 328.006 66.431C328.187 66.3457 328.327 66.2263 328.428 66.0729C328.528 65.9194 328.579 65.7424 328.581 65.5421C328.579 65.3332 328.525 65.1488 328.418 64.9889C328.314 64.8269 328.17 64.7001 327.986 64.6084C327.805 64.5168 327.598 64.4709 327.366 64.4709C327.132 64.4709 326.923 64.5168 326.739 64.6084C326.556 64.7001 326.411 64.8269 326.304 64.9889C326.2 65.1488 326.149 65.3332 326.151 65.5421C326.149 65.7424 326.198 65.9194 326.298 66.0729C326.398 66.2242 326.539 66.3425 326.72 66.4278C326.903 66.513 327.119 66.5557 327.366 66.5557ZM327.366 63.5724C327.566 63.5724 327.743 63.5319 327.897 63.4509C328.052 63.3699 328.175 63.257 328.265 63.112C328.354 62.9671 328.4 62.7997 328.402 62.61C328.4 62.4224 328.355 62.2583 328.268 62.1176C328.18 61.9748 328.059 61.865 327.903 61.7883C327.748 61.7094 327.569 61.67 327.366 61.67C327.159 61.67 326.977 61.7094 326.819 61.7883C326.664 61.865 326.542 61.9748 326.455 62.1176C326.369 62.2583 326.328 62.4224 326.33 62.61C326.328 62.7997 326.371 62.9671 326.458 63.112C326.547 63.2548 326.67 63.3678 326.826 63.4509C326.983 63.5319 327.164 63.5724 327.366 63.5724ZM331.09 67.3806L333.875 61.8682V61.8234H330.643V60.8322H335.103V61.8458L332.321 67.3806H331.09Z" fill="#F6F8FF"/>
<path d="M269.094 155.295V154.567L271.025 152.674C271.21 152.488 271.363 152.322 271.487 152.177C271.61 152.032 271.702 151.892 271.764 151.756C271.825 151.62 271.856 151.476 271.856 151.322C271.856 151.146 271.816 150.996 271.736 150.871C271.657 150.744 271.547 150.646 271.408 150.578C271.268 150.509 271.11 150.474 270.932 150.474C270.75 150.474 270.589 150.512 270.452 150.588C270.314 150.663 270.207 150.769 270.131 150.906C270.057 151.044 270.02 151.208 270.02 151.398H269.061C269.061 151.045 269.142 150.738 269.303 150.477C269.464 150.216 269.686 150.014 269.968 149.871C270.253 149.728 270.578 149.657 270.946 149.657C271.319 149.657 271.647 149.726 271.929 149.866C272.212 150.005 272.431 150.196 272.587 150.439C272.744 150.682 272.823 150.959 272.823 151.27C272.823 151.478 272.783 151.683 272.703 151.884C272.624 152.085 272.483 152.308 272.282 152.552C272.083 152.797 271.803 153.093 271.443 153.44L270.484 154.415V154.453H272.907V155.295H269.094ZM275.9 155.401C275.453 155.401 275.069 155.288 274.749 155.062C274.43 154.834 274.185 154.505 274.013 154.076C273.842 153.645 273.757 153.126 273.757 152.52C273.759 151.913 273.845 151.397 274.015 150.971C274.187 150.544 274.433 150.218 274.751 149.994C275.072 149.769 275.455 149.657 275.9 149.657C276.346 149.657 276.729 149.769 277.049 149.994C277.37 150.218 277.615 150.544 277.785 150.971C277.957 151.399 278.043 151.915 278.043 152.52C278.043 153.128 277.957 153.648 277.785 154.079C277.615 154.508 277.37 154.835 277.049 155.062C276.73 155.288 276.347 155.401 275.9 155.401ZM275.9 154.551C276.248 154.551 276.522 154.38 276.723 154.038C276.926 153.694 277.027 153.188 277.027 152.52C277.027 152.078 276.981 151.707 276.889 151.406C276.797 151.105 276.666 150.879 276.498 150.727C276.329 150.573 276.13 150.496 275.9 150.496C275.554 150.496 275.281 150.668 275.08 151.012C274.879 151.354 274.778 151.857 274.776 152.52C274.774 152.963 274.818 153.336 274.909 153.639C275.001 153.941 275.132 154.169 275.3 154.323C275.468 154.475 275.668 154.551 275.9 154.551ZM278.946 155.295V154.567L280.877 152.674C281.062 152.488 281.215 152.322 281.339 152.177C281.462 152.032 281.554 151.892 281.616 151.756C281.677 151.62 281.708 151.476 281.708 151.322C281.708 151.146 281.668 150.996 281.588 150.871C281.509 150.744 281.399 150.646 281.26 150.578C281.12 150.509 280.962 150.474 280.785 150.474C280.602 150.474 280.441 150.512 280.304 150.588C280.166 150.663 280.059 150.769 279.983 150.906C279.909 151.044 279.872 151.208 279.872 151.398H278.913C278.913 151.045 278.994 150.738 279.155 150.477C279.316 150.216 279.538 150.014 279.82 149.871C280.105 149.728 280.431 149.657 280.798 149.657C281.171 149.657 281.499 149.726 281.781 149.866C282.064 150.005 282.283 150.196 282.439 150.439C282.596 150.682 282.675 150.959 282.675 151.27C282.675 151.478 282.635 151.683 282.555 151.884C282.476 152.085 282.335 152.308 282.134 152.552C281.935 152.797 281.655 153.093 281.295 153.44L280.336 154.415V154.453H282.759V155.295H278.946ZM283.696 155.295V154.567L285.627 152.674C285.812 152.488 285.966 152.322 286.089 152.177C286.212 152.032 286.305 151.892 286.366 151.756C286.428 151.62 286.458 151.476 286.458 151.322C286.458 151.146 286.419 150.996 286.339 150.871C286.259 150.744 286.15 150.646 286.01 150.578C285.871 150.509 285.712 150.474 285.535 150.474C285.352 150.474 285.192 150.512 285.054 150.588C284.917 150.663 284.81 150.769 284.734 150.906C284.66 151.044 284.622 151.208 284.622 151.398H283.664C283.664 151.045 283.744 150.738 283.905 150.477C284.066 150.216 284.288 150.014 284.571 149.871C284.855 149.728 285.181 149.657 285.549 149.657C285.922 149.657 286.249 149.726 286.532 149.866C286.814 150.005 287.033 150.196 287.189 150.439C287.347 150.682 287.425 150.959 287.425 151.27C287.425 151.478 287.386 151.683 287.306 151.884C287.226 152.085 287.086 152.308 286.885 152.552C286.686 152.797 286.406 153.093 286.046 153.44L285.087 154.415V154.453H287.51V155.295H283.696ZM290.986 152.109V152.919H288.482V152.109H290.986ZM294.272 149.733V155.295H293.264V150.713H293.232L291.931 151.544V150.621L293.313 149.733H294.272ZM295.684 155.295V154.567L297.616 152.674C297.8 152.488 297.954 152.322 298.077 152.177C298.201 152.032 298.293 151.892 298.354 151.756C298.416 151.62 298.447 151.476 298.447 151.322C298.447 151.146 298.407 150.996 298.327 150.871C298.248 150.744 298.138 150.646 297.999 150.578C297.859 150.509 297.701 150.474 297.523 150.474C297.34 150.474 297.18 150.512 297.043 150.588C296.905 150.663 296.798 150.769 296.722 150.906C296.648 151.044 296.611 151.208 296.611 151.398H295.652C295.652 151.045 295.732 150.738 295.894 150.477C296.055 150.216 296.277 150.014 296.559 149.871C296.843 149.728 297.169 149.657 297.537 149.657C297.91 149.657 298.238 149.726 298.52 149.866C298.803 150.005 299.022 150.196 299.177 150.439C299.335 150.682 299.414 150.959 299.414 151.27C299.414 151.478 299.374 151.683 299.294 151.884C299.215 152.085 299.074 152.308 298.873 152.552C298.674 152.797 298.394 153.093 298.034 153.44L297.075 154.415V154.453H299.498V155.295H295.684ZM302.975 152.109V152.919H300.47V152.109H302.975ZM306.26 149.733V155.295H305.253V150.713H305.22L303.919 151.544V150.621L305.302 149.733H306.26ZM309.935 149.733V155.295H308.928V150.713H308.895L307.594 151.544V150.621L308.977 149.733H309.935ZM315.301 155.401C314.854 155.401 314.47 155.288 314.149 155.062C313.831 154.834 313.585 154.505 313.413 154.076C313.243 153.645 313.158 153.126 313.158 152.52C313.16 151.913 313.246 151.397 313.416 150.971C313.588 150.544 313.833 150.218 314.152 149.994C314.473 149.769 314.856 149.657 315.301 149.657C315.746 149.657 316.129 149.769 316.45 149.994C316.77 150.218 317.016 150.544 317.186 150.971C317.358 151.399 317.444 151.915 317.444 152.52C317.444 153.128 317.358 153.648 317.186 154.079C317.016 154.508 316.77 154.835 316.45 155.062C316.131 155.288 315.748 155.401 315.301 155.401ZM315.301 154.551C315.649 154.551 315.923 154.38 316.124 154.038C316.327 153.694 316.428 153.188 316.428 152.52C316.428 152.078 316.382 151.707 316.29 151.406C316.197 151.105 316.067 150.879 315.899 150.727C315.73 150.573 315.531 150.496 315.301 150.496C314.955 150.496 314.682 150.668 314.481 151.012C314.28 151.354 314.178 151.857 314.177 152.52C314.175 152.963 314.219 153.336 314.31 153.639C314.402 153.941 314.532 154.169 314.701 154.323C314.869 154.475 315.069 154.551 315.301 154.551ZM318.246 154.263V153.462L320.606 149.733H321.274V150.874H320.867L319.278 153.391V153.435H322.573V154.263H318.246ZM320.9 155.295V154.019L320.91 153.66V149.733H321.861V155.295H320.9ZM324.057 154.627C323.892 154.627 323.751 154.569 323.633 154.453C323.516 154.336 323.458 154.194 323.46 154.03C323.458 153.867 323.516 153.727 323.633 153.611C323.751 153.496 323.892 153.438 324.057 153.438C324.216 153.438 324.355 153.496 324.473 153.611C324.592 153.727 324.653 153.867 324.655 154.03C324.653 154.14 324.624 154.241 324.568 154.331C324.513 154.422 324.441 154.494 324.35 154.548C324.262 154.601 324.164 154.627 324.057 154.627ZM324.057 151.87C323.892 151.87 323.751 151.812 323.633 151.697C323.516 151.579 323.458 151.438 323.46 151.273C323.458 151.11 323.516 150.97 323.633 150.855C323.751 150.737 323.892 150.678 324.057 150.678C324.216 150.678 324.355 150.737 324.473 150.855C324.592 150.97 324.653 151.11 324.655 151.273C324.653 151.381 324.624 151.481 324.568 151.572C324.513 151.662 324.441 151.735 324.35 151.789C324.262 151.843 324.164 151.87 324.057 151.87ZM327.593 155.371C327.231 155.371 326.907 155.304 326.62 155.168C326.334 155.03 326.107 154.842 325.939 154.603C325.772 154.364 325.683 154.09 325.673 153.783H326.65C326.668 154.011 326.767 154.197 326.946 154.342C327.126 154.485 327.341 154.557 327.593 154.557C327.79 154.557 327.966 154.511 328.12 154.421C328.274 154.33 328.395 154.204 328.484 154.043C328.572 153.882 328.616 153.698 328.614 153.492C328.616 153.282 328.572 153.095 328.481 152.932C328.39 152.769 328.266 152.642 328.109 152.549C327.951 152.455 327.77 152.408 327.566 152.408C327.399 152.406 327.235 152.437 327.074 152.501C326.913 152.564 326.785 152.647 326.691 152.75L325.781 152.601L326.072 149.733H329.299V150.575H326.906L326.745 152.05H326.778C326.881 151.928 327.027 151.828 327.215 151.748C327.404 151.667 327.61 151.626 327.835 151.626C328.171 151.626 328.472 151.706 328.736 151.865C329.001 152.022 329.209 152.24 329.361 152.517C329.513 152.794 329.589 153.111 329.589 153.467C329.589 153.835 329.504 154.163 329.334 154.451C329.165 154.737 328.931 154.962 328.63 155.127C328.332 155.29 327.986 155.371 327.593 155.371ZM332.495 155.371C332.104 155.371 331.757 155.304 331.452 155.17C331.15 155.036 330.911 154.85 330.735 154.611C330.56 154.372 330.466 154.096 330.456 153.783H331.477C331.486 153.933 331.536 154.064 331.626 154.176C331.717 154.287 331.837 154.373 331.987 154.434C332.138 154.496 332.306 154.527 332.493 154.527C332.692 154.527 332.868 154.492 333.022 154.424C333.176 154.353 333.297 154.255 333.384 154.13C333.47 154.005 333.513 153.861 333.511 153.698C333.513 153.53 333.47 153.381 333.381 153.253C333.292 153.124 333.164 153.024 332.995 152.951C332.829 152.879 332.628 152.843 332.392 152.843H331.901V152.066H332.392C332.586 152.066 332.755 152.032 332.9 151.965C333.047 151.898 333.162 151.804 333.245 151.683C333.328 151.56 333.369 151.418 333.367 151.257C333.369 151.099 333.334 150.962 333.261 150.846C333.191 150.729 333.09 150.637 332.96 150.572C332.831 150.507 332.68 150.474 332.506 150.474C332.336 150.474 332.179 150.505 332.034 150.567C331.889 150.628 331.772 150.716 331.683 150.83C331.595 150.942 331.547 151.076 331.542 151.232H330.572C330.58 150.921 330.669 150.647 330.841 150.412C331.015 150.175 331.247 149.99 331.537 149.858C331.826 149.724 332.151 149.657 332.512 149.657C332.883 149.657 333.205 149.726 333.479 149.866C333.754 150.003 333.967 150.189 334.117 150.423C334.267 150.656 334.342 150.914 334.342 151.197C334.344 151.51 334.252 151.773 334.065 151.984C333.881 152.196 333.638 152.335 333.337 152.4V152.443C333.729 152.498 334.028 152.643 334.236 152.878C334.446 153.112 334.551 153.402 334.549 153.75C334.549 154.061 334.46 154.34 334.283 154.587C334.107 154.831 333.864 155.023 333.555 155.162C333.247 155.302 332.894 155.371 332.495 155.371ZM336.098 154.627C335.933 154.627 335.792 154.569 335.674 154.453C335.556 154.336 335.498 154.194 335.5 154.03C335.498 153.867 335.556 153.727 335.674 153.611C335.792 153.496 335.933 153.438 336.098 153.438C336.257 153.438 336.396 153.496 336.513 153.611C336.633 153.727 336.693 153.867 336.695 154.03C336.693 154.14 336.664 154.241 336.608 154.331C336.554 154.422 336.482 154.494 336.391 154.548C336.302 154.601 336.204 154.627 336.098 154.627ZM336.098 151.87C335.933 151.87 335.792 151.812 335.674 151.697C335.556 151.579 335.498 151.438 335.5 151.273C335.498 151.11 335.556 150.97 335.674 150.855C335.792 150.737 335.933 150.678 336.098 150.678C336.257 150.678 336.396 150.737 336.513 150.855C336.633 150.97 336.693 151.11 336.695 151.273C336.693 151.381 336.664 151.481 336.608 151.572C336.554 151.662 336.482 151.735 336.391 151.789C336.302 151.843 336.204 151.87 336.098 151.87ZM339.962 149.733V155.295H338.954V150.713H338.922L337.621 151.544V150.621L339.003 149.733H339.962ZM343.637 149.733V155.295H342.629V150.713H342.597L341.296 151.544V150.621L342.678 149.733H343.637Z" fill="white"/>
<path d="M94.0807 149.733L95.5284 154.111H95.5854L97.0304 149.733H98.1386L96.1775 155.295H94.9335L92.9752 149.733H94.0807ZM100.199 155.377C99.792 155.377 99.4389 155.287 99.1401 155.108C98.8414 154.929 98.6096 154.678 98.4448 154.356C98.2818 154.033 98.2003 153.657 98.2003 153.226C98.2003 152.795 98.2818 152.417 98.4448 152.093C98.6096 151.769 98.8414 151.517 99.1401 151.338C99.4389 151.159 99.792 151.069 100.199 151.069C100.607 151.069 100.96 151.159 101.259 151.338C101.557 151.517 101.788 151.769 101.951 152.093C102.116 152.417 102.198 152.795 102.198 153.226C102.198 153.657 102.116 154.033 101.951 154.356C101.788 154.678 101.557 154.929 101.259 155.108C100.96 155.287 100.607 155.377 100.199 155.377ZM100.205 154.589C100.426 154.589 100.61 154.529 100.759 154.407C100.907 154.284 101.018 154.119 101.09 153.913C101.165 153.706 101.202 153.477 101.202 153.223C101.202 152.968 101.165 152.737 101.09 152.53C101.018 152.322 100.907 152.156 100.759 152.033C100.61 151.91 100.426 151.849 100.205 151.849C99.9785 151.849 99.7902 151.91 99.6399 152.033C99.4914 152.156 99.38 152.322 99.3058 152.53C99.2334 152.737 99.1972 152.968 99.1972 153.223C99.1972 153.477 99.2334 153.706 99.3058 153.913C99.38 154.119 99.4914 154.284 99.6399 154.407C99.7902 154.529 99.9785 154.589 100.205 154.589ZM105.116 151.123V151.884H102.718V151.123H105.116ZM103.31 150.124H104.293V154.041C104.293 154.173 104.313 154.274 104.353 154.345C104.395 154.414 104.449 154.461 104.516 154.486C104.583 154.511 104.657 154.524 104.739 154.524C104.8 154.524 104.856 154.52 104.907 154.51C104.96 154.501 104.999 154.493 105.027 154.486L105.192 155.255C105.14 155.273 105.065 155.293 104.967 155.314C104.871 155.336 104.753 155.349 104.614 155.352C104.368 155.36 104.146 155.323 103.948 155.241C103.751 155.158 103.594 155.029 103.478 154.855C103.364 154.682 103.308 154.464 103.31 154.204V150.124ZM105.939 155.295V151.123H106.922V155.295H105.939ZM106.433 150.531C106.277 150.531 106.143 150.48 106.031 150.377C105.919 150.271 105.863 150.146 105.863 149.999C105.863 149.85 105.919 149.725 106.031 149.621C106.143 149.516 106.277 149.464 106.433 149.464C106.59 149.464 106.724 149.516 106.835 149.621C106.947 149.725 107.003 149.85 107.003 149.999C107.003 150.146 106.947 150.271 106.835 150.377C106.724 150.48 106.59 150.531 106.433 150.531ZM108.916 152.851V155.295H107.933V151.123H108.873V151.832H108.922C109.018 151.599 109.171 151.413 109.381 151.276C109.592 151.138 109.854 151.069 110.166 151.069C110.453 151.069 110.704 151.131 110.918 151.254C111.133 151.377 111.3 151.555 111.418 151.789C111.537 152.022 111.596 152.306 111.594 152.639V155.295H110.611V152.791C110.611 152.512 110.539 152.294 110.394 152.137C110.251 151.979 110.052 151.9 109.799 151.9C109.627 151.9 109.474 151.938 109.34 152.014C109.208 152.089 109.104 152.196 109.027 152.338C108.953 152.479 108.916 152.65 108.916 152.851ZM114.408 156.947C114.055 156.947 113.752 156.899 113.498 156.803C113.245 156.709 113.041 156.582 112.887 156.423C112.733 156.263 112.626 156.087 112.567 155.893L113.452 155.678C113.492 155.76 113.55 155.84 113.626 155.92C113.702 156.002 113.804 156.069 113.933 156.121C114.063 156.175 114.227 156.203 114.424 156.203C114.703 156.203 114.934 156.135 115.117 155.999C115.3 155.865 115.391 155.644 115.391 155.336V154.546H115.342C115.292 154.647 115.218 154.751 115.12 154.858C115.024 154.965 114.896 155.055 114.737 155.127C114.579 155.199 114.381 155.236 114.142 155.236C113.821 155.236 113.531 155.161 113.27 155.01C113.011 154.858 112.805 154.632 112.651 154.331C112.499 154.029 112.423 153.65 112.423 153.196C112.423 152.738 112.499 152.351 112.651 152.036C112.805 151.719 113.012 151.479 113.273 151.316C113.534 151.152 113.824 151.069 114.145 151.069C114.389 151.069 114.59 151.111 114.748 151.194C114.907 151.276 115.034 151.374 115.128 151.49C115.222 151.604 115.294 151.712 115.342 151.813H115.397V151.123H116.366V155.363C116.366 155.72 116.281 156.015 116.111 156.249C115.941 156.482 115.708 156.657 115.413 156.773C115.118 156.889 114.783 156.947 114.408 156.947ZM114.416 154.464C114.625 154.464 114.802 154.414 114.949 154.312C115.095 154.211 115.207 154.065 115.283 153.875C115.359 153.685 115.397 153.457 115.397 153.19C115.397 152.928 115.359 152.698 115.283 152.501C115.208 152.303 115.098 152.15 114.951 152.041C114.806 151.931 114.628 151.876 114.416 151.876C114.197 151.876 114.014 151.933 113.868 152.047C113.721 152.161 113.61 152.318 113.536 152.517C113.462 152.714 113.425 152.939 113.425 153.19C113.425 153.446 113.462 153.669 113.536 153.861C113.612 154.051 113.724 154.2 113.87 154.307C114.019 154.412 114.201 154.464 114.416 154.464ZM121.118 155.377C120.7 155.377 120.339 155.29 120.035 155.116C119.732 154.941 119.499 154.692 119.337 154.372C119.174 154.05 119.092 153.67 119.092 153.234C119.092 152.805 119.174 152.428 119.337 152.104C119.501 151.778 119.731 151.525 120.026 151.343C120.322 151.161 120.668 151.069 121.067 151.069C121.324 151.069 121.566 151.111 121.795 151.194C122.025 151.276 122.227 151.402 122.403 151.574C122.58 151.746 122.72 151.965 122.821 152.232C122.923 152.496 122.973 152.811 122.973 153.177V153.478H119.554V152.816H122.031C122.029 152.627 121.988 152.46 121.909 152.313C121.829 152.165 121.718 152.048 121.575 151.963C121.433 151.878 121.269 151.835 121.08 151.835C120.879 151.835 120.703 151.884 120.551 151.982C120.399 152.078 120.28 152.204 120.195 152.362C120.112 152.518 120.069 152.689 120.067 152.875V153.454C120.067 153.697 120.112 153.905 120.2 154.079C120.289 154.251 120.413 154.383 120.572 154.475C120.732 154.566 120.918 154.611 121.132 154.611C121.275 154.611 121.404 154.591 121.52 154.551C121.636 154.51 121.737 154.449 121.822 154.369C121.907 154.29 121.971 154.191 122.015 154.073L122.933 154.176C122.875 154.419 122.764 154.631 122.601 154.812C122.44 154.991 122.234 155.131 121.982 155.23C121.73 155.328 121.442 155.377 121.118 155.377ZM124.788 152.851V155.295H123.805V151.123H124.745V151.832H124.794C124.89 151.599 125.043 151.413 125.253 151.276C125.465 151.138 125.726 151.069 126.038 151.069C126.326 151.069 126.577 151.131 126.79 151.254C127.006 151.377 127.172 151.555 127.29 151.789C127.41 152.022 127.468 152.306 127.467 152.639V155.295H126.483V152.791C126.483 152.512 126.411 152.294 126.266 152.137C126.123 151.979 125.925 151.9 125.671 151.9C125.499 151.9 125.346 151.938 125.212 152.014C125.08 152.089 124.976 152.196 124.9 152.338C124.826 152.479 124.788 152.65 124.788 152.851ZM130.014 155.369C129.687 155.369 129.393 155.285 129.134 155.116C128.875 154.948 128.671 154.703 128.52 154.383C128.37 154.062 128.295 153.673 128.295 153.215C128.295 152.751 128.371 152.36 128.523 152.041C128.677 151.721 128.884 151.479 129.145 151.316C129.406 151.152 129.697 151.069 130.017 151.069C130.261 151.069 130.462 151.111 130.62 151.194C130.778 151.276 130.902 151.374 130.995 151.49C131.087 151.604 131.159 151.712 131.209 151.813H131.25V149.733H132.236V155.295H131.269V154.638H131.209C131.159 154.74 131.085 154.847 130.989 154.961C130.893 155.074 130.767 155.17 130.609 155.249C130.452 155.329 130.253 155.369 130.014 155.369ZM130.289 154.562C130.497 154.562 130.674 154.506 130.821 154.394C130.968 154.28 131.079 154.121 131.155 153.918C131.231 153.716 131.269 153.479 131.269 153.209C131.269 152.94 131.231 152.705 131.155 152.506C131.081 152.307 130.97 152.152 130.824 152.041C130.679 151.931 130.5 151.876 130.289 151.876C130.07 151.876 129.887 151.933 129.74 152.047C129.593 152.161 129.483 152.319 129.409 152.52C129.334 152.721 129.297 152.95 129.297 153.209C129.297 153.47 129.334 153.703 129.409 153.907C129.485 154.11 129.596 154.271 129.743 154.388C129.891 154.504 130.073 154.562 130.289 154.562ZM137.264 151.123V151.884H134.866V151.123H137.264ZM135.458 150.124H136.441V154.041C136.441 154.173 136.461 154.274 136.501 154.345C136.543 154.414 136.597 154.461 136.664 154.486C136.731 154.511 136.805 154.524 136.887 154.524C136.948 154.524 137.004 154.52 137.055 154.51C137.108 154.501 137.148 154.493 137.175 154.486L137.34 155.255C137.288 155.273 137.213 155.293 137.115 155.314C137.019 155.336 136.901 155.349 136.762 155.352C136.516 155.36 136.294 155.323 136.096 155.241C135.899 155.158 135.742 155.029 135.626 154.855C135.512 154.682 135.456 154.464 135.458 154.204V150.124ZM138.087 155.295V151.123H139.07V155.295H138.087ZM138.581 150.531C138.425 150.531 138.291 150.48 138.179 150.377C138.067 150.271 138.011 150.146 138.011 149.999C138.011 149.85 138.067 149.725 138.179 149.621C138.291 149.516 138.425 149.464 138.581 149.464C138.738 149.464 138.872 149.516 138.983 149.621C139.095 149.725 139.151 149.85 139.151 149.999C139.151 150.146 139.095 150.271 138.983 150.377C138.872 150.48 138.738 150.531 138.581 150.531ZM140.081 155.295V151.123H141.021V151.832H141.07C141.156 151.593 141.3 151.407 141.501 151.273C141.702 151.137 141.942 151.069 142.221 151.069C142.504 151.069 142.742 151.138 142.936 151.276C143.131 151.411 143.269 151.597 143.348 151.832H143.392C143.484 151.601 143.64 151.416 143.859 151.278C144.08 151.139 144.342 151.069 144.644 151.069C145.028 151.069 145.341 151.19 145.584 151.433C145.826 151.676 145.948 152.03 145.948 152.495V155.295H144.962V152.647C144.962 152.388 144.893 152.199 144.755 152.08C144.618 151.958 144.449 151.898 144.25 151.898C144.013 151.898 143.827 151.972 143.693 152.12C143.561 152.267 143.495 152.458 143.495 152.693V155.295H142.531V152.606C142.531 152.391 142.466 152.219 142.335 152.09C142.207 151.962 142.038 151.898 141.83 151.898C141.689 151.898 141.56 151.934 141.444 152.006C141.329 152.077 141.236 152.177 141.167 152.308C141.099 152.436 141.064 152.587 141.064 152.759V155.295H140.081ZM148.792 155.377C148.374 155.377 148.013 155.29 147.708 155.116C147.406 154.941 147.173 154.692 147.01 154.372C146.847 154.05 146.766 153.67 146.766 153.234C146.766 152.805 146.847 152.428 147.01 152.104C147.175 151.778 147.405 151.525 147.7 151.343C147.995 151.161 148.342 151.069 148.741 151.069C148.998 151.069 149.24 151.111 149.469 151.194C149.698 151.276 149.901 151.402 150.077 151.574C150.254 151.746 150.394 151.965 150.495 152.232C150.597 152.496 150.647 152.811 150.647 153.177V153.478H147.228V152.816H149.705C149.703 152.627 149.662 152.46 149.583 152.313C149.503 152.165 149.392 152.048 149.249 151.963C149.107 151.878 148.942 151.835 148.754 151.835C148.553 151.835 148.377 151.884 148.225 151.982C148.072 152.078 147.954 152.204 147.869 152.362C147.785 152.518 147.743 152.689 147.741 152.875V153.454C147.741 153.697 147.785 153.905 147.874 154.079C147.963 154.251 148.087 154.383 148.246 154.475C148.406 154.566 148.592 154.611 148.806 154.611C148.949 154.611 149.078 154.591 149.194 154.551C149.31 154.51 149.411 154.449 149.496 154.369C149.581 154.29 149.645 154.191 149.689 154.073L150.607 154.176C150.549 154.419 150.438 154.631 150.275 154.812C150.114 154.991 149.908 155.131 149.656 155.23C149.404 155.328 149.116 155.377 148.792 155.377Z" fill="white"/>
<path d="M95.4392 101.146V92.9603H98.5088C99.1376 92.9603 99.6652 93.0775 100.091 93.312C100.52 93.5465 100.844 93.8689 101.063 94.2792C101.284 94.6869 101.394 95.1505 101.394 95.6701C101.394 96.195 101.284 96.6613 101.063 97.069C100.842 97.4767 100.515 97.7977 100.084 98.0322C99.6518 98.264 99.1203 98.3799 98.4888 98.3799H96.4544V97.1609H98.2889C98.6566 97.1609 98.9577 97.097 99.1922 96.9691C99.4267 96.8412 99.5999 96.6653 99.7118 96.4415C99.8264 96.2177 99.8837 95.9605 99.8837 95.6701C99.8837 95.3797 99.8264 95.1239 99.7118 94.9027C99.5999 94.6816 99.4254 94.5097 99.1882 94.3871C98.9537 94.2619 98.6513 94.1993 98.2809 94.1993H96.922V101.146H95.4392ZM104.275 101.27C103.886 101.27 103.536 101.2 103.224 101.062C102.915 100.921 102.67 100.713 102.489 100.438C102.31 100.164 102.221 99.8255 102.221 99.4231C102.221 99.0767 102.285 98.7903 102.413 98.5638C102.541 98.3373 102.715 98.1561 102.936 98.0202C103.157 97.8843 103.407 97.7818 103.684 97.7125C103.963 97.6405 104.253 97.5886 104.551 97.5566C104.911 97.5193 105.202 97.486 105.426 97.4567C105.65 97.4247 105.813 97.3767 105.914 97.3128C106.018 97.2462 106.07 97.1436 106.07 97.005V96.9811C106.07 96.68 105.98 96.4468 105.802 96.2816C105.623 96.1164 105.366 96.0338 105.031 96.0338C104.676 96.0338 104.395 96.1111 104.187 96.2656C103.982 96.4202 103.844 96.6027 103.772 96.8132L102.421 96.6213C102.527 96.2483 102.703 95.9366 102.948 95.6861C103.193 95.433 103.493 95.2438 103.848 95.1185C104.202 94.9906 104.594 94.9267 105.023 94.9267C105.318 94.9267 105.613 94.9613 105.906 95.0306C106.199 95.0999 106.467 95.2145 106.709 95.3743C106.952 95.5315 107.146 95.746 107.293 96.0178C107.442 96.2896 107.517 96.6293 107.517 97.037V101.146H106.126V100.302H106.078C105.99 100.473 105.866 100.633 105.706 100.782C105.549 100.929 105.35 101.047 105.111 101.138C104.873 101.226 104.595 101.27 104.275 101.27ZM104.651 100.206C104.941 100.206 105.193 100.149 105.406 100.035C105.619 99.9174 105.783 99.7629 105.898 99.571C106.015 99.3792 106.074 99.17 106.074 98.9435V98.2201C106.028 98.2574 105.951 98.292 105.842 98.324C105.735 98.356 105.615 98.3839 105.482 98.4079C105.349 98.4319 105.217 98.4532 105.087 98.4719C104.956 98.4905 104.843 98.5065 104.747 98.5198C104.531 98.5491 104.338 98.5971 104.167 98.6637C103.997 98.7303 103.862 98.8236 103.764 98.9435C103.665 99.0607 103.616 99.2126 103.616 99.3991C103.616 99.6656 103.713 99.8668 103.907 100.003C104.102 100.139 104.35 100.206 104.651 100.206ZM108.971 101.146V95.0066H110.374V96.0298H110.438C110.55 95.6754 110.742 95.4023 111.014 95.2105C111.288 95.016 111.601 94.9187 111.953 94.9187C112.033 94.9187 112.122 94.9227 112.221 94.9307C112.322 94.936 112.406 94.9453 112.473 94.9587V96.2896C112.411 96.2683 112.314 96.2496 112.181 96.2337C112.05 96.215 111.924 96.2057 111.801 96.2057C111.537 96.2057 111.3 96.263 111.09 96.3775C110.882 96.4895 110.718 96.6453 110.598 96.8452C110.478 97.045 110.418 97.2755 110.418 97.5366V101.146H108.971ZM115.091 101.27C114.702 101.27 114.351 101.2 114.039 101.062C113.73 100.921 113.485 100.713 113.304 100.438C113.125 100.164 113.036 99.8255 113.036 99.4231C113.036 99.0767 113.1 98.7903 113.228 98.5638C113.356 98.3373 113.53 98.1561 113.752 98.0202C113.973 97.8843 114.222 97.7818 114.499 97.7125C114.779 97.6405 115.068 97.5886 115.366 97.5566C115.726 97.5193 116.018 97.486 116.242 97.4567C116.465 97.4247 116.628 97.3767 116.729 97.3128C116.833 97.2462 116.885 97.1436 116.885 97.005V96.9811C116.885 96.68 116.796 96.4468 116.617 96.2816C116.439 96.1164 116.182 96.0338 115.846 96.0338C115.492 96.0338 115.21 96.1111 115.003 96.2656C114.797 96.4202 114.659 96.6027 114.587 96.8132L113.236 96.6213C113.343 96.2483 113.519 95.9366 113.764 95.6861C114.009 95.433 114.309 95.2438 114.663 95.1185C115.017 94.9906 115.409 94.9267 115.838 94.9267C116.134 94.9267 116.428 94.9613 116.721 95.0306C117.014 95.0999 117.282 95.2145 117.525 95.3743C117.767 95.5315 117.962 95.746 118.108 96.0178C118.257 96.2896 118.332 96.6293 118.332 97.037V101.146H116.941V100.302H116.893C116.805 100.473 116.681 100.633 116.521 100.782C116.364 100.929 116.166 101.047 115.926 101.138C115.689 101.226 115.41 101.27 115.091 101.27ZM115.466 100.206C115.757 100.206 116.009 100.149 116.222 100.035C116.435 99.9174 116.599 99.7629 116.713 99.571C116.831 99.3792 116.889 99.17 116.889 98.9435V98.2201C116.844 98.2574 116.767 98.292 116.657 98.324C116.551 98.356 116.431 98.3839 116.298 98.4079C116.164 98.4319 116.033 98.4532 115.902 98.4719C115.771 98.4905 115.658 98.5065 115.562 98.5198C115.346 98.5491 115.153 98.5971 114.983 98.6637C114.812 98.7303 114.678 98.8236 114.579 98.9435C114.48 99.0607 114.431 99.2126 114.431 99.3991C114.431 99.6656 114.528 99.8668 114.723 100.003C114.917 100.139 115.165 100.206 115.466 100.206ZM119.787 101.146V95.0066H121.17V96.0498H121.242C121.37 95.6981 121.581 95.4236 121.877 95.2265C122.173 95.0266 122.526 94.9267 122.936 94.9267C123.352 94.9267 123.702 95.0279 123.988 95.2305C124.275 95.4303 124.478 95.7034 124.595 96.0498H124.659C124.795 95.7087 125.024 95.437 125.346 95.2344C125.672 95.0293 126.057 94.9267 126.502 94.9267C127.066 94.9267 127.527 95.1052 127.884 95.4623C128.241 95.8193 128.42 96.3402 128.42 97.025V101.146H126.969V97.2488C126.969 96.8678 126.868 96.5894 126.665 96.4135C126.463 96.235 126.215 96.1457 125.922 96.1457C125.573 96.1457 125.3 96.255 125.103 96.4735C124.908 96.6893 124.811 96.9704 124.811 97.3168V101.146H123.392V97.1889C123.392 96.8718 123.296 96.6187 123.104 96.4295C122.915 96.2403 122.667 96.1457 122.361 96.1457C122.153 96.1457 121.964 96.199 121.793 96.3056C121.623 96.4095 121.487 96.5574 121.386 96.7492C121.284 96.9384 121.234 97.1596 121.234 97.4127V101.146H119.787ZM132.606 101.266C131.99 101.266 131.459 101.138 131.011 100.882C130.566 100.624 130.224 100.258 129.984 99.7868C129.744 99.3125 129.624 98.7543 129.624 98.1122C129.624 97.4807 129.744 96.9264 129.984 96.4495C130.226 95.9699 130.565 95.5968 130.999 95.3304C131.433 95.0613 131.944 94.9267 132.53 94.9267C132.908 94.9267 133.265 94.988 133.601 95.1105C133.939 95.2305 134.238 95.417 134.496 95.6701C134.757 95.9232 134.962 96.2456 135.112 96.6373C135.261 97.0264 135.336 97.49 135.336 98.0282V98.4719H130.304V97.4967H133.949C133.946 97.2195 133.886 96.9731 133.769 96.7572C133.652 96.5387 133.488 96.3669 133.277 96.2416C133.069 96.1164 132.827 96.0538 132.55 96.0538C132.254 96.0538 131.994 96.1257 131.77 96.2696C131.547 96.4108 131.372 96.5974 131.247 96.8292C131.124 97.0583 131.062 97.3101 131.059 97.5846V98.4359C131.059 98.793 131.124 99.0994 131.255 99.3552C131.385 99.6083 131.568 99.8028 131.802 99.9387C132.037 100.072 132.311 100.139 132.626 100.139C132.836 100.139 133.027 100.109 133.197 100.051C133.368 99.9893 133.516 99.9001 133.641 99.7828C133.766 99.6656 133.861 99.5204 133.925 99.3472L135.276 99.4991C135.19 99.8561 135.028 100.168 134.788 100.434C134.551 100.698 134.247 100.903 133.877 101.05C133.506 101.194 133.083 101.266 132.606 101.266ZM139.625 95.0066V96.1257H136.096V95.0066H139.625ZM136.967 93.5358H138.414V99.2992C138.414 99.4937 138.443 99.6429 138.502 99.7469C138.563 99.8481 138.643 99.9174 138.742 99.9547C138.84 99.992 138.95 100.011 139.07 100.011C139.16 100.011 139.243 100.004 139.317 99.9907C139.395 99.9773 139.453 99.9654 139.493 99.9547L139.737 101.086C139.66 101.112 139.549 101.142 139.405 101.174C139.264 101.206 139.091 101.224 138.886 101.23C138.523 101.24 138.197 101.186 137.906 101.066C137.616 100.943 137.386 100.754 137.215 100.498C137.047 100.242 136.965 99.9227 136.967 99.539V93.5358ZM143.487 101.266C142.872 101.266 142.34 101.138 141.892 100.882C141.447 100.624 141.105 100.258 140.865 99.7868C140.625 99.3125 140.505 98.7543 140.505 98.1122C140.505 97.4807 140.625 96.9264 140.865 96.4495C141.108 95.9699 141.446 95.5968 141.88 95.3304C142.315 95.0613 142.825 94.9267 143.411 94.9267C143.789 94.9267 144.147 94.988 144.482 95.1105C144.821 95.2305 145.119 95.417 145.378 95.6701C145.639 95.9232 145.844 96.2456 145.993 96.6373C146.142 97.0264 146.217 97.49 146.217 98.0282V98.4719H141.185V97.4967H144.83C144.827 97.2195 144.767 96.9731 144.65 96.7572C144.533 96.5387 144.369 96.3669 144.158 96.2416C143.951 96.1164 143.708 96.0538 143.431 96.0538C143.135 96.0538 142.876 96.1257 142.652 96.2696C142.428 96.4108 142.253 96.5974 142.128 96.8292C142.006 97.0583 141.943 97.3101 141.94 97.5846V98.4359C141.94 98.793 142.006 99.0994 142.136 99.3552C142.267 99.6083 142.449 99.8028 142.684 99.9387C142.918 100.072 143.193 100.139 143.507 100.139C143.718 100.139 143.908 100.109 144.079 100.051C144.249 99.9893 144.397 99.9001 144.522 99.7828C144.647 99.6656 144.742 99.5204 144.806 99.3472L146.157 99.4991C146.072 99.8561 145.909 100.168 145.669 100.434C145.432 100.698 145.128 100.903 144.758 101.05C144.388 101.194 143.964 101.266 143.487 101.266ZM147.441 101.146V95.0066H148.844V96.0298H148.908C149.02 95.6754 149.211 95.4023 149.483 95.2105C149.758 95.016 150.071 94.9187 150.423 94.9187C150.502 94.9187 150.592 94.9227 150.69 94.9307C150.792 94.936 150.875 94.9453 150.942 94.9587V96.2896C150.881 96.2683 150.784 96.2496 150.65 96.2337C150.52 96.215 150.393 96.2057 150.271 96.2057C150.007 96.2057 149.77 96.263 149.559 96.3775C149.351 96.4895 149.188 96.6453 149.068 96.8452C148.948 97.045 148.888 97.2755 148.888 97.5366V101.146H147.441ZM161.766 95.7221H160.271C160.228 95.4769 160.149 95.2598 160.035 95.0706C159.92 94.8787 159.778 94.7162 159.607 94.583C159.437 94.4497 159.242 94.3498 159.024 94.2832C158.808 94.2139 158.575 94.1793 158.324 94.1793C157.879 94.1793 157.485 94.2912 157.141 94.515C156.797 94.7362 156.528 95.0613 156.334 95.4902C156.139 95.9166 156.042 96.4375 156.042 97.053C156.042 97.6792 156.139 98.2068 156.334 98.6357C156.531 99.0621 156.8 99.3845 157.141 99.603C157.485 99.8188 157.878 99.9267 158.32 99.9267C158.565 99.9267 158.795 99.8947 159.008 99.8308C159.224 99.7642 159.417 99.6669 159.587 99.539C159.76 99.4111 159.906 99.2539 160.023 99.0674C160.143 98.8809 160.225 98.6677 160.271 98.4279L161.766 98.4359C161.71 98.8249 161.588 99.19 161.402 99.531C161.218 99.8721 160.977 100.173 160.678 100.434C160.38 100.693 160.031 100.895 159.631 101.042C159.232 101.186 158.788 101.258 158.3 101.258C157.581 101.258 156.939 101.091 156.374 100.758C155.809 100.425 155.364 99.944 155.039 99.3152C154.714 98.6864 154.551 97.9323 154.551 97.053C154.551 96.171 154.715 95.417 155.043 94.7908C155.371 94.162 155.817 93.681 156.382 93.3479C156.947 93.0149 157.586 92.8483 158.3 92.8483C158.756 92.8483 159.18 92.9123 159.571 93.0402C159.963 93.1681 160.312 93.3559 160.618 93.6037C160.925 93.8489 161.177 94.15 161.374 94.507C161.574 94.8614 161.704 95.2664 161.766 95.7221ZM164.506 97.5486V101.146H163.059V92.9603H164.474V96.0498H164.546C164.69 95.7034 164.913 95.4303 165.214 95.2305C165.518 95.0279 165.904 94.9267 166.373 94.9267C166.799 94.9267 167.171 95.016 167.488 95.1945C167.805 95.373 168.05 95.6341 168.223 95.9779C168.399 96.3216 168.487 96.7413 168.487 97.2369V101.146H167.04V97.4607C167.04 97.0477 166.934 96.7266 166.721 96.4974C166.51 96.2656 166.214 96.1497 165.833 96.1497C165.577 96.1497 165.348 96.2057 165.146 96.3176C164.946 96.4268 164.789 96.5854 164.674 96.7932C164.562 97.001 164.506 97.2528 164.506 97.5486ZM171.729 101.27C171.34 101.27 170.989 101.2 170.677 101.062C170.368 100.921 170.123 100.713 169.942 100.438C169.763 100.164 169.674 99.8255 169.674 99.4231C169.674 99.0767 169.738 98.7903 169.866 98.5638C169.994 98.3373 170.169 98.1561 170.39 98.0202C170.611 97.8843 170.86 97.7818 171.137 97.7125C171.417 97.6405 171.706 97.5886 172.004 97.5566C172.364 97.5193 172.656 97.486 172.88 97.4567C173.104 97.4247 173.266 97.3767 173.367 97.3128C173.471 97.2462 173.523 97.1436 173.523 97.005V96.9811C173.523 96.68 173.434 96.4468 173.255 96.2816C173.077 96.1164 172.82 96.0338 172.484 96.0338C172.13 96.0338 171.849 96.1111 171.641 96.2656C171.435 96.4202 171.297 96.6027 171.225 96.8132L169.874 96.6213C169.981 96.2483 170.157 95.9366 170.402 95.6861C170.647 95.433 170.947 95.2438 171.301 95.1185C171.655 94.9906 172.047 94.9267 172.476 94.9267C172.772 94.9267 173.066 94.9613 173.359 95.0306C173.652 95.0999 173.92 95.2145 174.163 95.3743C174.405 95.5315 174.6 95.746 174.746 96.0178C174.895 96.2896 174.97 96.6293 174.97 97.037V101.146H173.579V100.302H173.531C173.443 100.473 173.319 100.633 173.159 100.782C173.002 100.929 172.804 101.047 172.564 101.138C172.327 101.226 172.048 101.27 171.729 101.27ZM172.104 100.206C172.395 100.206 172.647 100.149 172.86 100.035C173.073 99.9174 173.237 99.7629 173.351 99.571C173.469 99.3792 173.527 99.17 173.527 98.9435V98.2201C173.482 98.2574 173.405 98.292 173.295 98.324C173.189 98.356 173.069 98.3839 172.936 98.4079C172.802 98.4319 172.671 98.4532 172.54 98.4719C172.409 98.4905 172.296 98.5065 172.2 98.5198C171.984 98.5491 171.791 98.5971 171.621 98.6637C171.45 98.7303 171.316 98.8236 171.217 98.9435C171.118 99.0607 171.069 99.2126 171.069 99.3991C171.069 99.6656 171.166 99.8668 171.361 100.003C171.555 100.139 171.803 100.206 172.104 100.206ZM177.872 97.5486V101.146H176.425V95.0066H177.808V96.0498H177.88C178.021 95.7061 178.246 95.433 178.555 95.2305C178.867 95.0279 179.252 94.9267 179.71 94.9267C180.134 94.9267 180.503 95.0173 180.817 95.1985C181.134 95.3797 181.38 95.6421 181.553 95.9859C181.729 96.3296 181.815 96.7466 181.813 97.2369V101.146H180.366V97.4607C180.366 97.0503 180.259 96.7293 180.046 96.4974C179.835 96.2656 179.544 96.1497 179.171 96.1497C178.918 96.1497 178.692 96.2057 178.495 96.3176C178.301 96.4268 178.147 96.5854 178.036 96.7932C177.926 97.001 177.872 97.2528 177.872 97.5486ZM185.953 103.576C185.434 103.576 184.987 103.505 184.614 103.364C184.241 103.225 183.942 103.039 183.715 102.804C183.489 102.57 183.331 102.31 183.243 102.025L184.546 101.709C184.605 101.829 184.69 101.948 184.802 102.065C184.914 102.185 185.065 102.284 185.254 102.361C185.446 102.441 185.687 102.481 185.977 102.481C186.388 102.481 186.727 102.381 186.996 102.181C187.266 101.984 187.4 101.659 187.4 101.206V100.043H187.328C187.254 100.192 187.144 100.345 187 100.502C186.859 100.659 186.671 100.791 186.437 100.898C186.205 101.005 185.913 101.058 185.562 101.058C185.09 101.058 184.662 100.947 184.279 100.726C183.898 100.502 183.594 100.169 183.367 99.7269C183.144 99.2819 183.032 98.725 183.032 98.0562C183.032 97.3821 183.144 96.8132 183.367 96.3496C183.594 95.8833 183.899 95.5302 184.283 95.2904C184.666 95.0479 185.094 94.9267 185.566 94.9267C185.925 94.9267 186.221 94.988 186.453 95.1105C186.687 95.2305 186.874 95.3757 187.012 95.5462C187.151 95.7141 187.256 95.8726 187.328 96.0218H187.408V95.0066H188.835V101.246C188.835 101.771 188.71 102.205 188.459 102.549C188.209 102.892 187.866 103.149 187.432 103.32C186.998 103.491 186.505 103.576 185.953 103.576ZM185.965 99.9227C186.272 99.9227 186.533 99.8481 186.749 99.6989C186.964 99.5497 187.128 99.3352 187.24 99.0554C187.352 98.7756 187.408 98.4399 187.408 98.0482C187.408 97.6619 187.352 97.3235 187.24 97.033C187.131 96.7426 186.968 96.5174 186.753 96.3576C186.539 96.195 186.277 96.1137 185.965 96.1137C185.643 96.1137 185.374 96.1977 185.158 96.3655C184.942 96.5334 184.78 96.7639 184.67 97.057C184.561 97.3474 184.506 97.6778 184.506 98.0482C184.506 98.4239 184.561 98.753 184.67 99.0354C184.782 99.3152 184.946 99.5337 185.162 99.6909C185.38 99.8455 185.648 99.9227 185.965 99.9227ZM193.036 101.266C192.42 101.266 191.889 101.138 191.441 100.882C190.996 100.624 190.654 100.258 190.414 99.7868C190.174 99.3125 190.054 98.7543 190.054 98.1122C190.054 97.4807 190.174 96.9264 190.414 96.4495C190.656 95.9699 190.995 95.5968 191.429 95.3304C191.863 95.0613 192.374 94.9267 192.96 94.9267C193.338 94.9267 193.695 94.988 194.031 95.1105C194.369 95.2305 194.668 95.417 194.926 95.6701C195.187 95.9232 195.392 96.2456 195.542 96.6373C195.691 97.0264 195.766 97.49 195.766 98.0282V98.4719H190.734V97.4967H194.379C194.376 97.2195 194.316 96.9731 194.199 96.7572C194.082 96.5387 193.918 96.3669 193.707 96.2416C193.499 96.1164 193.257 96.0538 192.98 96.0538C192.684 96.0538 192.424 96.1257 192.2 96.2696C191.977 96.4108 191.802 96.5974 191.677 96.8292C191.554 97.0583 191.492 97.3101 191.489 97.5846V98.4359C191.489 98.793 191.554 99.0994 191.685 99.3552C191.815 99.6083 191.998 99.8028 192.232 99.9387C192.467 100.072 192.741 100.139 193.056 100.139C193.266 100.139 193.457 100.109 193.627 100.051C193.798 99.9893 193.946 99.9001 194.071 99.7828C194.196 99.6656 194.291 99.5204 194.355 99.3472L195.706 99.4991C195.62 99.8561 195.458 100.168 195.218 100.434C194.981 100.698 194.677 100.903 194.307 101.05C193.936 101.194 193.513 101.266 193.036 101.266ZM197.881 101.234C197.638 101.234 197.431 101.148 197.257 100.978C197.084 100.807 196.999 100.6 197.002 100.354C196.999 100.115 197.084 99.9094 197.257 99.7389C197.431 99.5683 197.638 99.4831 197.881 99.4831C198.115 99.4831 198.319 99.5683 198.492 99.7389C198.668 99.9094 198.757 100.115 198.76 100.354C198.757 100.517 198.715 100.665 198.632 100.798C198.552 100.931 198.446 101.038 198.312 101.118C198.182 101.195 198.038 101.234 197.881 101.234ZM197.881 96.8532C197.638 96.8532 197.431 96.7679 197.257 96.5974C197.084 96.4242 196.999 96.2163 197.002 95.9739C196.999 95.7341 197.084 95.5289 197.257 95.3583C197.431 95.1852 197.638 95.0986 197.881 95.0986C198.115 95.0986 198.319 95.1852 198.492 95.3583C198.668 95.5289 198.757 95.7341 198.76 95.9739C198.757 96.1337 198.715 96.2803 198.632 96.4135C198.552 96.5467 198.446 96.6533 198.312 96.7333C198.182 96.8132 198.038 96.8532 197.881 96.8532ZM204.592 92.9603V101.146H203.11V92.9603H204.592ZM207.581 97.5486V101.146H206.134V95.0066H207.517V96.0498H207.589C207.73 95.7061 207.955 95.433 208.265 95.2305C208.576 95.0279 208.961 94.9267 209.42 94.9267C209.843 94.9267 210.212 95.0173 210.527 95.1985C210.844 95.3797 211.089 95.6421 211.262 95.9859C211.438 96.3296 211.525 96.7466 211.522 97.2369V101.146H210.075V97.4607C210.075 97.0503 209.969 96.7293 209.755 96.4974C209.545 96.2656 209.253 96.1497 208.88 96.1497C208.627 96.1497 208.402 96.2057 208.205 96.3176C208.01 96.4268 207.857 96.5854 207.745 96.7932C207.636 97.001 207.581 97.2528 207.581 97.5486ZM215.671 101.266C215.058 101.266 214.532 101.131 214.092 100.862C213.655 100.593 213.318 100.221 213.081 99.7469C212.846 99.2699 212.729 98.721 212.729 98.1002C212.729 97.4767 212.849 96.9264 213.089 96.4495C213.329 95.9699 213.667 95.5968 214.104 95.3304C214.544 95.0613 215.063 94.9267 215.663 94.9267C216.161 94.9267 216.602 95.0186 216.986 95.2025C217.372 95.3837 217.68 95.6408 217.909 95.9739C218.138 96.3043 218.269 96.6906 218.301 97.1329H216.918C216.862 96.8372 216.729 96.5907 216.518 96.3935C216.31 96.1937 216.032 96.0938 215.683 96.0938C215.387 96.0938 215.127 96.1737 214.903 96.3336C214.679 96.4908 214.505 96.7173 214.38 97.013C214.257 97.3088 214.196 97.6632 214.196 98.0762C214.196 98.4945 214.257 98.8542 214.38 99.1553C214.502 99.4538 214.674 99.6842 214.895 99.8468C215.119 100.007 215.382 100.087 215.683 100.087C215.896 100.087 216.086 100.047 216.254 99.9667C216.425 99.8841 216.567 99.7655 216.682 99.611C216.796 99.4564 216.875 99.2686 216.918 99.0474H218.301C218.266 99.4817 218.138 99.8668 217.917 100.203C217.696 100.536 217.395 100.797 217.014 100.986C216.633 101.172 216.185 101.266 215.671 101.266ZM219.489 101.146V95.0066H220.892V96.0298H220.955C221.067 95.6754 221.259 95.4023 221.531 95.2105C221.805 95.016 222.119 94.9187 222.47 94.9187C222.55 94.9187 222.639 94.9227 222.738 94.9307C222.839 94.936 222.923 94.9453 222.99 94.9587V96.2896C222.929 96.2683 222.831 96.2496 222.698 96.2337C222.568 96.215 222.441 96.2057 222.318 96.2057C222.055 96.2057 221.817 96.263 221.607 96.3775C221.399 96.4895 221.235 96.6453 221.115 96.8452C220.995 97.045 220.936 97.2755 220.936 97.5366V101.146H219.489ZM226.416 101.266C225.801 101.266 225.269 101.138 224.821 100.882C224.376 100.624 224.034 100.258 223.794 99.7868C223.554 99.3125 223.435 98.7543 223.435 98.1122C223.435 97.4807 223.554 96.9264 223.794 96.4495C224.037 95.9699 224.375 95.5968 224.809 95.3304C225.244 95.0613 225.754 94.9267 226.34 94.9267C226.719 94.9267 227.076 94.988 227.411 95.1105C227.75 95.2305 228.048 95.417 228.307 95.6701C228.568 95.9232 228.773 96.2456 228.922 96.6373C229.071 97.0264 229.146 97.49 229.146 98.0282V98.4719H224.114V97.4967H227.759C227.756 97.2195 227.696 96.9731 227.579 96.7572C227.462 96.5387 227.298 96.3669 227.088 96.2416C226.88 96.1164 226.637 96.0538 226.36 96.0538C226.064 96.0538 225.805 96.1257 225.581 96.2696C225.357 96.4108 225.182 96.5974 225.057 96.8292C224.935 97.0583 224.872 97.3101 224.869 97.5846V98.4359C224.869 98.793 224.935 99.0994 225.065 99.3552C225.196 99.6083 225.378 99.8028 225.613 99.9387C225.847 100.072 226.122 100.139 226.436 100.139C226.647 100.139 226.837 100.109 227.008 100.051C227.178 99.9893 227.326 99.9001 227.451 99.7828C227.577 99.6656 227.671 99.5204 227.735 99.3472L229.086 99.4991C229.001 99.8561 228.838 100.168 228.598 100.434C228.361 100.698 228.058 100.903 227.687 101.05C227.317 101.194 226.893 101.266 226.416 101.266ZM232.137 101.27C231.748 101.27 231.397 101.2 231.085 101.062C230.776 100.921 230.531 100.713 230.35 100.438C230.172 100.164 230.082 99.8255 230.082 99.4231C230.082 99.0767 230.146 98.7903 230.274 98.5638C230.402 98.3373 230.577 98.1561 230.798 98.0202C231.019 97.8843 231.268 97.7818 231.545 97.7125C231.825 97.6405 232.114 97.5886 232.412 97.5566C232.772 97.5193 233.064 97.486 233.288 97.4567C233.512 97.4247 233.674 97.3767 233.775 97.3128C233.879 97.2462 233.931 97.1436 233.931 97.005V96.9811C233.931 96.68 233.842 96.4468 233.663 96.2816C233.485 96.1164 233.228 96.0338 232.892 96.0338C232.538 96.0338 232.257 96.1111 232.049 96.2656C231.844 96.4202 231.705 96.6027 231.633 96.8132L230.282 96.6213C230.389 96.2483 230.565 95.9366 230.81 95.6861C231.055 95.433 231.355 95.2438 231.709 95.1185C232.063 94.9906 232.455 94.9267 232.884 94.9267C233.18 94.9267 233.474 94.9613 233.767 95.0306C234.06 95.0999 234.328 95.2145 234.571 95.3743C234.813 95.5315 235.008 95.746 235.154 96.0178C235.303 96.2896 235.378 96.6293 235.378 97.037V101.146H233.987V100.302H233.939C233.851 100.473 233.727 100.633 233.567 100.782C233.41 100.929 233.212 101.047 232.972 101.138C232.735 101.226 232.456 101.27 232.137 101.27ZM232.512 100.206C232.803 100.206 233.055 100.149 233.268 100.035C233.481 99.9174 233.645 99.7629 233.759 99.571C233.877 99.3792 233.935 99.17 233.935 98.9435V98.2201C233.89 98.2574 233.813 98.292 233.703 98.324C233.597 98.356 233.477 98.3839 233.344 98.4079C233.21 98.4319 233.079 98.4532 232.948 98.4719C232.817 98.4905 232.704 98.5065 232.608 98.5198C232.392 98.5491 232.199 98.5971 232.029 98.6637C231.858 98.7303 231.724 98.8236 231.625 98.9435C231.526 99.0607 231.477 99.2126 231.477 99.3991C231.477 99.6656 231.574 99.8668 231.769 100.003C231.963 100.139 232.211 100.206 232.512 100.206ZM241.685 96.6293L240.366 96.7732C240.329 96.64 240.263 96.5148 240.17 96.3975C240.08 96.2803 239.957 96.1857 239.803 96.1137C239.648 96.0418 239.459 96.0058 239.235 96.0058C238.934 96.0058 238.681 96.0711 238.476 96.2017C238.273 96.3322 238.173 96.5014 238.176 96.7093C238.173 96.8878 238.238 97.033 238.372 97.1449C238.508 97.2568 238.731 97.3488 239.043 97.4207L240.09 97.6445C240.671 97.7698 241.103 97.9683 241.385 98.2401C241.67 98.5118 241.814 98.8676 241.817 99.3072C241.814 99.6936 241.701 100.035 241.477 100.33C241.256 100.624 240.948 100.853 240.554 101.018C240.16 101.183 239.707 101.266 239.195 101.266C238.444 101.266 237.839 101.108 237.38 100.794C236.922 100.477 236.649 100.036 236.561 99.4711L237.972 99.3352C238.036 99.6123 238.172 99.8215 238.38 99.9627C238.587 100.104 238.858 100.175 239.191 100.175C239.535 100.175 239.811 100.104 240.018 99.9627C240.229 99.8215 240.334 99.6469 240.334 99.4391C240.334 99.2632 240.266 99.118 240.13 99.0035C239.997 98.8889 239.789 98.8009 239.507 98.7397L238.46 98.5198C237.871 98.3973 237.435 98.1908 237.153 97.9003C236.87 97.6072 236.73 97.2369 236.733 96.7892C236.73 96.4108 236.833 96.0831 237.041 95.806C237.251 95.5262 237.543 95.3104 237.916 95.1585C238.292 95.004 238.725 94.9267 239.215 94.9267C239.934 94.9267 240.501 95.0799 240.914 95.3863C241.329 95.6927 241.586 96.1071 241.685 96.6293ZM245.728 101.266C245.112 101.266 244.581 101.138 244.133 100.882C243.688 100.624 243.346 100.258 243.106 99.7868C242.866 99.3125 242.746 98.7543 242.746 98.1122C242.746 97.4807 242.866 96.9264 243.106 96.4495C243.348 95.9699 243.687 95.5968 244.121 95.3304C244.555 95.0613 245.066 94.9267 245.652 94.9267C246.03 94.9267 246.387 94.988 246.723 95.1105C247.061 95.2305 247.36 95.417 247.618 95.6701C247.879 95.9232 248.085 96.2456 248.234 96.6373C248.383 97.0264 248.458 97.49 248.458 98.0282V98.4719H243.426V97.4967H247.071C247.068 97.2195 247.008 96.9731 246.891 96.7572C246.774 96.5387 246.61 96.3669 246.399 96.2416C246.191 96.1164 245.949 96.0538 245.672 96.0538C245.376 96.0538 245.116 96.1257 244.892 96.2696C244.669 96.4108 244.494 96.5974 244.369 96.8292C244.246 97.0583 244.184 97.3101 244.181 97.5846V98.4359C244.181 98.793 244.246 99.0994 244.377 99.3552C244.507 99.6083 244.69 99.8028 244.924 99.9387C245.159 100.072 245.433 100.139 245.748 100.139C245.958 100.139 246.149 100.109 246.319 100.051C246.49 99.9893 246.638 99.9001 246.763 99.7828C246.888 99.6656 246.983 99.5204 247.047 99.3472L248.398 99.4991C248.312 99.8561 248.15 100.168 247.91 100.434C247.673 100.698 247.369 100.903 246.999 101.05C246.628 101.194 246.205 101.266 245.728 101.266ZM255.311 101.146H252.537V92.9603H255.367C256.18 92.9603 256.878 93.1241 257.462 93.4519C258.048 93.7769 258.498 94.2446 258.812 94.8547C259.127 95.4649 259.284 96.195 259.284 97.045C259.284 97.8977 259.126 98.6304 258.808 99.2433C258.494 99.8561 258.04 100.326 257.446 100.654C256.854 100.982 256.143 101.146 255.311 101.146ZM254.02 99.8628H255.239C255.809 99.8628 256.285 99.7589 256.666 99.551C257.047 99.3405 257.334 99.0274 257.525 98.6118C257.717 98.1934 257.813 97.6712 257.813 97.045C257.813 96.4188 257.717 95.8993 257.525 95.4862C257.334 95.0706 257.05 94.7602 256.674 94.555C256.301 94.3472 255.837 94.2432 255.283 94.2432H254.02V99.8628ZM263.347 101.266C262.731 101.266 262.2 101.138 261.752 100.882C261.307 100.624 260.965 100.258 260.725 99.7868C260.485 99.3125 260.365 98.7543 260.365 98.1122C260.365 97.4807 260.485 96.9264 260.725 96.4495C260.967 95.9699 261.306 95.5968 261.74 95.3304C262.174 95.0613 262.685 94.9267 263.271 94.9267C263.649 94.9267 264.006 94.988 264.342 95.1105C264.68 95.2305 264.979 95.417 265.237 95.6701C265.498 95.9232 265.704 96.2456 265.853 96.6373C266.002 97.0264 266.077 97.49 266.077 98.0282V98.4719H261.045V97.4967H264.69C264.687 97.2195 264.627 96.9731 264.51 96.7572C264.393 96.5387 264.229 96.3669 264.018 96.2416C263.81 96.1164 263.568 96.0538 263.291 96.0538C262.995 96.0538 262.735 96.1257 262.511 96.2696C262.288 96.4108 262.113 96.5974 261.988 96.8292C261.865 97.0583 261.803 97.3101 261.8 97.5846V98.4359C261.8 98.793 261.865 99.0994 261.996 99.3552C262.126 99.6083 262.309 99.8028 262.543 99.9387C262.778 100.072 263.052 100.139 263.367 100.139C263.577 100.139 263.768 100.109 263.938 100.051C264.109 99.9893 264.257 99.9001 264.382 99.7828C264.507 99.6656 264.602 99.5204 264.666 99.3472L266.017 99.4991C265.931 99.8561 265.769 100.168 265.529 100.434C265.292 100.698 264.988 100.903 264.618 101.05C264.247 101.194 263.824 101.266 263.347 101.266ZM267.301 103.448V95.0066H268.724V96.0218H268.807C268.882 95.8726 268.987 95.7141 269.123 95.5462C269.259 95.3757 269.443 95.2305 269.675 95.1105C269.907 94.988 270.202 94.9267 270.562 94.9267C271.036 94.9267 271.464 95.0479 271.845 95.2904C272.229 95.5302 272.533 95.8859 272.756 96.3576C272.983 96.8265 273.096 97.4021 273.096 98.0842C273.096 98.7583 272.986 99.3312 272.764 99.8028C272.543 100.274 272.242 100.634 271.861 100.882C271.48 101.13 271.048 101.254 270.566 101.254C270.214 101.254 269.923 101.195 269.691 101.078C269.459 100.961 269.272 100.819 269.131 100.654C268.993 100.486 268.885 100.328 268.807 100.179H268.748V103.448H267.301ZM268.72 98.0762C268.72 98.4732 268.776 98.8209 268.887 99.1194C269.002 99.4178 269.166 99.6509 269.379 99.8188C269.595 99.984 269.856 100.067 270.162 100.067C270.482 100.067 270.75 99.9813 270.966 99.8108C271.182 99.6376 271.344 99.4018 271.453 99.1034C271.565 98.8023 271.621 98.4599 271.621 98.0762C271.621 97.6952 271.567 97.3568 271.457 97.061C271.348 96.7652 271.186 96.5334 270.97 96.3655C270.754 96.1977 270.485 96.1137 270.162 96.1137C269.853 96.1137 269.591 96.195 269.375 96.3576C269.159 96.5201 268.995 96.7479 268.883 97.041C268.774 97.3341 268.72 97.6792 268.72 98.0762ZM277.013 101.266C276.413 101.266 275.894 101.134 275.454 100.87C275.015 100.606 274.673 100.237 274.431 99.7629C274.191 99.2886 274.071 98.7343 274.071 98.1002C274.071 97.466 274.191 96.9104 274.431 96.4335C274.673 95.9565 275.015 95.5862 275.454 95.3224C275.894 95.0586 276.413 94.9267 277.013 94.9267C277.612 94.9267 278.132 95.0586 278.572 95.3224C279.011 95.5862 279.351 95.9565 279.591 96.4335C279.833 96.9104 279.955 97.466 279.955 98.1002C279.955 98.7343 279.833 99.2886 279.591 99.7629C279.351 100.237 279.011 100.606 278.572 100.87C278.132 101.134 277.612 101.266 277.013 101.266ZM277.021 100.107C277.346 100.107 277.618 100.017 277.836 99.8388C278.055 99.6576 278.217 99.4151 278.324 99.1114C278.433 98.8076 278.488 98.4692 278.488 98.0962C278.488 97.7205 278.433 97.3807 278.324 97.077C278.217 96.7706 278.055 96.5268 277.836 96.3456C277.618 96.1644 277.346 96.0738 277.021 96.0738C276.688 96.0738 276.411 96.1644 276.19 96.3456C275.971 96.5268 275.807 96.7706 275.698 97.077C275.591 97.3807 275.538 97.7205 275.538 98.0962C275.538 98.4692 275.591 98.8076 275.698 99.1114C275.807 99.4151 275.971 99.6576 276.19 99.8388C276.411 100.017 276.688 100.107 277.021 100.107ZM286.035 96.6293L284.716 96.7732C284.679 96.64 284.613 96.5148 284.52 96.3975C284.429 96.2803 284.307 96.1857 284.152 96.1137C283.998 96.0418 283.809 96.0058 283.585 96.0058C283.284 96.0058 283.031 96.0711 282.825 96.2017C282.623 96.3322 282.523 96.5014 282.526 96.7093C282.523 96.8878 282.588 97.033 282.721 97.1449C282.857 97.2568 283.081 97.3488 283.393 97.4207L284.44 97.6445C285.021 97.7698 285.453 97.9683 285.735 98.2401C286.02 98.5118 286.164 98.8676 286.167 99.3072C286.164 99.6936 286.051 100.035 285.827 100.33C285.606 100.624 285.298 100.853 284.904 101.018C284.509 101.183 284.056 101.266 283.545 101.266C282.793 101.266 282.189 101.108 281.73 100.794C281.272 100.477 280.999 100.036 280.911 99.4711L282.322 99.3352C282.386 99.6123 282.522 99.8215 282.729 99.9627C282.937 100.104 283.208 100.175 283.541 100.175C283.885 100.175 284.16 100.104 284.368 99.9627C284.579 99.8215 284.684 99.6469 284.684 99.4391C284.684 99.2632 284.616 99.118 284.48 99.0035C284.347 98.8889 284.139 98.8009 283.857 98.7397L282.809 98.5198C282.221 98.3973 281.785 98.1908 281.502 97.9003C281.22 97.6072 281.08 97.2369 281.083 96.7892C281.08 96.4108 281.183 96.0831 281.39 95.806C281.601 95.5262 281.893 95.3104 282.266 95.1585C282.642 95.004 283.074 94.9267 283.565 94.9267C284.284 94.9267 284.85 95.0799 285.263 95.3863C285.679 95.6927 285.936 96.1071 286.035 96.6293ZM287.36 101.146V95.0066H288.807V101.146H287.36ZM288.087 94.1353C287.858 94.1353 287.661 94.0594 287.496 93.9075C287.33 93.753 287.248 93.5678 287.248 93.3519C287.248 93.1334 287.33 92.9483 287.496 92.7964C287.661 92.6418 287.858 92.5646 288.087 92.5646C288.319 92.5646 288.516 92.6418 288.679 92.7964C288.844 92.9483 288.927 93.1334 288.927 93.3519C288.927 93.5678 288.844 93.753 288.679 93.9075C288.516 94.0594 288.319 94.1353 288.087 94.1353ZM293.36 95.0066V96.1257H289.831V95.0066H293.36ZM290.702 93.5358H292.149V99.2992C292.149 99.4937 292.178 99.6429 292.237 99.7469C292.298 99.8481 292.378 99.9174 292.477 99.9547C292.575 99.992 292.685 100.011 292.804 100.011C292.895 100.011 292.978 100.004 293.052 99.9907C293.13 99.9773 293.188 99.9654 293.228 99.9547L293.472 101.086C293.395 101.112 293.284 101.142 293.14 101.174C292.999 101.206 292.826 101.224 292.621 101.23C292.258 101.24 291.932 101.186 291.641 101.066C291.351 100.943 291.12 100.754 290.95 100.498C290.782 100.242 290.699 99.9227 290.702 99.539V93.5358ZM96.4904 116.146H94.9076L97.7893 107.96H99.6199L102.506 116.146H100.923L98.7366 109.639H98.6726L96.4904 116.146ZM96.5423 112.936H100.859V114.127H96.5423V112.936ZM103.52 116.146V110.007H104.903V111.05H104.975C105.103 110.698 105.314 110.424 105.61 110.226C105.906 110.027 106.259 109.927 106.669 109.927C107.085 109.927 107.435 110.028 107.72 110.23C108.008 110.43 108.211 110.703 108.328 111.05H108.392C108.528 110.709 108.757 110.437 109.079 110.234C109.404 110.029 109.789 109.927 110.234 109.927C110.799 109.927 111.26 110.105 111.617 110.462C111.974 110.819 112.153 111.34 112.153 112.025V116.146H110.702V112.249C110.702 111.868 110.601 111.589 110.398 111.414C110.196 111.235 109.948 111.146 109.655 111.146C109.306 111.146 109.033 111.255 108.836 111.473C108.641 111.689 108.544 111.97 108.544 112.317V116.146H107.125V112.189C107.125 111.872 107.029 111.619 106.837 111.429C106.648 111.24 106.4 111.146 106.094 111.146C105.886 111.146 105.697 111.199 105.526 111.306C105.356 111.41 105.22 111.557 105.119 111.749C105.017 111.938 104.967 112.16 104.967 112.413V116.146H103.52ZM116.299 116.266C115.699 116.266 115.18 116.134 114.74 115.87C114.3 115.606 113.959 115.237 113.717 114.763C113.477 114.289 113.357 113.734 113.357 113.1C113.357 112.466 113.477 111.91 113.717 111.433C113.959 110.957 114.3 110.586 114.74 110.322C115.18 110.059 115.699 109.927 116.299 109.927C116.898 109.927 117.418 110.059 117.857 110.322C118.297 110.586 118.637 110.957 118.877 111.433C119.119 111.91 119.24 112.466 119.24 113.1C119.24 113.734 119.119 114.289 118.877 114.763C118.637 115.237 118.297 115.606 117.857 115.87C117.418 116.134 116.898 116.266 116.299 116.266ZM116.307 115.107C116.632 115.107 116.903 115.017 117.122 114.839C117.34 114.658 117.503 114.415 117.61 114.111C117.719 113.808 117.773 113.469 117.773 113.096C117.773 112.72 117.719 112.381 117.61 112.077C117.503 111.771 117.34 111.527 117.122 111.346C116.903 111.164 116.632 111.074 116.307 111.074C115.974 111.074 115.696 111.164 115.475 111.346C115.257 111.527 115.093 111.771 114.984 112.077C114.877 112.381 114.824 112.72 114.824 113.096C114.824 113.469 114.877 113.808 114.984 114.111C115.093 114.415 115.257 114.658 115.475 114.839C115.696 115.017 115.974 115.107 116.307 115.107ZM124.381 113.564V110.007H125.828V116.146H124.425V115.055H124.361C124.223 115.398 123.995 115.679 123.678 115.898C123.363 116.116 122.976 116.226 122.515 116.226C122.112 116.226 121.757 116.136 121.448 115.958C121.141 115.777 120.901 115.514 120.728 115.171C120.555 114.824 120.468 114.406 120.468 113.916V110.007H121.915V113.692C121.915 114.081 122.022 114.39 122.235 114.619C122.448 114.848 122.728 114.963 123.074 114.963C123.287 114.963 123.494 114.911 123.694 114.807C123.894 114.703 124.057 114.548 124.185 114.343C124.316 114.135 124.381 113.876 124.381 113.564ZM128.763 112.549V116.146H127.316V110.007H128.699V111.05H128.771C128.912 110.706 129.137 110.433 129.446 110.23C129.758 110.028 130.143 109.927 130.601 109.927C131.025 109.927 131.394 110.017 131.708 110.198C132.025 110.38 132.271 110.642 132.444 110.986C132.62 111.33 132.706 111.747 132.704 112.237V116.146H131.257V112.461C131.257 112.05 131.15 111.729 130.937 111.497C130.726 111.266 130.435 111.15 130.062 111.15C129.809 111.15 129.583 111.206 129.386 111.318C129.192 111.427 129.039 111.585 128.927 111.793C128.817 112.001 128.763 112.253 128.763 112.549ZM137.24 110.007V111.126H133.711V110.007H137.24ZM134.582 108.536H136.029V114.299C136.029 114.494 136.058 114.643 136.117 114.747C136.178 114.848 136.258 114.917 136.357 114.955C136.455 114.992 136.565 115.011 136.684 115.011C136.775 115.011 136.858 115.004 136.932 114.991C137.01 114.977 137.068 114.965 137.108 114.955L137.352 116.086C137.275 116.112 137.164 116.142 137.02 116.174C136.879 116.206 136.706 116.224 136.501 116.23C136.138 116.24 135.812 116.186 135.521 116.066C135.231 115.943 135 115.754 134.83 115.498C134.662 115.242 134.579 114.923 134.582 114.539V108.536ZM144.351 110.007V111.126H140.722V110.007H144.351ZM141.63 116.146V109.427C141.63 109.014 141.715 108.67 141.885 108.396C142.058 108.121 142.29 107.916 142.581 107.78C142.871 107.645 143.194 107.577 143.548 107.577C143.798 107.577 144.021 107.597 144.215 107.637C144.41 107.676 144.554 107.712 144.647 107.744L144.359 108.864C144.298 108.845 144.221 108.826 144.128 108.808C144.034 108.786 143.93 108.776 143.816 108.776C143.547 108.776 143.356 108.841 143.244 108.971C143.135 109.099 143.08 109.283 143.08 109.523V116.146H141.63ZM147.932 116.266C147.332 116.266 146.812 116.134 146.373 115.87C145.933 115.606 145.592 115.237 145.35 114.763C145.11 114.289 144.99 113.734 144.99 113.1C144.99 112.466 145.11 111.91 145.35 111.433C145.592 110.957 145.933 110.586 146.373 110.322C146.812 110.059 147.332 109.927 147.932 109.927C148.531 109.927 149.051 110.059 149.49 110.322C149.93 110.586 150.27 110.957 150.509 111.433C150.752 111.91 150.873 112.466 150.873 113.1C150.873 113.734 150.752 114.289 150.509 114.763C150.27 115.237 149.93 115.606 149.49 115.87C149.051 116.134 148.531 116.266 147.932 116.266ZM147.939 115.107C148.265 115.107 148.536 115.017 148.755 114.839C148.973 114.658 149.136 114.415 149.242 114.111C149.352 113.808 149.406 113.469 149.406 113.096C149.406 112.72 149.352 112.381 149.242 112.077C149.136 111.771 148.973 111.527 148.755 111.346C148.536 111.164 148.265 111.074 147.939 111.074C147.606 111.074 147.329 111.164 147.108 111.346C146.89 111.527 146.726 111.771 146.617 112.077C146.51 112.381 146.457 112.72 146.457 113.096C146.457 113.469 146.51 113.808 146.617 114.111C146.726 114.415 146.89 114.658 147.108 114.839C147.329 115.017 147.606 115.107 147.939 115.107ZM152.101 116.146V110.007H153.504V111.03H153.568C153.68 110.675 153.872 110.402 154.144 110.21C154.418 110.016 154.731 109.919 155.083 109.919C155.163 109.919 155.252 109.923 155.351 109.931C155.452 109.936 155.536 109.945 155.602 109.959V111.29C155.541 111.268 155.444 111.25 155.311 111.234C155.18 111.215 155.054 111.206 154.931 111.206C154.667 111.206 154.43 111.263 154.22 111.378C154.012 111.489 153.848 111.645 153.728 111.845C153.608 112.045 153.548 112.275 153.548 112.537V116.146H152.101ZM166.426 110.722H164.931C164.888 110.477 164.81 110.26 164.695 110.071C164.581 109.879 164.438 109.716 164.268 109.583C164.097 109.45 163.902 109.35 163.684 109.283C163.468 109.214 163.235 109.179 162.985 109.179C162.54 109.179 162.145 109.291 161.801 109.515C161.458 109.736 161.189 110.061 160.994 110.49C160.8 110.917 160.702 111.437 160.702 112.053C160.702 112.679 160.8 113.207 160.994 113.636C161.191 114.062 161.46 114.384 161.801 114.603C162.145 114.819 162.538 114.927 162.981 114.927C163.226 114.927 163.455 114.895 163.668 114.831C163.884 114.764 164.077 114.667 164.248 114.539C164.421 114.411 164.566 114.254 164.683 114.067C164.803 113.881 164.886 113.668 164.931 113.428L166.426 113.436C166.37 113.825 166.249 114.19 166.062 114.531C165.878 114.872 165.637 115.173 165.339 115.434C165.04 115.693 164.691 115.895 164.292 116.042C163.892 116.186 163.448 116.258 162.961 116.258C162.241 116.258 161.599 116.091 161.034 115.758C160.469 115.425 160.024 114.944 159.699 114.315C159.374 113.686 159.212 112.932 159.212 112.053C159.212 111.171 159.375 110.417 159.703 109.791C160.031 109.162 160.477 108.681 161.042 108.348C161.607 108.015 162.246 107.848 162.961 107.848C163.416 107.848 163.84 107.912 164.232 108.04C164.623 108.168 164.972 108.356 165.279 108.604C165.585 108.849 165.837 109.15 166.034 109.507C166.234 109.861 166.365 110.266 166.426 110.722ZM170.398 116.266C169.798 116.266 169.279 116.134 168.839 115.87C168.399 115.606 168.058 115.237 167.816 114.763C167.576 114.289 167.456 113.734 167.456 113.1C167.456 112.466 167.576 111.91 167.816 111.433C168.058 110.957 168.399 110.586 168.839 110.322C169.279 110.059 169.798 109.927 170.398 109.927C170.997 109.927 171.517 110.059 171.956 110.322C172.396 110.586 172.736 110.957 172.976 111.433C173.218 111.91 173.339 112.466 173.339 113.1C173.339 113.734 173.218 114.289 172.976 114.763C172.736 115.237 172.396 115.606 171.956 115.87C171.517 116.134 170.997 116.266 170.398 116.266ZM170.406 115.107C170.731 115.107 171.003 115.017 171.221 114.839C171.439 114.658 171.602 114.415 171.709 114.111C171.818 113.808 171.872 113.469 171.872 113.096C171.872 112.72 171.818 112.381 171.709 112.077C171.602 111.771 171.439 111.527 171.221 111.346C171.003 111.164 170.731 111.074 170.406 111.074C170.073 111.074 169.795 111.164 169.574 111.346C169.356 111.527 169.192 111.771 169.083 112.077C168.976 112.381 168.923 112.72 168.923 113.096C168.923 113.469 168.976 113.808 169.083 114.111C169.192 114.415 169.356 114.658 169.574 114.839C169.795 115.017 170.073 115.107 170.406 115.107ZM179.419 111.629L178.101 111.773C178.063 111.64 177.998 111.515 177.905 111.398C177.814 111.28 177.692 111.186 177.537 111.114C177.382 111.042 177.193 111.006 176.969 111.006C176.668 111.006 176.415 111.071 176.21 111.202C176.008 111.332 175.908 111.501 175.91 111.709C175.908 111.888 175.973 112.033 176.106 112.145C176.242 112.257 176.466 112.349 176.778 112.421L177.825 112.645C178.406 112.77 178.837 112.968 179.12 113.24C179.405 113.512 179.549 113.868 179.551 114.307C179.549 114.694 179.435 115.035 179.212 115.33C178.99 115.624 178.683 115.853 178.288 116.018C177.894 116.183 177.441 116.266 176.929 116.266C176.178 116.266 175.573 116.108 175.115 115.794C174.657 115.477 174.383 115.036 174.296 114.471L175.706 114.335C175.77 114.612 175.906 114.821 176.114 114.963C176.322 115.104 176.592 115.175 176.925 115.175C177.269 115.175 177.545 115.104 177.753 114.963C177.963 114.821 178.069 114.647 178.069 114.439C178.069 114.263 178.001 114.118 177.865 114.003C177.731 113.889 177.524 113.801 177.241 113.74L176.194 113.52C175.605 113.397 175.17 113.191 174.887 112.9C174.605 112.607 174.465 112.237 174.467 111.789C174.465 111.411 174.567 111.083 174.775 110.806C174.986 110.526 175.277 110.31 175.65 110.159C176.026 110.004 176.459 109.927 176.949 109.927C177.669 109.927 178.235 110.08 178.648 110.386C179.064 110.693 179.321 111.107 179.419 111.629ZM180.744 116.146V110.007H182.127V111.05H182.199C182.327 110.698 182.539 110.424 182.835 110.226C183.131 110.027 183.484 109.927 183.894 109.927C184.31 109.927 184.66 110.028 184.945 110.23C185.233 110.43 185.435 110.703 185.553 111.05H185.617C185.752 110.709 185.982 110.437 186.304 110.234C186.629 110.029 187.014 109.927 187.459 109.927C188.024 109.927 188.485 110.105 188.842 110.462C189.199 110.819 189.378 111.34 189.378 112.025V116.146H187.927V112.249C187.927 111.868 187.825 111.589 187.623 111.414C187.42 111.235 187.173 111.146 186.88 111.146C186.531 111.146 186.257 111.255 186.06 111.473C185.866 111.689 185.768 111.97 185.768 112.317V116.146H184.35V112.189C184.35 111.872 184.254 111.619 184.062 111.429C183.873 111.24 183.625 111.146 183.318 111.146C183.111 111.146 182.921 111.199 182.751 111.306C182.58 111.41 182.444 111.557 182.343 111.749C182.242 111.938 182.191 112.16 182.191 112.413V116.146H180.744ZM193.523 116.266C192.924 116.266 192.404 116.134 191.965 115.87C191.525 115.606 191.184 115.237 190.941 114.763C190.702 114.289 190.582 113.734 190.582 113.1C190.582 112.466 190.702 111.91 190.941 111.433C191.184 110.957 191.525 110.586 191.965 110.322C192.404 110.059 192.924 109.927 193.523 109.927C194.123 109.927 194.642 110.059 195.082 110.322C195.522 110.586 195.861 110.957 196.101 111.433C196.344 111.91 196.465 112.466 196.465 113.1C196.465 113.734 196.344 114.289 196.101 114.763C195.861 115.237 195.522 115.606 195.082 115.87C194.642 116.134 194.123 116.266 193.523 116.266ZM193.531 115.107C193.856 115.107 194.128 115.017 194.347 114.839C194.565 114.658 194.728 114.415 194.834 114.111C194.943 113.808 194.998 113.469 194.998 113.096C194.998 112.72 194.943 112.381 194.834 112.077C194.728 111.771 194.565 111.527 194.347 111.346C194.128 111.164 193.856 111.074 193.531 111.074C193.198 111.074 192.921 111.164 192.7 111.346C192.481 111.527 192.318 111.771 192.208 112.077C192.102 112.381 192.048 112.72 192.048 113.096C192.048 113.469 192.102 113.808 192.208 114.111C192.318 114.415 192.481 114.658 192.7 114.839C192.921 115.017 193.198 115.107 193.531 115.107ZM202.545 111.629L201.226 111.773C201.189 111.64 201.124 111.515 201.03 111.398C200.94 111.28 200.817 111.186 200.663 111.114C200.508 111.042 200.319 111.006 200.095 111.006C199.794 111.006 199.541 111.071 199.336 111.202C199.133 111.332 199.033 111.501 199.036 111.709C199.033 111.888 199.099 112.033 199.232 112.145C199.368 112.257 199.591 112.349 199.903 112.421L200.95 112.645C201.531 112.77 201.963 112.968 202.245 113.24C202.53 113.512 202.674 113.868 202.677 114.307C202.674 114.694 202.561 115.035 202.337 115.33C202.116 115.624 201.808 115.853 201.414 116.018C201.02 116.183 200.567 116.266 200.055 116.266C199.304 116.266 198.699 116.108 198.241 115.794C197.782 115.477 197.509 115.036 197.421 114.471L198.832 114.335C198.896 114.612 199.032 114.821 199.24 114.963C199.448 115.104 199.718 115.175 200.051 115.175C200.395 115.175 200.671 115.104 200.878 114.963C201.089 114.821 201.194 114.647 201.194 114.439C201.194 114.263 201.126 114.118 200.99 114.003C200.857 113.889 200.649 113.801 200.367 113.74L199.32 113.52C198.731 113.397 198.295 113.191 198.013 112.9C197.73 112.607 197.59 112.237 197.593 111.789C197.59 111.411 197.693 111.083 197.901 110.806C198.111 110.526 198.403 110.31 198.776 110.159C199.152 110.004 199.585 109.927 200.075 109.927C200.795 109.927 201.361 110.08 201.774 110.386C202.189 110.693 202.447 111.107 202.545 111.629ZM206.726 116.146V107.96H208.209V111.426H212.002V107.96H213.488V116.146H212.002V112.669H208.209V116.146H206.726ZM218.95 113.564V110.007H220.397V116.146H218.994V115.055H218.93C218.792 115.398 218.564 115.679 218.247 115.898C217.932 116.116 217.545 116.226 217.084 116.226C216.681 116.226 216.326 116.136 216.016 115.958C215.71 115.777 215.47 115.514 215.297 115.171C215.124 114.824 215.037 114.406 215.037 113.916V110.007H216.484V113.692C216.484 114.081 216.591 114.39 216.804 114.619C217.017 114.848 217.297 114.963 217.643 114.963C217.856 114.963 218.063 114.911 218.263 114.807C218.462 114.703 218.626 114.548 218.754 114.343C218.885 114.135 218.95 113.876 218.95 113.564ZM221.949 116.146V107.96H223.396V111.022H223.456C223.53 110.873 223.635 110.714 223.771 110.546C223.907 110.376 224.091 110.23 224.323 110.111C224.555 109.988 224.85 109.927 225.21 109.927C225.684 109.927 226.112 110.048 226.493 110.29C226.877 110.53 227.181 110.886 227.404 111.358C227.631 111.827 227.744 112.402 227.744 113.084C227.744 113.758 227.634 114.331 227.412 114.803C227.191 115.274 226.89 115.634 226.509 115.882C226.128 116.13 225.696 116.254 225.214 116.254C224.862 116.254 224.571 116.195 224.339 116.078C224.107 115.961 223.92 115.819 223.779 115.654C223.641 115.486 223.533 115.328 223.456 115.179H223.372V116.146H221.949ZM223.368 113.076C223.368 113.473 223.424 113.821 223.535 114.119C223.65 114.418 223.814 114.651 224.027 114.819C224.243 114.984 224.504 115.067 224.81 115.067C225.13 115.067 225.398 114.981 225.614 114.811C225.83 114.638 225.992 114.402 226.101 114.103C226.213 113.802 226.269 113.46 226.269 113.076C226.269 112.695 226.215 112.357 226.105 112.061C225.996 111.765 225.834 111.533 225.618 111.366C225.402 111.198 225.133 111.114 224.81 111.114C224.501 111.114 224.239 111.195 224.023 111.358C223.807 111.52 223.643 111.748 223.531 112.041C223.422 112.334 223.368 112.679 223.368 113.076ZM237.314 110.574C237.247 110.358 237.155 110.165 237.038 109.995C236.923 109.821 236.785 109.674 236.622 109.551C236.462 109.428 236.278 109.336 236.07 109.275C235.863 109.211 235.636 109.179 235.391 109.179C234.951 109.179 234.56 109.29 234.216 109.511C233.872 109.732 233.602 110.057 233.405 110.486C233.21 110.913 233.113 111.432 233.113 112.045C233.113 112.663 233.21 113.187 233.405 113.616C233.599 114.045 233.87 114.371 234.216 114.595C234.562 114.816 234.965 114.927 235.423 114.927C235.839 114.927 236.198 114.847 236.502 114.687C236.809 114.527 237.044 114.301 237.21 114.007C237.375 113.712 237.457 113.365 237.457 112.968L237.793 113.02H235.571V111.861H238.892V112.844C238.892 113.545 238.743 114.151 238.445 114.663C238.146 115.175 237.736 115.569 237.214 115.846C236.691 116.12 236.092 116.258 235.415 116.258C234.661 116.258 233.999 116.088 233.429 115.75C232.861 115.409 232.417 114.925 232.098 114.299C231.781 113.67 231.622 112.924 231.622 112.061C231.622 111.4 231.715 110.81 231.902 110.29C232.091 109.771 232.355 109.33 232.693 108.967C233.032 108.602 233.429 108.325 233.884 108.136C234.34 107.944 234.835 107.848 235.371 107.848C235.824 107.848 236.246 107.915 236.638 108.048C237.03 108.179 237.377 108.365 237.681 108.608C237.988 108.85 238.239 109.138 238.437 109.471C238.634 109.804 238.763 110.172 238.824 110.574H237.314ZM242.94 116.266C242.341 116.266 241.821 116.134 241.381 115.87C240.942 115.606 240.601 115.237 240.358 114.763C240.118 114.289 239.998 113.734 239.998 113.1C239.998 112.466 240.118 111.91 240.358 111.433C240.601 110.957 240.942 110.586 241.381 110.322C241.821 110.059 242.341 109.927 242.94 109.927C243.54 109.927 244.059 110.059 244.499 110.322C244.938 110.586 245.278 110.957 245.518 111.433C245.76 111.91 245.882 112.466 245.882 113.1C245.882 113.734 245.76 114.289 245.518 114.763C245.278 115.237 244.938 115.606 244.499 115.87C244.059 116.134 243.54 116.266 242.94 116.266ZM242.948 115.107C243.273 115.107 243.545 115.017 243.763 114.839C243.982 114.658 244.144 114.415 244.251 114.111C244.36 113.808 244.415 113.469 244.415 113.096C244.415 112.72 244.36 112.381 244.251 112.077C244.144 111.771 243.982 111.527 243.763 111.346C243.545 111.164 243.273 111.074 242.948 111.074C242.615 111.074 242.338 111.164 242.117 111.346C241.898 111.527 241.734 111.771 241.625 112.077C241.518 112.381 241.465 112.72 241.465 113.096C241.465 113.469 241.518 113.808 241.625 114.111C241.734 114.415 241.898 114.658 242.117 114.839C242.338 115.017 242.615 115.107 242.948 115.107ZM252.385 110.007L250.198 116.146H248.6L246.413 110.007H247.956L249.367 114.567H249.431L250.846 110.007H252.385ZM255.895 116.266C255.279 116.266 254.748 116.138 254.3 115.882C253.855 115.624 253.513 115.258 253.273 114.787C253.033 114.313 252.913 113.754 252.913 113.112C252.913 112.481 253.033 111.926 253.273 111.449C253.515 110.97 253.854 110.597 254.288 110.33C254.722 110.061 255.233 109.927 255.819 109.927C256.197 109.927 256.554 109.988 256.89 110.111C257.228 110.23 257.527 110.417 257.785 110.67C258.046 110.923 258.252 111.246 258.401 111.637C258.55 112.026 258.625 112.49 258.625 113.028V113.472H253.593V112.497H257.238C257.235 112.22 257.175 111.973 257.058 111.757C256.941 111.539 256.777 111.367 256.566 111.242C256.358 111.116 256.116 111.054 255.839 111.054C255.543 111.054 255.283 111.126 255.059 111.27C254.836 111.411 254.661 111.597 254.536 111.829C254.413 112.058 254.351 112.31 254.348 112.585V113.436C254.348 113.793 254.413 114.099 254.544 114.355C254.674 114.608 254.857 114.803 255.091 114.939C255.326 115.072 255.6 115.139 255.915 115.139C256.125 115.139 256.316 115.109 256.486 115.051C256.657 114.989 256.805 114.9 256.93 114.783C257.055 114.666 257.15 114.52 257.214 114.347L258.565 114.499C258.479 114.856 258.317 115.168 258.077 115.434C257.84 115.698 257.536 115.903 257.166 116.05C256.795 116.194 256.372 116.266 255.895 116.266ZM259.849 116.146V110.007H261.251V111.03H261.315C261.427 110.675 261.619 110.402 261.891 110.21C262.165 110.016 262.479 109.919 262.83 109.919C262.91 109.919 262.999 109.923 263.098 109.931C263.199 109.936 263.283 109.945 263.35 109.959V111.29C263.289 111.268 263.191 111.25 263.058 111.234C262.927 111.215 262.801 111.206 262.678 111.206C262.415 111.206 262.177 111.263 261.967 111.378C261.759 111.489 261.595 111.645 261.475 111.845C261.355 112.045 261.295 112.275 261.295 112.537V116.146H259.849ZM265.758 112.549V116.146H264.311V110.007H265.694V111.05H265.766C265.907 110.706 266.132 110.433 266.441 110.23C266.753 110.028 267.138 109.927 267.596 109.927C268.02 109.927 268.389 110.017 268.704 110.198C269.021 110.38 269.266 110.642 269.439 110.986C269.615 111.33 269.701 111.747 269.699 112.237V116.146H268.252V112.461C268.252 112.05 268.145 111.729 267.932 111.497C267.722 111.266 267.43 111.15 267.057 111.15C266.804 111.15 266.579 111.206 266.381 111.318C266.187 111.427 266.034 111.585 265.922 111.793C265.813 112.001 265.758 112.253 265.758 112.549ZM272.936 116.27C272.547 116.27 272.197 116.2 271.885 116.062C271.576 115.921 271.331 115.713 271.15 115.438C270.971 115.164 270.882 114.825 270.882 114.423C270.882 114.077 270.946 113.79 271.074 113.564C271.202 113.337 271.376 113.156 271.597 113.02C271.818 112.884 272.068 112.782 272.345 112.712C272.624 112.641 272.914 112.589 273.212 112.557C273.572 112.519 273.863 112.486 274.087 112.457C274.311 112.425 274.474 112.377 274.575 112.313C274.679 112.246 274.731 112.144 274.731 112.005V111.981C274.731 111.68 274.642 111.447 274.463 111.282C274.284 111.116 274.027 111.034 273.692 111.034C273.337 111.034 273.056 111.111 272.848 111.266C272.643 111.42 272.505 111.603 272.433 111.813L271.082 111.621C271.188 111.248 271.364 110.937 271.609 110.686C271.854 110.433 272.154 110.244 272.509 110.119C272.863 109.991 273.255 109.927 273.684 109.927C273.979 109.927 274.274 109.961 274.567 110.031C274.86 110.1 275.128 110.214 275.37 110.374C275.613 110.532 275.807 110.746 275.954 111.018C276.103 111.29 276.178 111.629 276.178 112.037V116.146H274.787V115.302H274.739C274.651 115.473 274.527 115.633 274.367 115.782C274.21 115.929 274.011 116.047 273.772 116.138C273.534 116.226 273.256 116.27 272.936 116.27ZM273.312 115.206C273.602 115.206 273.854 115.149 274.067 115.035C274.28 114.917 274.444 114.763 274.559 114.571C274.676 114.379 274.735 114.17 274.735 113.944V113.22C274.689 113.257 274.612 113.292 274.503 113.324C274.396 113.356 274.276 113.384 274.143 113.408C274.01 113.432 273.878 113.453 273.748 113.472C273.617 113.491 273.504 113.507 273.408 113.52C273.192 113.549 272.999 113.597 272.828 113.664C272.658 113.73 272.523 113.824 272.425 113.944C272.326 114.061 272.277 114.213 272.277 114.399C272.277 114.666 272.374 114.867 272.569 115.003C272.763 115.139 273.011 115.206 273.312 115.206ZM279.079 112.549V116.146H277.632V110.007H279.015V111.05H279.087C279.229 110.706 279.454 110.433 279.763 110.23C280.075 110.028 280.46 109.927 280.918 109.927C281.342 109.927 281.711 110.017 282.025 110.198C282.342 110.38 282.587 110.642 282.76 110.986C282.936 111.33 283.023 111.747 283.02 112.237V116.146H281.573V112.461C281.573 112.05 281.467 111.729 281.254 111.497C281.043 111.266 280.751 111.15 280.378 111.15C280.125 111.15 279.9 111.206 279.703 111.318C279.508 111.427 279.355 111.585 279.243 111.793C279.134 112.001 279.079 112.253 279.079 112.549ZM287.169 116.266C286.556 116.266 286.03 116.131 285.59 115.862C285.153 115.593 284.816 115.221 284.579 114.747C284.344 114.27 284.227 113.721 284.227 113.1C284.227 112.477 284.347 111.926 284.587 111.449C284.827 110.97 285.165 110.597 285.602 110.33C286.042 110.061 286.561 109.927 287.161 109.927C287.659 109.927 288.1 110.019 288.484 110.202C288.87 110.384 289.178 110.641 289.407 110.974C289.636 111.304 289.767 111.691 289.799 112.133H288.416C288.36 111.837 288.227 111.591 288.016 111.394C287.808 111.194 287.53 111.094 287.181 111.094C286.885 111.094 286.625 111.174 286.402 111.334C286.178 111.491 286.003 111.717 285.878 112.013C285.755 112.309 285.694 112.663 285.694 113.076C285.694 113.495 285.755 113.854 285.878 114.155C286 114.454 286.172 114.684 286.394 114.847C286.617 115.007 286.88 115.087 287.181 115.087C287.394 115.087 287.585 115.047 287.752 114.967C287.923 114.884 288.066 114.766 288.18 114.611C288.295 114.456 288.373 114.269 288.416 114.047H289.799C289.764 114.482 289.636 114.867 289.415 115.203C289.194 115.536 288.893 115.797 288.512 115.986C288.131 116.172 287.683 116.266 287.169 116.266ZM293.705 116.266C293.089 116.266 292.558 116.138 292.11 115.882C291.665 115.624 291.323 115.258 291.083 114.787C290.843 114.313 290.723 113.754 290.723 113.112C290.723 112.481 290.843 111.926 291.083 111.449C291.325 110.97 291.664 110.597 292.098 110.33C292.532 110.061 293.043 109.927 293.629 109.927C294.007 109.927 294.364 109.988 294.7 110.111C295.038 110.23 295.337 110.417 295.595 110.67C295.856 110.923 296.062 111.246 296.211 111.637C296.36 112.026 296.435 112.49 296.435 113.028V113.472H291.403V112.497H295.048C295.045 112.22 294.985 111.973 294.868 111.757C294.751 111.539 294.587 111.367 294.376 111.242C294.168 111.116 293.926 111.054 293.649 111.054C293.353 111.054 293.093 111.126 292.869 111.27C292.646 111.411 292.471 111.597 292.346 111.829C292.223 112.058 292.161 112.31 292.158 112.585V113.436C292.158 113.793 292.223 114.099 292.354 114.355C292.484 114.608 292.667 114.803 292.901 114.939C293.136 115.072 293.41 115.139 293.725 115.139C293.935 115.139 294.126 115.109 294.296 115.051C294.467 114.989 294.615 114.9 294.74 114.783C294.865 114.666 294.96 114.52 295.024 114.347L296.375 114.499C296.289 114.856 296.127 115.168 295.887 115.434C295.65 115.698 295.346 115.903 294.976 116.05C294.605 116.194 294.182 116.266 293.705 116.266Z" fill="#F6F8FF"/>
<rect x="105.887" y="133.041" width="239.733" height="6.75304" rx="3.37652" fill="white" fill-opacity="0.12"/>
<rect x="105.887" y="133.041" width="216.097" height="6.75304" rx="3.37652" fill="#FB486C"/>
<rect x="92.3809" y="133.041" width="193.587" height="6.75304" rx="3.37652" fill="#b96c33"/>
</svg>
