<svg width="438" height="210" viewBox="0 0 438 210" fill="none" xmlns="http://www.w3.org/2000/svg">
<rect x="105" y="110" width="229" height="43" rx="9.23496" fill="#38488F"/>
<rect x="95" y="89" width="250" height="50" rx="9.23496" fill="#212A51"/>
<rect x="81" y="58" width="277" height="68" rx="14" fill="#0B0F20"/>
<circle cx="342.5" cy="72.5" r="9.5" fill="#b96c33"/>
<path d="M341.092 75.9483L338.277 73.1335L339.263 72.1483L341.092 73.9779L345.737 69.3335L346.722 70.3187L341.092 75.9483Z" fill="#F6F8FF"/>
<rect x="175" y="78" width="110.069" height="29.384" rx="5.03725" fill="#232E5B"/>
<rect x="175.42" y="78.4198" width="109.229" height="26.0258" rx="4.61748" fill="#445187" stroke="#232E5B" stroke-width="0.839542"/>
<path d="M137.11 89.7266C137.077 89.4164 136.937 89.175 136.691 89.0021C136.447 88.8293 136.13 88.7429 135.739 88.7429C135.465 88.7429 135.229 88.7843 135.033 88.8672C134.836 88.95 134.686 89.0625 134.582 89.2045C134.478 89.3466 134.424 89.5088 134.422 89.6911C134.422 89.8426 134.456 89.974 134.525 90.0852C134.596 90.1965 134.692 90.2912 134.813 90.3693C134.933 90.4451 135.067 90.509 135.214 90.5611C135.361 90.6132 135.509 90.657 135.658 90.6925L136.34 90.8629C136.614 90.9268 136.878 91.0133 137.131 91.1222C137.387 91.2311 137.616 91.3684 137.817 91.5341C138.02 91.6998 138.181 91.8999 138.3 92.1342C138.418 92.3686 138.477 92.6432 138.477 92.9581C138.477 93.3842 138.368 93.7595 138.151 94.0838C137.933 94.4058 137.618 94.6579 137.206 94.8402C136.796 95.0201 136.301 95.1101 135.718 95.1101C135.152 95.1101 134.661 95.0225 134.244 94.8473C133.83 94.6721 133.506 94.4164 133.271 94.0803C133.039 93.7441 132.914 93.3345 132.895 92.8516H134.191C134.21 93.1049 134.288 93.3156 134.426 93.4837C134.563 93.6518 134.742 93.7772 134.962 93.8601C135.184 93.9429 135.433 93.9844 135.707 93.9844C135.994 93.9844 136.245 93.9418 136.46 93.8565C136.678 93.7689 136.849 93.6482 136.972 93.4943C137.095 93.3381 137.158 93.1558 137.16 92.9474C137.158 92.758 137.102 92.6018 136.993 92.4787C136.884 92.3532 136.731 92.2491 136.535 92.1662C136.341 92.081 136.113 92.0052 135.853 91.9389L135.026 91.7259C134.427 91.572 133.953 91.3388 133.605 91.0263C133.26 90.7114 133.087 90.2936 133.087 89.7727C133.087 89.3442 133.203 88.969 133.435 88.647C133.669 88.325 133.988 88.0753 134.39 87.8977C134.792 87.7178 135.248 87.6278 135.757 87.6278C136.273 87.6278 136.725 87.7178 137.114 87.8977C137.504 88.0753 137.811 88.3227 138.033 88.6399C138.256 88.9548 138.371 89.317 138.378 89.7266H137.11ZM142.01 95.1065C141.463 95.1065 140.991 94.9929 140.593 94.7656C140.198 94.536 139.893 94.2116 139.68 93.7926C139.467 93.3712 139.361 92.8752 139.361 92.3047C139.361 91.7436 139.467 91.2512 139.68 90.8274C139.896 90.4013 140.196 90.0698 140.582 89.8331C140.968 89.594 141.422 89.4744 141.942 89.4744C142.279 89.4744 142.596 89.5289 142.894 89.6378C143.195 89.7443 143.46 89.91 143.69 90.1349C143.922 90.3598 144.104 90.6463 144.236 90.9943C144.369 91.34 144.435 91.7519 144.435 92.2301V92.6243H139.964V91.7578H143.203C143.201 91.5116 143.147 91.2926 143.043 91.1009C142.939 90.9067 142.793 90.754 142.606 90.6428C142.422 90.5315 142.206 90.4759 141.96 90.4759C141.697 90.4759 141.467 90.5398 141.268 90.6676C141.069 90.7931 140.914 90.9588 140.802 91.1648C140.694 91.3684 140.638 91.5921 140.636 91.8359V92.5923C140.636 92.9096 140.694 93.1818 140.81 93.4091C140.926 93.634 141.088 93.8068 141.296 93.9276C141.504 94.0459 141.748 94.1051 142.028 94.1051C142.215 94.1051 142.384 94.0791 142.535 94.027C142.687 93.9725 142.818 93.8932 142.93 93.7891C143.041 93.6849 143.125 93.5559 143.182 93.402L144.382 93.5369C144.306 93.8542 144.162 94.1312 143.949 94.3679C143.738 94.6023 143.468 94.7846 143.139 94.9148C142.81 95.0426 142.434 95.1065 142.01 95.1065ZM146.808 91.804V95H145.523V89.5455H146.752V90.4723H146.815C146.941 90.1669 147.141 89.9242 147.416 89.7443C147.693 89.5644 148.035 89.4744 148.442 89.4744C148.818 89.4744 149.146 89.5549 149.426 89.7159C149.707 89.8769 149.925 90.1101 150.079 90.4155C150.235 90.7209 150.312 91.0914 150.31 91.527V95H149.024V91.7259C149.024 91.3613 148.93 91.076 148.74 90.87C148.553 90.6641 148.294 90.5611 147.962 90.5611C147.738 90.5611 147.537 90.6108 147.362 90.7102C147.189 90.8073 147.053 90.9482 146.954 91.1328C146.857 91.3175 146.808 91.5412 146.808 91.804ZM153.641 95.0959C153.212 95.0959 152.829 94.9858 152.49 94.7656C152.152 94.5455 151.884 94.2259 151.688 93.8068C151.491 93.3878 151.393 92.8788 151.393 92.2798C151.393 91.6738 151.492 91.1624 151.691 90.7457C151.892 90.3267 152.163 90.0107 152.504 89.7976C152.845 89.5821 153.225 89.4744 153.644 89.4744C153.964 89.4744 154.227 89.5289 154.433 89.6378C154.639 89.7443 154.802 89.8733 154.923 90.0249C155.043 90.174 155.137 90.3149 155.203 90.4474H155.256V87.7273H156.546V95H155.281V94.1406H155.203C155.137 94.2732 155.041 94.4141 154.916 94.5632C154.79 94.71 154.624 94.8355 154.418 94.9396C154.212 95.0438 153.953 95.0959 153.641 95.0959ZM153.999 94.0412C154.272 94.0412 154.504 93.9678 154.695 93.821C154.887 93.6719 155.033 93.4647 155.132 93.1996C155.232 92.9344 155.281 92.6255 155.281 92.2727C155.281 91.92 155.232 91.6134 155.132 91.353C155.035 91.0926 154.891 90.8902 154.699 90.7457C154.51 90.6013 154.276 90.5291 153.999 90.5291C153.713 90.5291 153.474 90.6037 153.282 90.7528C153.09 90.902 152.946 91.108 152.849 91.3707C152.752 91.6335 152.703 91.9342 152.703 92.2727C152.703 92.6136 152.752 92.9179 152.849 93.1854C152.948 93.4505 153.094 93.66 153.286 93.8139C153.48 93.9654 153.718 94.0412 153.999 94.0412ZM163.12 89.5455V90.5398H159.984V89.5455H163.12ZM160.758 88.2386H162.044V93.3594C162.044 93.5322 162.07 93.6648 162.122 93.7571C162.176 93.8471 162.247 93.9086 162.335 93.9418C162.422 93.9749 162.519 93.9915 162.626 93.9915C162.706 93.9915 162.78 93.9856 162.846 93.9737C162.915 93.9619 162.967 93.9512 163.002 93.9418L163.219 94.9467C163.15 94.9704 163.052 94.9964 162.924 95.0249C162.799 95.0533 162.645 95.0698 162.463 95.0746C162.141 95.084 161.851 95.0355 161.593 94.929C161.335 94.8201 161.13 94.652 160.978 94.4247C160.829 94.1974 160.756 93.9134 160.758 93.5724V88.2386ZM166.515 95.1065C165.983 95.1065 165.521 94.9893 165.13 94.755C164.74 94.5206 164.437 94.1927 164.221 93.7713C164.008 93.3499 163.902 92.8575 163.902 92.294C163.902 91.7306 164.008 91.237 164.221 90.8132C164.437 90.3894 164.74 90.0604 165.13 89.826C165.521 89.5916 165.983 89.4744 166.515 89.4744C167.048 89.4744 167.51 89.5916 167.9 89.826C168.291 90.0604 168.593 90.3894 168.806 90.8132C169.021 91.237 169.129 91.7306 169.129 92.294C169.129 92.8575 169.021 93.3499 168.806 93.7713C168.593 94.1927 168.291 94.5206 167.9 94.755C167.51 94.9893 167.048 95.1065 166.515 95.1065ZM166.522 94.0767C166.811 94.0767 167.053 93.9974 167.247 93.8388C167.441 93.6778 167.585 93.4624 167.68 93.1925C167.777 92.9226 167.826 92.6219 167.826 92.2905C167.826 91.9567 167.777 91.6548 167.68 91.3849C167.585 91.1127 167.441 90.8961 167.247 90.7351C167.053 90.5741 166.811 90.4936 166.522 90.4936C166.227 90.4936 165.98 90.5741 165.784 90.7351C165.59 90.8961 165.444 91.1127 165.347 91.3849C165.252 91.6548 165.205 91.9567 165.205 92.2905C165.205 92.6219 165.252 92.9226 165.347 93.1925C165.444 93.4624 165.59 93.6778 165.784 93.8388C165.98 93.9974 166.227 94.0767 166.522 94.0767Z" fill="#F6F8FF"/>
<path d="M297.774 87.7273V95H296.457V89.0092H296.414L294.713 90.0959V88.8885L296.521 87.7273H297.774ZM301.659 95.0959C301.231 95.0959 300.847 94.9858 300.509 94.7656C300.17 94.5455 299.903 94.2259 299.706 93.8068C299.51 93.3878 299.411 92.8788 299.411 92.2798C299.411 91.6738 299.511 91.1624 299.71 90.7457C299.911 90.3267 300.182 90.0107 300.523 89.7976C300.864 89.5821 301.244 89.4744 301.663 89.4744C301.982 89.4744 302.245 89.5289 302.451 89.6378C302.657 89.7443 302.82 89.8733 302.941 90.0249C303.062 90.174 303.155 90.3149 303.222 90.4474H303.275V87.7273H304.564V95H303.3V94.1406H303.222C303.155 94.2732 303.06 94.4141 302.934 94.5632C302.809 94.71 302.643 94.8355 302.437 94.9396C302.231 95.0438 301.972 95.0959 301.659 95.0959ZM302.018 94.0412C302.29 94.0412 302.522 93.9678 302.714 93.821C302.906 93.6719 303.051 93.4647 303.151 93.1996C303.25 92.9344 303.3 92.6255 303.3 92.2727C303.3 91.92 303.25 91.6134 303.151 91.353C303.054 91.0926 302.909 90.8902 302.718 90.7457C302.528 90.6013 302.295 90.5291 302.018 90.5291C301.731 90.5291 301.492 90.6037 301.301 90.7528C301.109 90.902 300.964 91.108 300.867 91.3707C300.77 91.6335 300.722 91.9342 300.722 92.2727C300.722 92.6136 300.77 92.9179 300.867 93.1854C300.967 93.4505 301.112 93.66 301.304 93.8139C301.498 93.9654 301.736 94.0412 302.018 94.0412ZM309.984 95.1101C309.638 95.1101 309.327 95.0485 309.05 94.9254C308.775 94.8 308.558 94.6153 308.397 94.3714C308.238 94.1276 308.159 93.8269 308.159 93.4695C308.159 93.1617 308.216 92.9072 308.329 92.706C308.443 92.5047 308.598 92.3438 308.794 92.223C308.991 92.1023 309.212 92.0111 309.458 91.9496C309.707 91.8857 309.964 91.8395 310.229 91.8111C310.549 91.7779 310.808 91.7483 311.007 91.7223C311.206 91.6939 311.35 91.6513 311.44 91.5945C311.532 91.5353 311.578 91.4441 311.578 91.321V91.2997C311.578 91.0322 311.499 90.825 311.341 90.6783C311.182 90.5315 310.953 90.4581 310.655 90.4581C310.34 90.4581 310.091 90.5268 309.906 90.6641C309.724 90.8014 309.6 90.9635 309.537 91.1506L308.336 90.9801C308.431 90.6487 308.587 90.3717 308.805 90.1491C309.023 89.9242 309.289 89.7562 309.604 89.6449C309.919 89.5312 310.267 89.4744 310.648 89.4744C310.911 89.4744 311.172 89.5052 311.433 89.5668C311.693 89.6283 311.931 89.7301 312.147 89.8722C312.362 90.0118 312.535 90.2024 312.665 90.4439C312.798 90.6854 312.864 90.9872 312.864 91.3494V95H311.628V94.2507H311.586C311.507 94.4022 311.397 94.5443 311.255 94.6768C311.116 94.8071 310.939 94.9124 310.726 94.9929C310.516 95.071 310.268 95.1101 309.984 95.1101ZM310.318 94.1655C310.576 94.1655 310.8 94.1146 310.989 94.0128C311.178 93.9086 311.324 93.7713 311.426 93.6009C311.53 93.4304 311.582 93.2446 311.582 93.0433V92.4006C311.542 92.4337 311.473 92.4645 311.376 92.4929C311.281 92.5213 311.175 92.5462 311.056 92.5675C310.938 92.5888 310.821 92.6077 310.705 92.6243C310.589 92.6409 310.488 92.6551 310.403 92.6669C310.211 92.6929 310.04 92.7356 309.888 92.7947C309.737 92.8539 309.617 92.9368 309.529 93.0433C309.442 93.1475 309.398 93.2824 309.398 93.4482C309.398 93.6849 309.484 93.8636 309.657 93.9844C309.83 94.1051 310.05 94.1655 310.318 94.1655ZM316.529 97.1591C316.067 97.1591 315.671 97.0964 315.339 96.9709C315.008 96.8478 314.741 96.6821 314.54 96.4737C314.339 96.2654 314.199 96.0346 314.121 95.7812L315.279 95.5007C315.331 95.6072 315.407 95.7126 315.506 95.8168C315.605 95.9233 315.739 96.0109 315.907 96.0795C316.078 96.1506 316.292 96.1861 316.55 96.1861C316.915 96.1861 317.217 96.0973 317.456 95.9197C317.695 95.7446 317.814 95.4557 317.814 95.0533V94.0199H317.75C317.684 94.1525 317.587 94.2886 317.459 94.4283C317.334 94.5679 317.167 94.6851 316.958 94.7798C316.752 94.8745 316.493 94.9219 316.181 94.9219C315.762 94.9219 315.382 94.8236 315.041 94.6271C314.702 94.4283 314.432 94.1323 314.231 93.7393C314.032 93.344 313.933 92.8492 313.933 92.255C313.933 91.656 314.032 91.1506 314.231 90.7386C314.432 90.3243 314.703 90.0107 315.044 89.7976C315.385 89.5821 315.765 89.4744 316.184 89.4744C316.504 89.4744 316.767 89.5289 316.973 89.6378C317.181 89.7443 317.347 89.8733 317.47 90.0249C317.593 90.174 317.686 90.3149 317.75 90.4474H317.821V89.5455H319.089V95.0888C319.089 95.5552 318.978 95.9411 318.755 96.2464C318.533 96.5518 318.229 96.7803 317.843 96.9318C317.457 97.0833 317.019 97.1591 316.529 97.1591ZM316.539 93.9134C316.812 93.9134 317.044 93.8471 317.235 93.7145C317.427 93.5819 317.573 93.3913 317.672 93.1428C317.772 92.8942 317.821 92.5959 317.821 92.2479C317.821 91.9046 317.772 91.6039 317.672 91.3459C317.575 91.0878 317.431 90.8878 317.239 90.7457C317.05 90.6013 316.816 90.5291 316.539 90.5291C316.253 90.5291 316.014 90.6037 315.822 90.7528C315.63 90.902 315.486 91.1068 315.389 91.3672C315.292 91.6252 315.243 91.9188 315.243 92.2479C315.243 92.5817 315.292 92.8741 315.389 93.125C315.488 93.3736 315.634 93.5677 315.826 93.7074C316.02 93.8447 316.258 93.9134 316.539 93.9134ZM322.786 95.1065C322.253 95.1065 321.792 94.9893 321.401 94.755C321.01 94.5206 320.707 94.1927 320.492 93.7713C320.279 93.3499 320.172 92.8575 320.172 92.294C320.172 91.7306 320.279 91.237 320.492 90.8132C320.707 90.3894 321.01 90.0604 321.401 89.826C321.792 89.5916 322.253 89.4744 322.786 89.4744C323.319 89.4744 323.78 89.5916 324.171 89.826C324.561 90.0604 324.863 90.3894 325.076 90.8132C325.292 91.237 325.4 91.7306 325.4 92.294C325.4 92.8575 325.292 93.3499 325.076 93.7713C324.863 94.1927 324.561 94.5206 324.171 94.755C323.78 94.9893 323.319 95.1065 322.786 95.1065ZM322.793 94.0767C323.082 94.0767 323.323 93.9974 323.517 93.8388C323.712 93.6778 323.856 93.4624 323.951 93.1925C324.048 92.9226 324.096 92.6219 324.096 92.2905C324.096 91.9567 324.048 91.6548 323.951 91.3849C323.856 91.1127 323.712 90.8961 323.517 90.7351C323.323 90.5741 323.082 90.4936 322.793 90.4936C322.497 90.4936 322.251 90.5741 322.054 90.7351C321.86 90.8961 321.715 91.1127 321.618 91.3849C321.523 91.6548 321.475 91.9567 321.475 92.2905C321.475 92.6219 321.523 92.9226 321.618 93.1925C321.715 93.4624 321.86 93.6778 322.054 93.8388C322.251 93.9974 322.497 94.0767 322.793 94.0767Z" fill="#F6F8FF"/>
<path d="M185.895 95.1101C185.367 95.1101 184.913 94.9905 184.532 94.7514C184.153 94.5099 183.862 94.1773 183.658 93.7536C183.454 93.3298 183.353 92.8445 183.353 92.2976C183.353 91.7436 183.457 91.2547 183.665 90.831C183.873 90.4048 184.167 90.0722 184.546 89.8331C184.925 89.594 185.371 89.4744 185.884 89.4744C186.299 89.4744 186.668 89.5514 186.992 89.7053C187.317 89.8568 187.578 90.0698 187.777 90.3445C187.978 90.6191 188.098 90.9399 188.136 91.3068H187.103C187.046 91.0511 186.916 90.831 186.712 90.6463C186.511 90.4616 186.241 90.3693 185.902 90.3693C185.606 90.3693 185.347 90.4474 185.125 90.6037C184.904 90.7576 184.733 90.9777 184.61 91.2642C184.487 91.5483 184.425 91.8845 184.425 92.2727C184.425 92.6705 184.485 93.0137 184.606 93.3026C184.727 93.5914 184.897 93.8151 185.117 93.9737C185.34 94.1323 185.602 94.2116 185.902 94.2116C186.103 94.2116 186.286 94.175 186.449 94.1016C186.615 94.0258 186.753 93.9181 186.865 93.7784C186.978 93.6387 187.058 93.4706 187.103 93.2741H188.136C188.098 93.6269 187.983 93.9418 187.791 94.2188C187.6 94.4957 187.343 94.7135 187.021 94.8722C186.701 95.0308 186.326 95.1101 185.895 95.1101ZM191.569 95.1101C191.058 95.1101 190.611 94.9929 190.23 94.7585C189.849 94.5241 189.553 94.1963 189.342 93.7749C189.132 93.3535 189.026 92.861 189.026 92.2976C189.026 91.7318 189.132 91.237 189.342 90.8132C189.553 90.3894 189.849 90.0604 190.23 89.826C190.611 89.5916 191.058 89.4744 191.569 89.4744C192.08 89.4744 192.527 89.5916 192.908 89.826C193.289 90.0604 193.585 90.3894 193.796 90.8132C194.006 91.237 194.112 91.7318 194.112 92.2976C194.112 92.861 194.006 93.3535 193.796 93.7749C193.585 94.1963 193.289 94.5241 192.908 94.7585C192.527 94.9929 192.08 95.1101 191.569 95.1101ZM191.573 94.2188C191.904 94.2188 192.179 94.1312 192.396 93.956C192.614 93.7808 192.775 93.5476 192.879 93.2564C192.986 92.9652 193.039 92.6444 193.039 92.294C193.039 91.946 192.986 91.6264 192.879 91.3352C192.775 91.0417 192.614 90.8061 192.396 90.6286C192.179 90.451 191.904 90.3622 191.573 90.3622C191.239 90.3622 190.962 90.451 190.742 90.6286C190.524 90.8061 190.362 91.0417 190.255 91.3352C190.151 91.6264 190.099 91.946 190.099 92.294C190.099 92.6444 190.151 92.9652 190.255 93.2564C190.362 93.5476 190.524 93.7808 190.742 93.956C190.962 94.1312 191.239 94.2188 191.573 94.2188ZM199.384 90.8771L198.422 91.0476C198.382 90.9245 198.318 90.8073 198.23 90.696C198.145 90.5848 198.029 90.4936 197.882 90.4226C197.735 90.3516 197.552 90.3161 197.332 90.3161C197.031 90.3161 196.78 90.3835 196.579 90.5185C196.378 90.651 196.277 90.8227 196.277 91.0334C196.277 91.2157 196.344 91.3625 196.479 91.4737C196.614 91.585 196.832 91.6761 197.133 91.7472L197.999 91.946C198.501 92.062 198.875 92.2408 199.121 92.4822C199.368 92.7237 199.491 93.0374 199.491 93.4233C199.491 93.75 199.396 94.0412 199.207 94.2969C199.02 94.5502 198.758 94.7491 198.422 94.8935C198.088 95.0379 197.701 95.1101 197.261 95.1101C196.65 95.1101 196.151 94.9799 195.766 94.7195C195.38 94.4567 195.143 94.0838 195.055 93.6009L196.082 93.4446C196.146 93.7121 196.277 93.9145 196.476 94.0518C196.675 94.1868 196.934 94.2543 197.253 94.2543C197.601 94.2543 197.88 94.1821 198.088 94.0376C198.296 93.8909 198.4 93.7121 198.4 93.5014C198.4 93.331 198.337 93.1877 198.209 93.0717C198.083 92.9557 197.89 92.8681 197.63 92.8089L196.707 92.6065C196.198 92.4905 195.821 92.3059 195.577 92.0526C195.336 91.7992 195.215 91.4785 195.215 91.0902C195.215 90.7682 195.305 90.4865 195.485 90.245C195.665 90.0036 195.914 89.8153 196.231 89.6804C196.548 89.5431 196.911 89.4744 197.321 89.4744C197.91 89.4744 198.374 89.6023 198.713 89.858C199.052 90.1113 199.275 90.451 199.384 90.8771ZM200.658 95V89.5455H201.677V90.4332H201.745C201.858 90.1326 202.044 89.8982 202.302 89.7301C202.56 89.5597 202.869 89.4744 203.229 89.4744C203.594 89.4744 203.899 89.5597 204.145 89.7301C204.394 89.9006 204.577 90.1349 204.696 90.4332H204.753C204.883 90.142 205.09 89.91 205.374 89.7372C205.658 89.562 205.997 89.4744 206.39 89.4744C206.884 89.4744 207.288 89.6295 207.601 89.9396C207.915 90.2498 208.073 90.7173 208.073 91.3423V95H207.011V91.4418C207.011 91.0724 206.91 90.8049 206.709 90.6392C206.508 90.4735 206.268 90.3906 205.988 90.3906C205.643 90.3906 205.374 90.4972 205.182 90.7102C204.991 90.9209 204.895 91.192 204.895 91.5234V95H203.836V91.3743C203.836 91.0784 203.744 90.8404 203.559 90.6605C203.375 90.4806 203.134 90.3906 202.839 90.3906C202.637 90.3906 202.451 90.4439 202.281 90.5504C202.113 90.6546 201.977 90.8002 201.873 90.9872C201.771 91.1742 201.72 91.3909 201.72 91.6371V95H200.658ZM211.794 95.1101C211.282 95.1101 210.836 94.9929 210.455 94.7585C210.074 94.5241 209.778 94.1963 209.567 93.7749C209.356 93.3535 209.251 92.861 209.251 92.2976C209.251 91.7318 209.356 91.237 209.567 90.8132C209.778 90.3894 210.074 90.0604 210.455 89.826C210.836 89.5916 211.282 89.4744 211.794 89.4744C212.305 89.4744 212.751 89.5916 213.132 89.826C213.514 90.0604 213.809 90.3894 214.02 90.8132C214.231 91.237 214.336 91.7318 214.336 92.2976C214.336 92.861 214.231 93.3535 214.02 93.7749C213.809 94.1963 213.514 94.5241 213.132 94.7585C212.751 94.9929 212.305 95.1101 211.794 95.1101ZM211.797 94.2188C212.129 94.2188 212.403 94.1312 212.621 93.956C212.839 93.7808 213 93.5476 213.104 93.2564C213.21 92.9652 213.264 92.6444 213.264 92.294C213.264 91.946 213.21 91.6264 213.104 91.3352C213 91.0417 212.839 90.8061 212.621 90.6286C212.403 90.451 212.129 90.3622 211.797 90.3622C211.463 90.3622 211.186 90.451 210.966 90.6286C210.748 90.8061 210.586 91.0417 210.48 91.3352C210.376 91.6264 210.323 91.946 210.323 92.294C210.323 92.6444 210.376 92.9652 210.48 93.2564C210.586 93.5476 210.748 93.7808 210.966 93.956C211.186 94.1312 211.463 94.2188 211.797 94.2188ZM219.609 90.8771L218.646 91.0476C218.606 90.9245 218.542 90.8073 218.455 90.696C218.369 90.5848 218.253 90.4936 218.107 90.4226C217.96 90.3516 217.776 90.3161 217.556 90.3161C217.256 90.3161 217.005 90.3835 216.803 90.5185C216.602 90.651 216.502 90.8227 216.502 91.0334C216.502 91.2157 216.569 91.3625 216.704 91.4737C216.839 91.585 217.057 91.6761 217.357 91.7472L218.224 91.946C218.726 92.062 219.1 92.2408 219.346 92.4822C219.592 92.7237 219.715 93.0374 219.715 93.4233C219.715 93.75 219.621 94.0412 219.431 94.2969C219.244 94.5502 218.983 94.7491 218.646 94.8935C218.313 95.0379 217.926 95.1101 217.485 95.1101C216.874 95.1101 216.376 94.9799 215.99 94.7195C215.604 94.4567 215.368 94.0838 215.28 93.6009L216.306 93.4446C216.37 93.7121 216.502 93.9145 216.7 94.0518C216.899 94.1868 217.158 94.2543 217.478 94.2543C217.826 94.2543 218.104 94.1821 218.313 94.0376C218.521 93.8909 218.625 93.7121 218.625 93.5014C218.625 93.331 218.561 93.1877 218.433 93.0717C218.308 92.9557 218.115 92.8681 217.854 92.8089L216.931 92.6065C216.422 92.4905 216.046 92.3059 215.802 92.0526C215.56 91.7992 215.44 91.4785 215.44 91.0902C215.44 90.7682 215.53 90.4865 215.71 90.245C215.89 90.0036 216.138 89.8153 216.455 89.6804C216.773 89.5431 217.136 89.4744 217.546 89.4744C218.135 89.4744 218.599 89.6023 218.938 89.858C219.276 90.1113 219.5 90.451 219.609 90.8771ZM223.628 87.7273V95H222.527V88.8281H222.484L220.744 89.9645V88.9134L222.559 87.7273H223.628ZM227.96 95.1101C227.423 95.1101 226.96 94.9953 226.572 94.7656C226.186 94.5336 225.887 94.2081 225.677 93.7891C225.468 93.3677 225.364 92.8741 225.364 92.3082C225.364 91.7495 225.468 91.2571 225.677 90.831C225.887 90.4048 226.181 90.0722 226.557 89.8331C226.936 89.594 227.379 89.4744 227.886 89.4744C228.193 89.4744 228.492 89.5253 228.78 89.6271C229.069 89.7289 229.329 89.8887 229.558 90.1065C229.788 90.3243 229.969 90.6072 230.101 90.9553C230.234 91.3009 230.3 91.7211 230.3 92.2159V92.5923H225.964V91.7969H229.26C229.26 91.5175 229.203 91.2701 229.089 91.0547C228.976 90.8369 228.816 90.6652 228.61 90.5398C228.406 90.4143 228.167 90.3516 227.893 90.3516C227.594 90.3516 227.334 90.425 227.111 90.5717C226.891 90.7161 226.721 90.9055 226.6 91.1399C226.482 91.3719 226.422 91.6241 226.422 91.8963V92.5178C226.422 92.8823 226.486 93.1925 226.614 93.4482C226.744 93.7038 226.926 93.8991 227.158 94.0341C227.39 94.1667 227.661 94.233 227.971 94.233C228.172 94.233 228.355 94.2045 228.521 94.1477C228.687 94.0885 228.83 94.0009 228.951 93.8849C229.072 93.7689 229.164 93.6257 229.228 93.4553L230.233 93.6364C230.152 93.9323 230.008 94.1915 229.8 94.4141C229.594 94.6342 229.334 94.8059 229.022 94.929C228.712 95.0497 228.358 95.1101 227.96 95.1101ZM232.19 89.5455L233.393 91.669L234.608 89.5455H235.769L234.068 92.2727L235.783 95H234.622L233.393 92.9616L232.168 95H231.003L232.701 92.2727L231.025 89.5455H232.19ZM237.559 95.0675C237.365 95.0675 237.198 94.9988 237.058 94.8615C236.918 94.7218 236.849 94.5537 236.849 94.3572C236.849 94.1631 236.918 93.9974 237.058 93.8601C237.198 93.7204 237.365 93.6506 237.559 93.6506C237.753 93.6506 237.92 93.7204 238.06 93.8601C238.199 93.9974 238.269 94.1631 238.269 94.3572C238.269 94.4875 238.236 94.607 238.17 94.7159C238.106 94.8224 238.021 94.9077 237.914 94.9716C237.807 95.0355 237.689 95.0675 237.559 95.0675ZM240.391 95.0675C240.197 95.0675 240.03 94.9988 239.89 94.8615C239.751 94.7218 239.681 94.5537 239.681 94.3572C239.681 94.1631 239.751 93.9974 239.89 93.8601C240.03 93.7204 240.197 93.6506 240.391 93.6506C240.585 93.6506 240.752 93.7204 240.892 93.8601C241.031 93.9974 241.101 94.1631 241.101 94.3572C241.101 94.4875 241.068 94.607 241.002 94.7159C240.938 94.8224 240.853 94.9077 240.746 94.9716C240.639 95.0355 240.521 95.0675 240.391 95.0675ZM243.223 95.0675C243.029 95.0675 242.862 94.9988 242.722 94.8615C242.583 94.7218 242.513 94.5537 242.513 94.3572C242.513 94.1631 242.583 93.9974 242.722 93.8601C242.862 93.7204 243.029 93.6506 243.223 93.6506C243.417 93.6506 243.584 93.7204 243.724 93.8601C243.863 93.9974 243.933 94.1631 243.933 94.3572C243.933 94.4875 243.9 94.607 243.834 94.7159C243.77 94.8224 243.685 94.9077 243.578 94.9716C243.472 95.0355 243.353 95.0675 243.223 95.0675ZM249.443 90.8771L248.48 91.0476C248.44 90.9245 248.376 90.8073 248.289 90.696C248.203 90.5848 248.087 90.4936 247.941 90.4226C247.794 90.3516 247.61 90.3161 247.39 90.3161C247.09 90.3161 246.839 90.3835 246.637 90.5185C246.436 90.651 246.335 90.8227 246.335 91.0334C246.335 91.2157 246.403 91.3625 246.538 91.4737C246.673 91.585 246.891 91.6761 247.191 91.7472L248.058 91.946C248.56 92.062 248.934 92.2408 249.18 92.4822C249.426 92.7237 249.549 93.0374 249.549 93.4233C249.549 93.75 249.455 94.0412 249.265 94.2969C249.078 94.5502 248.817 94.7491 248.48 94.8935C248.147 95.0379 247.759 95.1101 247.319 95.1101C246.708 95.1101 246.21 94.9799 245.824 94.7195C245.438 94.4567 245.201 94.0838 245.114 93.6009L246.14 93.4446C246.204 93.7121 246.335 93.9145 246.534 94.0518C246.733 94.1868 246.992 94.2543 247.312 94.2543C247.66 94.2543 247.938 94.1821 248.147 94.0376C248.355 93.8909 248.459 93.7121 248.459 93.5014C248.459 93.331 248.395 93.1877 248.267 93.0717C248.142 92.9557 247.949 92.8681 247.688 92.8089L246.765 92.6065C246.256 92.4905 245.88 92.3059 245.636 92.0526C245.394 91.7992 245.274 91.4785 245.274 91.0902C245.274 90.7682 245.364 90.4865 245.544 90.245C245.724 90.0036 245.972 89.8153 246.289 89.6804C246.607 89.5431 246.97 89.4744 247.38 89.4744C247.969 89.4744 248.433 89.6023 248.772 89.858C249.11 90.1113 249.334 90.451 249.443 90.8771ZM250.717 95V89.5455H251.743V90.4119H251.8C251.899 90.1184 252.074 89.8875 252.325 89.7195C252.579 89.549 252.865 89.4638 253.185 89.4638C253.251 89.4638 253.329 89.4661 253.419 89.4709C253.511 89.4756 253.584 89.4815 253.636 89.4886V90.5043C253.593 90.4924 253.517 90.4794 253.408 90.4652C253.3 90.4486 253.191 90.4403 253.082 90.4403C252.831 90.4403 252.607 90.4936 252.411 90.6001C252.216 90.7043 252.063 90.8499 251.949 91.0369C251.835 91.2216 251.778 91.4323 251.778 91.669V95H250.717ZM255.559 89.5455L256.763 91.669L257.977 89.5455H259.138L257.437 92.2727L259.152 95H257.991L256.763 92.9616L255.537 95H254.373L256.07 92.2727L254.394 89.5455H255.559ZM262.746 95.0994C262.258 95.0994 261.823 95.0154 261.439 94.8473C261.058 94.6792 260.756 94.446 260.534 94.1477C260.314 93.8471 260.195 93.4991 260.179 93.1037H261.294C261.308 93.3191 261.38 93.5062 261.51 93.6648C261.643 93.821 261.816 93.9418 262.029 94.027C262.242 94.1122 262.479 94.1548 262.739 94.1548C263.026 94.1548 263.279 94.1051 263.499 94.0057C263.722 93.9062 263.896 93.7678 264.021 93.5902C264.147 93.4103 264.209 93.2031 264.209 92.9688C264.209 92.7249 264.147 92.5107 264.021 92.326C263.898 92.139 263.717 91.9922 263.478 91.8857C263.241 91.7791 262.955 91.7259 262.618 91.7259H262.004V90.831H262.618C262.888 90.831 263.125 90.7824 263.329 90.6854C263.535 90.5883 263.696 90.4534 263.812 90.2805C263.928 90.1054 263.986 89.9006 263.986 89.6662C263.986 89.4413 263.935 89.246 263.833 89.0803C263.733 88.9122 263.591 88.7808 263.407 88.6861C263.224 88.5914 263.009 88.544 262.76 88.544C262.524 88.544 262.302 88.5878 262.096 88.6754C261.893 88.7607 261.727 88.8838 261.599 89.0447C261.471 89.2034 261.403 89.3939 261.393 89.6165H260.331C260.343 89.2235 260.459 88.8778 260.679 88.5795C260.902 88.2812 261.196 88.0481 261.56 87.88C261.925 87.7119 262.33 87.6278 262.775 87.6278C263.241 87.6278 263.643 87.719 263.982 87.9013C264.323 88.0812 264.586 88.3215 264.77 88.6222C264.957 88.9228 265.05 89.2519 265.047 89.6094C265.05 90.0166 264.936 90.3622 264.706 90.6463C264.479 90.9304 264.176 91.121 263.797 91.218V91.2749C264.28 91.3482 264.654 91.54 264.919 91.8501C265.187 92.1603 265.32 92.545 265.317 93.0043C265.32 93.4044 265.208 93.763 264.983 94.0803C264.761 94.3975 264.457 94.6473 264.071 94.8295C263.685 95.0095 263.243 95.0994 262.746 95.0994ZM269.419 87.7273V95H268.318V88.8281H268.275L266.535 89.9645V88.9134L268.35 87.7273H269.419Z" fill="white"/>
<g clip-path="url(#clip0_396_6043)">
<rect x="91" y="77" width="31.9028" height="31.9028" rx="15.9514" fill="#546198" fill-opacity="0.8"/>
<g clip-path="url(#clip1_396_6043)">
<circle cx="106.951" cy="92.9516" r="21.2685" fill="url(#paint0_radial_396_6043)"/>
<path fill-rule="evenodd" clip-rule="evenodd" d="M106.922 84.2036C111.754 84.2036 115.67 88.1201 115.67 92.9513C115.67 97.7825 111.754 101.699 106.922 101.699C102.091 101.699 98.1748 97.7825 98.1748 92.9513C98.1748 88.1201 102.091 84.2036 106.922 84.2036Z" fill="url(#paint1_radial_396_6043)"/>
<path fill-rule="evenodd" clip-rule="evenodd" d="M108.325 102.387C108.778 100.41 109.093 97.641 109.17 94.5107L109.864 94.5276C109.787 97.688 109.469 100.506 109.002 102.542C108.769 103.558 108.496 104.397 108.186 104.991C108.032 105.288 107.86 105.54 107.666 105.723C107.47 105.907 107.23 106.039 106.951 106.039C106.631 106.039 106.363 105.866 106.151 105.638C105.939 105.409 105.75 105.09 105.581 104.713C105.241 103.957 104.945 102.887 104.704 101.598L105.387 101.471C105.623 102.736 105.907 103.745 106.214 104.429C106.369 104.772 106.52 105.014 106.661 105.166C106.802 105.318 106.899 105.345 106.951 105.345C106.997 105.345 107.075 105.325 107.19 105.217C107.306 105.108 107.435 104.93 107.57 104.671C107.84 104.153 108.098 103.379 108.325 102.387Z" fill="url(#paint2_linear_396_6043)"/>
<path fill-rule="evenodd" clip-rule="evenodd" d="M105.794 82.8398C105.379 84.2933 105.049 86.3633 104.867 88.7938L104.175 88.7422C104.358 86.2861 104.693 84.1648 105.126 82.6488C105.342 81.8934 105.588 81.2686 105.864 80.825C106.126 80.403 106.483 80.0383 106.951 80.0383C107.23 80.0383 107.47 80.1707 107.666 80.3546C107.86 80.5372 108.032 80.7898 108.187 81.0864C108.496 81.6804 108.77 82.5201 109.003 83.5355C109.469 85.5719 109.787 88.3897 109.864 91.5502L109.17 91.5671C109.094 88.4368 108.779 85.6681 108.325 83.6907C108.098 82.6992 107.84 81.9251 107.571 81.4072C107.436 81.1477 107.306 80.9697 107.19 80.8607C107.076 80.7531 106.997 80.7329 106.951 80.7329C106.87 80.7329 106.694 80.8052 106.454 81.1914C106.227 81.5559 106.003 82.1104 105.794 82.8398Z" fill="url(#paint3_linear_396_6043)"/>
<path fill-rule="evenodd" clip-rule="evenodd" d="M104.868 88.7938C104.769 90.119 104.715 91.5482 104.715 93.0386C104.715 96.2923 104.973 99.2504 105.388 101.47L104.705 101.598C104.281 99.3266 104.021 96.3245 104.021 93.0386C104.021 91.5316 104.075 90.0852 104.175 88.7422L104.868 88.7938Z" fill="url(#paint4_linear_396_6043)"/>
<path fill-rule="evenodd" clip-rule="evenodd" d="M104.543 94.2182C102.29 92.8426 100.344 91.4479 98.8979 90.2153L98.4473 90.7439C99.9268 92.0053 101.905 93.421 104.181 94.811L104.543 94.2182Z" fill="url(#paint5_linear_396_6043)"/>
<path fill-rule="evenodd" clip-rule="evenodd" d="M114.347 98.9036C112.408 98.3075 109.853 97.1962 107.104 95.6971L106.771 96.3069C109.547 97.8204 112.146 98.9536 114.143 99.5675C115.138 99.8737 116.002 100.056 116.671 100.086C117.005 100.1 117.31 100.077 117.565 100C117.822 99.9229 118.057 99.781 118.197 99.5395C118.432 99.1321 118.293 98.6384 118.056 98.1986C117.807 97.7359 117.385 97.2076 116.834 96.6396C115.729 95.4997 114.046 94.1411 111.996 92.748L111.605 93.3226C113.634 94.7012 115.275 96.0298 116.336 97.1232C116.868 97.6718 117.24 98.1467 117.444 98.5276C117.661 98.9313 117.636 99.1215 117.595 99.1922C117.572 99.232 117.515 99.29 117.365 99.3354C117.213 99.3813 116.994 99.4043 116.702 99.3916C116.118 99.3662 115.319 99.2026 114.347 98.9036Z" fill="url(#paint6_linear_396_6043)"/>
<path fill-rule="evenodd" clip-rule="evenodd" d="M108.055 91.1012C109.326 91.8349 110.519 92.5844 111.604 93.3214L111.994 92.7468C110.895 92 109.688 91.2415 108.403 90.4997C105.362 88.7444 102.453 87.4079 100.207 86.6617C99.0861 86.2894 98.1132 86.0582 97.3637 86.0015C96.9899 85.9733 96.6515 85.9867 96.3707 86.06C96.0893 86.1334 95.8289 86.2776 95.6785 86.538C95.5172 86.8173 95.535 87.1388 95.6289 87.4384C95.7231 87.7391 95.9075 88.0644 96.1534 88.4031C96.6466 89.0825 97.4373 89.8825 98.4475 90.7438L98.8982 90.2152C97.9057 89.3691 97.1621 88.6102 96.7154 87.995C96.4913 87.6863 96.3543 87.4304 96.2916 87.2306C96.2286 87.0294 96.2537 86.9309 96.2801 86.8853C96.3047 86.8427 96.3691 86.7782 96.546 86.7321C96.7234 86.6858 96.9767 86.6688 97.3113 86.6941C97.9786 86.7445 98.8897 86.9561 99.9877 87.3208C102.178 88.0485 105.044 89.3625 108.055 91.1012Z" fill="url(#paint7_linear_396_6043)"/>
<path fill-rule="evenodd" clip-rule="evenodd" d="M107.196 90.3447C109.529 89.0761 111.721 88.0875 113.513 87.4581L113.282 86.8027C111.448 87.4472 109.222 88.4526 106.864 89.7345L107.196 90.3447Z" fill="url(#paint8_linear_396_6043)"/>
<path fill-rule="evenodd" clip-rule="evenodd" d="M98.1667 96.5375C99.6417 95.1633 101.867 93.514 104.524 91.8884L104.161 91.2959C101.479 92.9372 99.2126 94.6138 97.6932 96.0293C96.9356 96.7351 96.3496 97.3888 95.9927 97.9511C95.8145 98.2319 95.6829 98.506 95.6226 98.7646C95.5619 99.0251 95.5679 99.2984 95.7068 99.539C95.9417 99.9459 96.4378 100.072 96.936 100.088C97.46 100.104 98.1268 100.003 98.8923 99.811C100.428 99.4253 102.442 98.65 104.669 97.5742L104.366 96.9488C102.163 98.0134 100.196 98.7674 98.7231 99.1373C97.9839 99.3229 97.3884 99.4066 96.9574 99.3933C96.5006 99.3792 96.349 99.2623 96.3083 99.1918C96.2854 99.1521 96.2636 99.0743 96.2991 98.9223C96.335 98.7684 96.4234 98.5687 96.5791 98.3233C96.89 97.8335 97.427 97.2266 98.1667 96.5375Z" fill="url(#paint9_linear_396_6043)"/>
<path fill-rule="evenodd" clip-rule="evenodd" d="M108.084 94.9761C106.806 95.7139 105.554 96.3758 104.367 96.949L104.669 97.5744C105.872 96.9936 107.14 96.3237 108.432 95.5776C111.472 93.8223 114.084 91.971 115.854 90.3986C116.736 89.6143 117.423 88.8874 117.847 88.2666C118.058 87.957 118.216 87.6572 118.293 87.3774C118.37 87.0971 118.375 86.7993 118.225 86.539C118.065 86.2628 117.783 86.1175 117.48 86.0482C117.178 85.9787 116.81 85.9738 116.401 86.0147C115.581 86.0968 114.512 86.3722 113.283 86.8039L113.514 87.4592C114.72 87.0353 115.729 86.78 116.47 86.7058C116.842 86.6687 117.125 86.6793 117.325 86.7252C117.526 86.7712 117.597 86.8412 117.623 86.8863C117.648 86.9289 117.671 87.0169 117.623 87.1932C117.574 87.37 117.462 87.5978 117.273 87.875C116.896 88.4276 116.257 89.1109 115.392 89.8794C113.667 91.4125 111.096 93.2374 108.084 94.9761Z" fill="url(#paint10_linear_396_6043)"/>
<path d="M105.156 102.411C105.657 102.411 106.064 102.005 106.064 101.503C106.064 101.002 105.657 100.596 105.156 100.596C104.655 100.596 104.249 101.002 104.249 101.503C104.249 102.005 104.655 102.411 105.156 102.411Z" fill="#ECF0FA"/>
<path d="M97.9222 89.907C98.1727 89.4731 98.7276 89.3244 99.1616 89.5749C99.5956 89.8255 99.7442 90.3804 99.4937 90.8143C99.2431 91.2483 98.6882 91.397 98.2543 91.1464C97.8203 90.8959 97.6716 90.341 97.9222 89.907Z" fill="#ECF0FA"/>
<path d="M114.184 86.7974C114.435 87.2313 114.286 87.7862 113.852 88.0368C113.418 88.2873 112.863 88.1387 112.613 87.7047C112.362 87.2707 112.511 86.7158 112.945 86.4653C113.379 86.2147 113.934 86.3634 114.184 86.7974Z" fill="#ECF0FA"/>
<path fill-rule="evenodd" clip-rule="evenodd" d="M106.953 91.4585C107.825 91.4585 108.532 92.1657 108.532 93.0381C108.532 93.9105 107.825 94.6177 106.953 94.6177C106.08 94.6177 105.373 93.9105 105.373 93.0381C105.373 92.1657 106.08 91.4585 106.953 91.4585Z" fill="#ECF0FA"/>
</g>
</g>
<defs>
<radialGradient id="paint0_radial_396_6043" cx="0" cy="0" r="1" gradientUnits="userSpaceOnUse" gradientTransform="translate(106.951 92.9516) rotate(90) scale(21.2685)">
<stop stop-color="#3B4C8F"/>
<stop offset="1" stop-color="#151C38"/>
</radialGradient>
<radialGradient id="paint1_radial_396_6043" cx="0" cy="0" r="1" gradientUnits="userSpaceOnUse" gradientTransform="translate(106.922 92.9513) rotate(90) scale(8.74769 8.74767)">
<stop stop-color="#101344"/>
<stop offset="1" stop-color="#2A2D57"/>
</radialGradient>
<linearGradient id="paint2_linear_396_6043" x1="107.284" y1="106.039" x2="110.64" y2="94.7412" gradientUnits="userSpaceOnUse">
<stop offset="0.377307" stop-color="white" stop-opacity="0.6"/>
<stop offset="0.992239" stop-color="white" stop-opacity="0"/>
</linearGradient>
<linearGradient id="paint3_linear_396_6043" x1="107.02" y1="80.0383" x2="111.348" y2="90.9838" gradientUnits="userSpaceOnUse">
<stop offset="0.634963" stop-color="white" stop-opacity="0.81"/>
<stop offset="1" stop-color="white" stop-opacity="0"/>
</linearGradient>
<linearGradient id="paint4_linear_396_6043" x1="105.374" y1="88.7422" x2="105.374" y2="101.613" gradientUnits="userSpaceOnUse">
<stop stop-color="white" stop-opacity="0.81"/>
<stop offset="0.646422" stop-color="white"/>
</linearGradient>
<linearGradient id="paint5_linear_396_6043" x1="98.9167" y1="90.1255" x2="104.593" y2="94.1293" gradientUnits="userSpaceOnUse">
<stop stop-color="white" stop-opacity="0.6"/>
<stop offset="1" stop-color="white" stop-opacity="0"/>
</linearGradient>
<linearGradient id="paint6_linear_396_6043" x1="118.859" y1="99.4943" x2="106.273" y2="97.3999" gradientUnits="userSpaceOnUse">
<stop offset="0.60731" stop-color="white" stop-opacity="0.81"/>
<stop offset="1" stop-color="white" stop-opacity="0"/>
</linearGradient>
<linearGradient id="paint7_linear_396_6043" x1="111.658" y1="92.6273" x2="95.3209" y2="86.5698" gradientUnits="userSpaceOnUse">
<stop stop-color="white" stop-opacity="0.81"/>
<stop offset="0.478389" stop-color="white"/>
</linearGradient>
<linearGradient id="paint8_linear_396_6043" x1="113.642" y1="87.5067" x2="106.836" y2="90.6692" gradientUnits="userSpaceOnUse">
<stop stop-color="white" stop-opacity="0.6"/>
<stop offset="1" stop-color="white" stop-opacity="0"/>
</linearGradient>
<linearGradient id="paint9_linear_396_6043" x1="95.3289" y1="99.5852" x2="103.849" y2="90.7" gradientUnits="userSpaceOnUse">
<stop offset="0.54518" stop-color="white" stop-opacity="0.81"/>
<stop offset="1" stop-color="white" stop-opacity="0"/>
</linearGradient>
<linearGradient id="paint10_linear_396_6043" x1="118.575" y1="86.2171" x2="104.818" y2="97.6594" gradientUnits="userSpaceOnUse">
<stop offset="0.518582" stop-color="white"/>
<stop offset="1" stop-color="white" stop-opacity="0.81"/>
</linearGradient>
<clipPath id="clip0_396_6043">
<rect x="91" y="77" width="31.9028" height="31.9028" rx="15.9514" fill="white"/>
</clipPath>
<clipPath id="clip1_396_6043">
<rect width="42.537" height="42.537" fill="white" transform="translate(85.6826 71.6831)"/>
</clipPath>
</defs>
</svg>
