<svg width="438" height="210" viewBox="0 0 438 210" fill="none" xmlns="http://www.w3.org/2000/svg">
<rect x="93" y="30" width="252" height="151" rx="14" fill="#0B0F20"/>
<rect x="264.033" y="38.2212" width="73.9672" height="28.3279" rx="5" fill="#31395B"/>
<g filter="url(#filter0_i_396_6053)">
<rect x="151" y="144" width="187" height="29" rx="5" fill="url(#paint0_linear_396_6053)"/>
</g>
<rect x="150.722" y="73.6313" width="187.279" height="28.3279" rx="5" fill="#31395B"/>
<rect x="150.722" y="109.041" width="187.279" height="28.3279" rx="5" fill="#31395B"/>
<g clip-path="url(#clip0_396_6053)">
<rect x="145" y="42" width="23" height="23" rx="11.5" fill="#0A0718"/>
<g clip-path="url(#clip1_396_6053)">
<circle cx="15.4349" cy="15.4349" r="15.4349" transform="matrix(1 0 0 -1 141.042 68.9094)" fill="#EBF7FD"/>
<g filter="url(#filter1_f_396_6053)">
<circle cx="12.947" cy="12.947" r="12.947" transform="matrix(1 0 0 -1 145.718 64.1821)" fill="#1BB8FF"/>
</g>
<g filter="url(#filter2_f_396_6053)">
<circle cx="12.1644" cy="12.1644" r="12.1644" transform="matrix(1 0 0 -1 148.222 62.0867)" fill="#232DE3"/>
</g>
<g filter="url(#filter3_f_396_6053)">
<circle cx="9.17444" cy="9.17444" r="9.17444" transform="matrix(1 0 0 -1 153.282 56.4644)" fill="#EBF7FD"/>
</g>
<g filter="url(#filter4_f_396_6053)">
<circle cx="7.71778" cy="7.71778" r="7.71778" transform="matrix(1 0 0 -1 149.704 60.5532)" fill="#232DE3"/>
</g>
<g filter="url(#filter5_f_396_6053)">
<circle cx="5.92889" cy="5.92889" r="5.92889" transform="matrix(1 0 0 -1 150.571 59.429)" fill="#0A0718"/>
</g>
</g>
</g>
<path opacity="0.55" d="M126.781 52.7079V53.4903H124.244V52.7079H126.781ZM124.878 57V52.3027C124.878 52.014 124.938 51.7737 125.057 51.5818C125.178 51.3899 125.34 51.2465 125.543 51.1515C125.746 51.0564 125.972 51.0089 126.22 51.0089C126.395 51.0089 126.55 51.0229 126.686 51.0509C126.822 51.0788 126.923 51.1039 126.988 51.1263L126.787 51.9087C126.744 51.8957 126.69 51.8826 126.625 51.8696C126.559 51.8547 126.487 51.8472 126.407 51.8472C126.219 51.8472 126.085 51.8929 126.007 51.9842C125.931 52.0736 125.893 52.2021 125.893 52.3698V57H124.878ZM127.573 57V52.7079H128.554V53.4232H128.599C128.677 53.1755 128.811 52.9845 129.001 52.8504C129.193 52.7144 129.412 52.6464 129.658 52.6464C129.714 52.6464 129.776 52.6492 129.845 52.6548C129.916 52.6585 129.975 52.6651 130.021 52.6744V53.6049C129.978 53.59 129.91 53.5769 129.817 53.5658C129.726 53.5527 129.637 53.5462 129.552 53.5462C129.367 53.5462 129.202 53.5863 129.054 53.6664C128.909 53.7446 128.795 53.8536 128.711 53.9933C128.627 54.133 128.585 54.2942 128.585 54.4767V57H127.573ZM132.389 57.0838C131.97 57.0838 131.606 56.9916 131.299 56.8072C130.992 56.6228 130.753 56.3648 130.584 56.0332C130.416 55.7016 130.332 55.3141 130.332 54.8707C130.332 54.4273 130.416 54.0389 130.584 53.7055C130.753 53.372 130.992 53.1131 131.299 52.9287C131.606 52.7442 131.97 52.652 132.389 52.652C132.808 52.652 133.171 52.7442 133.479 52.9287C133.786 53.1131 134.023 53.372 134.191 53.7055C134.361 54.0389 134.445 54.4273 134.445 54.8707C134.445 55.3141 134.361 55.7016 134.191 56.0332C134.023 56.3648 133.786 56.6228 133.479 56.8072C133.171 56.9916 132.808 57.0838 132.389 57.0838ZM132.394 56.2735C132.622 56.2735 132.812 56.2111 132.964 56.0863C133.117 55.9596 133.231 55.7901 133.305 55.5777C133.382 55.3653 133.42 55.1287 133.42 54.8679C133.42 54.6053 133.382 54.3677 133.305 54.1554C133.231 53.9411 133.117 53.7707 132.964 53.644C132.812 53.5173 132.622 53.454 132.394 53.454C132.161 53.454 131.968 53.5173 131.813 53.644C131.66 53.7707 131.546 53.9411 131.469 54.1554C131.395 54.3677 131.358 54.6053 131.358 54.8679C131.358 55.1287 131.395 55.3653 131.469 55.5777C131.546 55.7901 131.66 55.9596 131.813 56.0863C131.968 56.2111 132.161 56.2735 132.394 56.2735ZM135.304 57V52.7079H136.271V53.4372H136.321C136.41 53.1913 136.559 52.9994 136.765 52.8616C136.972 52.7219 137.219 52.652 137.506 52.652C137.796 52.652 138.041 52.7228 138.241 52.8644C138.442 53.0041 138.584 53.195 138.665 53.4372H138.71C138.805 53.1988 138.965 53.0088 139.191 52.8672C139.418 52.7237 139.687 52.652 139.998 52.652C140.393 52.652 140.716 52.7768 140.965 53.0265C141.215 53.2761 141.34 53.6403 141.34 54.119V57H140.325V54.2755C140.325 54.0091 140.255 53.8145 140.113 53.6915C139.971 53.5667 139.798 53.5043 139.593 53.5043C139.349 53.5043 139.158 53.5807 139.02 53.7334C138.884 53.8843 138.816 54.0808 138.816 54.323V57H137.824V54.2336C137.824 54.0119 137.757 53.8349 137.623 53.7027C137.491 53.5704 137.318 53.5043 137.103 53.5043C136.958 53.5043 136.826 53.5415 136.707 53.6161C136.587 53.6887 136.492 53.7921 136.422 53.9262C136.351 54.0585 136.315 54.2131 136.315 54.3901V57H135.304Z" fill="#F6F8FF"/>
<path opacity="0.55" d="M104.012 86.4208V87.2032H101.545V86.4208H104.012ZM102.154 85.3925H103.165V89.4219C103.165 89.5579 103.186 89.6622 103.227 89.7349C103.27 89.8057 103.326 89.8541 103.395 89.8802C103.464 89.9063 103.54 89.9193 103.624 89.9193C103.687 89.9193 103.745 89.9146 103.797 89.9053C103.851 89.896 103.892 89.8876 103.92 89.8802L104.09 90.671C104.036 90.6896 103.959 90.7101 103.858 90.7325C103.76 90.7548 103.639 90.7678 103.495 90.7716C103.242 90.779 103.014 90.7408 102.811 90.657C102.608 90.5713 102.446 90.439 102.327 90.2602C102.21 90.0814 102.152 89.8578 102.154 89.5896V85.3925ZM106.684 90.7967C106.265 90.7967 105.902 90.7045 105.594 90.5201C105.287 90.3357 105.049 90.0776 104.879 89.7461C104.711 89.4145 104.628 89.027 104.628 88.5836C104.628 88.1402 104.711 87.7518 104.879 87.4184C105.049 87.0849 105.287 86.826 105.594 86.6415C105.902 86.4571 106.265 86.3649 106.684 86.3649C107.103 86.3649 107.467 86.4571 107.774 86.6415C108.081 86.826 108.319 87.0849 108.487 87.4184C108.656 87.7518 108.741 88.1402 108.741 88.5836C108.741 89.027 108.656 89.4145 108.487 89.7461C108.319 90.0776 108.081 90.3357 107.774 90.5201C107.467 90.7045 107.103 90.7967 106.684 90.7967ZM106.69 89.9864C106.917 89.9864 107.107 89.924 107.26 89.7991C107.413 89.6725 107.526 89.5029 107.601 89.2906C107.677 89.0782 107.715 88.8416 107.715 88.5808C107.715 88.3181 107.677 88.0806 107.601 87.8683C107.526 87.654 107.413 87.4836 107.26 87.3569C107.107 87.2302 106.917 87.1669 106.69 87.1669C106.457 87.1669 106.263 87.2302 106.109 87.3569C105.956 87.4836 105.841 87.654 105.765 87.8683C105.69 88.0806 105.653 88.3181 105.653 88.5808C105.653 88.8416 105.69 89.0782 105.765 89.2906C105.841 89.5029 105.956 89.6725 106.109 89.7991C106.263 89.924 106.457 89.9864 106.69 89.9864ZM111.551 90.7129V86.4208H112.532V87.1361H112.577C112.655 86.8884 112.789 86.6974 112.979 86.5633C113.171 86.4273 113.39 86.3593 113.636 86.3593C113.692 86.3593 113.754 86.3621 113.823 86.3677C113.894 86.3714 113.953 86.3779 113.999 86.3873V87.3178C113.956 87.3029 113.888 87.2898 113.795 87.2787C113.704 87.2656 113.615 87.2591 113.53 87.2591C113.345 87.2591 113.179 87.2991 113.032 87.3792C112.887 87.4575 112.772 87.5665 112.689 87.7062C112.605 87.8459 112.563 88.007 112.563 88.1896V90.7129H111.551ZM116.395 90.7967C115.964 90.7967 115.593 90.7073 115.28 90.5285C114.968 90.3478 114.729 90.0925 114.561 89.7628C114.394 89.4312 114.31 89.0409 114.31 88.592C114.31 88.1505 114.394 87.763 114.561 87.4295C114.731 87.0942 114.968 86.8334 115.271 86.6471C115.575 86.459 115.932 86.3649 116.341 86.3649C116.606 86.3649 116.856 86.4077 117.09 86.4934C117.327 86.5773 117.536 86.7077 117.716 86.8846C117.899 87.0616 118.042 87.287 118.147 87.5609C118.251 87.8329 118.303 88.157 118.303 88.5333V88.8435H114.785V88.1617H117.333C117.332 87.9679 117.29 87.7956 117.208 87.6447C117.126 87.492 117.011 87.3718 116.864 87.2842C116.719 87.1967 116.549 87.1529 116.355 87.1529C116.149 87.1529 115.967 87.2032 115.811 87.3038C115.654 87.4025 115.532 87.5329 115.444 87.695C115.359 87.8552 115.315 88.0313 115.313 88.2231V88.8183C115.313 89.068 115.359 89.2822 115.45 89.461C115.541 89.638 115.669 89.774 115.833 89.869C115.997 89.9621 116.189 90.0087 116.409 90.0087C116.556 90.0087 116.689 89.9882 116.808 89.9472C116.927 89.9044 117.031 89.842 117.118 89.76C117.206 89.6781 117.272 89.5765 117.317 89.4554L118.261 89.5616C118.202 89.8113 118.088 90.0292 117.92 90.2155C117.754 90.3999 117.542 90.5434 117.283 90.6458C117.024 90.7464 116.728 90.7967 116.395 90.7967ZM121.031 90.7967C120.603 90.7967 120.235 90.7026 119.927 90.5145C119.622 90.3263 119.386 90.0665 119.22 89.7349C119.056 89.4014 118.974 89.0177 118.974 88.5836C118.974 88.1477 119.058 87.763 119.226 87.4295C119.394 87.0942 119.63 86.8334 119.936 86.6471C120.243 86.459 120.606 86.3649 121.025 86.3649C121.374 86.3649 121.682 86.4292 121.95 86.5577C122.22 86.6844 122.436 86.8642 122.596 87.097C122.756 87.328 122.847 87.5981 122.87 87.9074H121.903C121.864 87.7006 121.771 87.5283 121.623 87.3904C121.478 87.2507 121.283 87.1808 121.039 87.1808C120.833 87.1808 120.651 87.2367 120.495 87.3485C120.338 87.4584 120.216 87.6168 120.128 87.8235C120.043 88.0303 120 88.2781 120 88.5668C120 88.8593 120.043 89.1108 120.128 89.3213C120.214 89.53 120.334 89.6911 120.489 89.8047C120.645 89.9165 120.829 89.9724 121.039 89.9724C121.188 89.9724 121.322 89.9444 121.439 89.8886C121.558 89.8308 121.658 89.7479 121.738 89.6399C121.818 89.5318 121.873 89.4005 121.903 89.2459H122.87C122.845 89.5495 122.756 89.8187 122.601 90.0534C122.447 90.2863 122.236 90.4689 121.97 90.6011C121.704 90.7315 121.391 90.7967 121.031 90.7967ZM123.7 90.7129V86.4208H124.712V90.7129H123.7ZM124.209 85.8116C124.049 85.8116 123.911 85.7585 123.795 85.6523C123.68 85.5443 123.622 85.4148 123.622 85.2639C123.622 85.1112 123.68 84.9817 123.795 84.8755C123.911 84.7675 124.049 84.7134 124.209 84.7134C124.371 84.7134 124.509 84.7675 124.622 84.8755C124.738 84.9817 124.796 85.1112 124.796 85.2639C124.796 85.4148 124.738 85.5443 124.622 85.6523C124.509 85.7585 124.371 85.8116 124.209 85.8116ZM125.752 92.3224V86.4208H126.747V87.1306H126.806C126.858 87.0262 126.931 86.9154 127.026 86.798C127.121 86.6788 127.25 86.5773 127.412 86.4934C127.574 86.4077 127.781 86.3649 128.032 86.3649C128.364 86.3649 128.663 86.4497 128.929 86.6192C129.197 86.7868 129.41 87.0355 129.566 87.3653C129.725 87.6931 129.804 88.0955 129.804 88.5724C129.804 89.0437 129.727 89.4443 129.572 89.774C129.417 90.1037 129.207 90.3552 128.94 90.5285C128.674 90.7017 128.372 90.7883 128.035 90.7883C127.789 90.7883 127.585 90.7474 127.423 90.6654C127.261 90.5834 127.131 90.4847 127.032 90.3692C126.935 90.2518 126.86 90.141 126.806 90.0367H126.764V92.3224H125.752ZM126.744 88.5668C126.744 88.8444 126.783 89.0875 126.861 89.2962C126.942 89.5048 127.056 89.6678 127.205 89.7852C127.356 89.9007 127.539 89.9584 127.753 89.9584C127.976 89.9584 128.164 89.8988 128.314 89.7796C128.465 89.6585 128.579 89.4936 128.655 89.285C128.734 89.0745 128.773 88.8351 128.773 88.5668C128.773 88.3004 128.735 88.0639 128.658 87.8571C128.582 87.6503 128.468 87.4882 128.317 87.3709C128.166 87.2535 127.978 87.1948 127.753 87.1948C127.537 87.1948 127.353 87.2516 127.202 87.3653C127.051 87.4789 126.937 87.6382 126.859 87.8431C126.782 88.048 126.744 88.2893 126.744 88.5668ZM130.67 90.7129V86.4208H131.682V90.7129H130.67ZM131.179 85.8116C131.018 85.8116 130.881 85.7585 130.765 85.6523C130.65 85.5443 130.592 85.4148 130.592 85.2639C130.592 85.1112 130.65 84.9817 130.765 84.8755C130.881 84.7675 131.018 84.7134 131.179 84.7134C131.341 84.7134 131.479 84.7675 131.592 84.8755C131.708 84.9817 131.765 85.1112 131.765 85.2639C131.765 85.4148 131.708 85.5443 131.592 85.6523C131.479 85.7585 131.341 85.8116 131.179 85.8116ZM134.622 90.7967C134.192 90.7967 133.82 90.7073 133.507 90.5285C133.196 90.3478 132.957 90.0925 132.789 89.7628C132.621 89.4312 132.537 89.0409 132.537 88.592C132.537 88.1505 132.621 87.763 132.789 87.4295C132.958 87.0942 133.195 86.8334 133.499 86.6471C133.802 86.459 134.159 86.3649 134.569 86.3649C134.833 86.3649 135.083 86.4077 135.318 86.4934C135.554 86.5773 135.763 86.7077 135.944 86.8846C136.126 87.0616 136.27 87.287 136.374 87.5609C136.478 87.8329 136.531 88.157 136.531 88.5333V88.8435H133.012V88.1617H135.561C135.559 87.9679 135.517 87.7956 135.435 87.6447C135.353 87.492 135.239 87.3718 135.091 87.2842C134.946 87.1967 134.777 87.1529 134.583 87.1529C134.376 87.1529 134.194 87.2032 134.038 87.3038C133.881 87.4025 133.759 87.5329 133.672 87.695C133.586 87.8552 133.542 88.0313 133.541 88.2231V88.8183C133.541 89.068 133.586 89.2822 133.678 89.461C133.769 89.638 133.896 89.774 134.06 89.869C134.224 89.9621 134.416 90.0087 134.636 90.0087C134.783 90.0087 134.916 89.9882 135.036 89.9472C135.155 89.9044 135.258 89.842 135.346 89.76C135.433 89.6781 135.499 89.5765 135.544 89.4554L136.489 89.5616C136.429 89.8113 136.315 90.0292 136.148 90.2155C135.982 90.3999 135.77 90.5434 135.511 90.6458C135.252 90.7464 134.955 90.7967 134.622 90.7967ZM138.398 88.198V90.7129H137.386V86.4208H138.353V87.1501H138.403C138.502 86.9098 138.66 86.7189 138.876 86.5773C139.094 86.4357 139.363 86.3649 139.683 86.3649C139.979 86.3649 140.237 86.4282 140.457 86.5549C140.679 86.6816 140.85 86.8651 140.971 87.1054C141.094 87.3457 141.155 87.6373 141.153 87.98V90.7129H140.142V88.1365C140.142 87.8496 140.067 87.6251 139.918 87.4631C139.771 87.301 139.567 87.22 139.306 87.22C139.129 87.22 138.972 87.2591 138.834 87.3373C138.698 87.4137 138.591 87.5246 138.512 87.6699C138.436 87.8152 138.398 87.9912 138.398 88.198ZM144.325 86.4208V87.2032H141.857V86.4208H144.325ZM142.466 85.3925H143.478V89.4219C143.478 89.5579 143.498 89.6622 143.539 89.7349C143.582 89.8057 143.638 89.8541 143.707 89.8802C143.776 89.9063 143.852 89.9193 143.936 89.9193C144 89.9193 144.057 89.9146 144.109 89.9053C144.163 89.896 144.204 89.8876 144.232 89.8802L144.403 90.671C144.349 90.6896 144.272 90.7101 144.171 90.7325C144.072 90.7548 143.951 90.7678 143.808 90.7716C143.554 90.779 143.326 90.7408 143.123 90.657C142.92 90.5713 142.759 90.439 142.64 90.2602C142.522 90.0814 142.465 89.8578 142.466 89.5896V85.3925Z" fill="#F6F8FF"/>
<path opacity="0.55" d="M116.906 126.123H115.799L117.814 120.4H119.094L121.111 126.123H120.005L118.476 121.574H118.432L116.906 126.123ZM116.942 123.879H119.96V124.712H116.942V123.879ZM121.82 126.123V121.831H122.787V122.56H122.837C122.927 122.314 123.075 122.122 123.282 121.985C123.489 121.845 123.735 121.775 124.022 121.775C124.313 121.775 124.558 121.846 124.757 121.987C124.958 122.127 125.1 122.318 125.182 122.56H125.227C125.322 122.322 125.482 122.132 125.707 121.99C125.935 121.847 126.204 121.775 126.515 121.775C126.91 121.775 127.232 121.9 127.482 122.149C127.731 122.399 127.856 122.763 127.856 123.242V126.123H126.842V123.399C126.842 123.132 126.771 122.938 126.629 122.815C126.488 122.69 126.315 122.627 126.11 122.627C125.866 122.627 125.675 122.704 125.537 122.856C125.401 123.007 125.333 123.204 125.333 123.446V126.123H124.341V123.357C124.341 123.135 124.274 122.958 124.14 122.826C124.007 122.693 123.834 122.627 123.62 122.627C123.475 122.627 123.342 122.665 123.223 122.739C123.104 122.812 123.009 122.915 122.938 123.049C122.867 123.182 122.832 123.336 122.832 123.513V126.123H121.82ZM130.755 126.207C130.335 126.207 129.972 126.115 129.665 125.93C129.357 125.746 129.119 125.488 128.949 125.156C128.782 124.825 128.698 124.437 128.698 123.994C128.698 123.55 128.782 123.162 128.949 122.829C129.119 122.495 129.357 122.236 129.665 122.052C129.972 121.867 130.335 121.775 130.755 121.775C131.174 121.775 131.537 121.867 131.844 122.052C132.152 122.236 132.389 122.495 132.557 122.829C132.726 123.162 132.811 123.55 132.811 123.994C132.811 124.437 132.726 124.825 132.557 125.156C132.389 125.488 132.152 125.746 131.844 125.93C131.537 126.115 131.174 126.207 130.755 126.207ZM130.76 125.397C130.987 125.397 131.177 125.334 131.33 125.209C131.483 125.083 131.597 124.913 131.671 124.701C131.747 124.488 131.786 124.252 131.786 123.991C131.786 123.728 131.747 123.491 131.671 123.278C131.597 123.064 131.483 122.894 131.33 122.767C131.177 122.64 130.987 122.577 130.76 122.577C130.527 122.577 130.334 122.64 130.179 122.767C130.026 122.894 129.912 123.064 129.835 123.278C129.761 123.491 129.723 123.728 129.723 123.991C129.723 124.252 129.761 124.488 129.835 124.701C129.912 124.913 130.026 125.083 130.179 125.209C130.334 125.334 130.527 125.397 130.76 125.397ZM136.405 124.318V121.831H137.417V126.123H136.436V125.36H136.391C136.295 125.601 136.135 125.797 135.914 125.95C135.694 126.103 135.423 126.179 135.1 126.179C134.819 126.179 134.57 126.117 134.354 125.992C134.14 125.865 133.972 125.682 133.851 125.441C133.73 125.199 133.67 124.907 133.67 124.564V121.831H134.681V124.407C134.681 124.679 134.756 124.895 134.905 125.056C135.054 125.216 135.249 125.296 135.492 125.296C135.641 125.296 135.785 125.26 135.925 125.187C136.064 125.114 136.179 125.006 136.268 124.863C136.36 124.717 136.405 124.536 136.405 124.318ZM139.469 123.608V126.123H138.457V121.831H139.424V122.56H139.474C139.573 122.32 139.73 122.129 139.947 121.987C140.164 121.846 140.434 121.775 140.754 121.775C141.05 121.775 141.308 121.838 141.528 121.965C141.75 122.092 141.921 122.275 142.042 122.516C142.165 122.756 142.226 123.047 142.224 123.39V126.123H141.212V123.547C141.212 123.26 141.138 123.035 140.989 122.873C140.842 122.711 140.638 122.63 140.377 122.63C140.2 122.63 140.042 122.669 139.905 122.747C139.769 122.824 139.661 122.935 139.583 123.08C139.507 123.225 139.469 123.401 139.469 123.608ZM145.395 121.831V122.613H142.928V121.831H145.395ZM143.537 120.803H144.549V124.832C144.549 124.968 144.569 125.072 144.61 125.145C144.653 125.216 144.709 125.264 144.778 125.29C144.847 125.316 144.923 125.329 145.007 125.329C145.07 125.329 145.128 125.325 145.18 125.315C145.234 125.306 145.275 125.298 145.303 125.29L145.474 126.081C145.42 126.1 145.342 126.12 145.242 126.143C145.143 126.165 145.022 126.178 144.879 126.182C144.625 126.189 144.397 126.151 144.194 126.067C143.991 125.981 143.83 125.849 143.71 125.67C143.593 125.492 143.535 125.268 143.537 125V120.803Z" fill="#F6F8FF"/>
<path d="M173.864 58.0959C173.436 58.0959 173.052 57.9858 172.714 57.7656C172.375 57.5455 172.108 57.2259 171.911 56.8068C171.715 56.3878 171.616 55.8788 171.616 55.2798C171.616 54.6738 171.716 54.1624 171.915 53.7457C172.116 53.3267 172.387 53.0107 172.728 52.7976C173.069 52.5821 173.449 52.4744 173.868 52.4744C174.188 52.4744 174.45 52.5289 174.656 52.6378C174.862 52.7443 175.026 52.8733 175.146 53.0249C175.267 53.174 175.361 53.3149 175.427 53.4474H175.48V50.7273H176.769V58H175.505V57.1406H175.427C175.361 57.2732 175.265 57.4141 175.139 57.5632C175.014 57.71 174.848 57.8355 174.642 57.9396C174.436 58.0438 174.177 58.0959 173.864 58.0959ZM174.223 57.0412C174.495 57.0412 174.727 56.9678 174.919 56.821C175.111 56.6719 175.256 56.4647 175.356 56.1996C175.455 55.9344 175.505 55.6255 175.505 55.2727C175.505 54.92 175.455 54.6134 175.356 54.353C175.259 54.0926 175.114 53.8902 174.923 53.7457C174.733 53.6013 174.5 53.5291 174.223 53.5291C173.937 53.5291 173.697 53.6037 173.506 53.7528C173.314 53.902 173.17 54.108 173.072 54.3707C172.975 54.6335 172.927 54.9342 172.927 55.2727C172.927 55.6136 172.975 55.9179 173.072 56.1854C173.172 56.4505 173.317 56.66 173.509 56.8139C173.703 56.9654 173.941 57.0412 174.223 57.0412ZM180.518 58.1065C179.986 58.1065 179.524 57.9893 179.133 57.755C178.743 57.5206 178.44 57.1927 178.224 56.7713C178.011 56.3499 177.905 55.8575 177.905 55.294C177.905 54.7306 178.011 54.237 178.224 53.8132C178.44 53.3894 178.743 53.0604 179.133 52.826C179.524 52.5916 179.986 52.4744 180.518 52.4744C181.051 52.4744 181.513 52.5916 181.903 52.826C182.294 53.0604 182.596 53.3894 182.809 53.8132C183.024 54.237 183.132 54.7306 183.132 55.294C183.132 55.8575 183.024 56.3499 182.809 56.7713C182.596 57.1927 182.294 57.5206 181.903 57.755C181.513 57.9893 181.051 58.1065 180.518 58.1065ZM180.525 57.0767C180.814 57.0767 181.056 56.9974 181.25 56.8388C181.444 56.6778 181.588 56.4624 181.683 56.1925C181.78 55.9226 181.829 55.6219 181.829 55.2905C181.829 54.9567 181.78 54.6548 181.683 54.3849C181.588 54.1127 181.444 53.8961 181.25 53.7351C181.056 53.5741 180.814 53.4936 180.525 53.4936C180.229 53.4936 179.983 53.5741 179.787 53.7351C179.593 53.8961 179.447 54.1127 179.35 54.3849C179.255 54.6548 179.208 54.9567 179.208 55.2905C179.208 55.6219 179.255 55.9226 179.35 56.1925C179.447 56.4624 179.593 56.6778 179.787 56.8388C179.983 56.9974 180.229 57.0767 180.525 57.0767ZM186.595 60.1591C186.134 60.1591 185.737 60.0964 185.406 59.9709C185.074 59.8478 184.808 59.6821 184.607 59.4737C184.405 59.2654 184.266 59.0346 184.188 58.7812L185.345 58.5007C185.397 58.6072 185.473 58.7126 185.572 58.8168C185.672 58.9233 185.806 59.0109 185.974 59.0795C186.144 59.1506 186.358 59.1861 186.616 59.1861C186.981 59.1861 187.283 59.0973 187.522 58.9197C187.761 58.7446 187.881 58.4557 187.881 58.0533V57.0199H187.817C187.75 57.1525 187.653 57.2886 187.526 57.4283C187.4 57.5679 187.233 57.6851 187.025 57.7798C186.819 57.8745 186.56 57.9219 186.247 57.9219C185.828 57.9219 185.448 57.8236 185.107 57.6271C184.769 57.4283 184.499 57.1323 184.298 56.7393C184.099 56.344 183.999 55.8492 183.999 55.255C183.999 54.656 184.099 54.1506 184.298 53.7386C184.499 53.3243 184.77 53.0107 185.111 52.7976C185.452 52.5821 185.832 52.4744 186.251 52.4744C186.57 52.4744 186.833 52.5289 187.039 52.6378C187.247 52.7443 187.413 52.8733 187.536 53.0249C187.659 53.174 187.753 53.3149 187.817 53.4474H187.888V52.5455H189.156V58.0888C189.156 58.5552 189.044 58.9411 188.822 59.2464C188.599 59.5518 188.295 59.7803 187.909 59.9318C187.523 60.0833 187.085 60.1591 186.595 60.1591ZM186.606 56.9134C186.878 56.9134 187.11 56.8471 187.302 56.7145C187.494 56.5819 187.639 56.3913 187.739 56.1428C187.838 55.8942 187.888 55.5959 187.888 55.2479C187.888 54.9046 187.838 54.6039 187.739 54.3459C187.642 54.0878 187.497 53.8878 187.305 53.7457C187.116 53.6013 186.883 53.5291 186.606 53.5291C186.319 53.5291 186.08 53.6037 185.888 53.7528C185.697 53.902 185.552 54.1068 185.455 54.3672C185.358 54.6252 185.31 54.9188 185.31 55.2479C185.31 55.5817 185.358 55.8741 185.455 56.125C185.555 56.3736 185.7 56.5677 185.892 56.7074C186.086 56.8447 186.324 56.9134 186.606 56.9134ZM192.888 58.1065C192.341 58.1065 191.869 57.9929 191.471 57.7656C191.076 57.536 190.771 57.2116 190.558 56.7926C190.345 56.3712 190.239 55.8752 190.239 55.3047C190.239 54.7436 190.345 54.2512 190.558 53.8274C190.774 53.4013 191.074 53.0698 191.46 52.8331C191.846 52.594 192.299 52.4744 192.82 52.4744C193.156 52.4744 193.474 52.5289 193.772 52.6378C194.073 52.7443 194.338 52.91 194.567 53.1349C194.799 53.3598 194.982 53.6463 195.114 53.9943C195.247 54.34 195.313 54.7519 195.313 55.2301V55.6243H190.842V54.7578H194.081C194.079 54.5116 194.025 54.2926 193.921 54.1009C193.817 53.9067 193.671 53.754 193.484 53.6428C193.3 53.5315 193.084 53.4759 192.838 53.4759C192.575 53.4759 192.344 53.5398 192.146 53.6676C191.947 53.7931 191.792 53.9588 191.68 54.1648C191.571 54.3684 191.516 54.5921 191.513 54.8359V55.5923C191.513 55.9096 191.571 56.1818 191.688 56.4091C191.804 56.634 191.966 56.8068 192.174 56.9276C192.382 57.0459 192.626 57.1051 192.906 57.1051C193.093 57.1051 193.262 57.0791 193.413 57.027C193.565 56.9725 193.696 56.8932 193.808 56.7891C193.919 56.6849 194.003 56.5559 194.06 56.402L195.26 56.5369C195.184 56.8542 195.04 57.1312 194.827 57.3679C194.616 57.6023 194.346 57.7846 194.017 57.9148C193.688 58.0426 193.312 58.1065 192.888 58.1065ZM196.401 58V52.5455H197.629V53.4723H197.693C197.807 53.1598 197.995 52.916 198.258 52.7408C198.521 52.5632 198.834 52.4744 199.199 52.4744C199.568 52.4744 199.88 52.5644 200.133 52.7443C200.389 52.9219 200.569 53.1645 200.673 53.4723H200.73C200.85 53.1693 201.054 52.9278 201.34 52.7479C201.629 52.5656 201.971 52.4744 202.367 52.4744C202.869 52.4744 203.278 52.633 203.595 52.9503C203.913 53.2675 204.071 53.7304 204.071 54.3388V58H202.782V54.5376C202.782 54.1991 202.692 53.9517 202.512 53.7955C202.332 53.6368 202.112 53.5575 201.852 53.5575C201.542 53.5575 201.299 53.6546 201.124 53.8487C200.951 54.0405 200.865 54.2902 200.865 54.598V58H199.604V54.4844C199.604 54.2027 199.519 53.9777 199.348 53.8097C199.18 53.6416 198.96 53.5575 198.688 53.5575C198.503 53.5575 198.335 53.6049 198.183 53.6996C198.032 53.7919 197.911 53.9233 197.821 54.0938C197.731 54.2618 197.686 54.4583 197.686 54.6832V58H196.401ZM207.755 58.1065C207.222 58.1065 206.76 57.9893 206.37 57.755C205.979 57.5206 205.676 57.1927 205.461 56.7713C205.248 56.3499 205.141 55.8575 205.141 55.294C205.141 54.7306 205.248 54.237 205.461 53.8132C205.676 53.3894 205.979 53.0604 206.37 52.826C206.76 52.5916 207.222 52.4744 207.755 52.4744C208.287 52.4744 208.749 52.5916 209.14 52.826C209.53 53.0604 209.832 53.3894 210.045 53.8132C210.261 54.237 210.368 54.7306 210.368 55.294C210.368 55.8575 210.261 56.3499 210.045 56.7713C209.832 57.1927 209.53 57.5206 209.14 57.755C208.749 57.9893 208.287 58.1065 207.755 58.1065ZM207.762 57.0767C208.051 57.0767 208.292 56.9974 208.486 56.8388C208.68 56.6778 208.825 56.4624 208.919 56.1925C209.016 55.9226 209.065 55.6219 209.065 55.2905C209.065 54.9567 209.016 54.6548 208.919 54.3849C208.825 54.1127 208.68 53.8961 208.486 53.7351C208.292 53.5741 208.051 53.4936 207.762 53.4936C207.466 53.4936 207.22 53.5741 207.023 53.7351C206.829 53.8961 206.683 54.1127 206.586 54.3849C206.492 54.6548 206.444 54.9567 206.444 55.2905C206.444 55.6219 206.492 55.9226 206.586 56.1925C206.683 56.4624 206.829 56.6778 207.023 56.8388C207.22 56.9974 207.466 57.0767 207.762 57.0767ZM215.77 53.9872L214.599 54.1151C214.565 53.9967 214.507 53.8854 214.425 53.7812C214.344 53.6771 214.235 53.593 214.098 53.5291C213.961 53.4652 213.792 53.4332 213.594 53.4332C213.326 53.4332 213.101 53.4912 212.919 53.6072C212.739 53.7232 212.65 53.8736 212.653 54.0582C212.65 54.2169 212.708 54.3459 212.827 54.4453C212.947 54.5447 213.146 54.6264 213.423 54.6903L214.354 54.8892C214.87 55.0005 215.253 55.1768 215.504 55.4183C215.757 55.6598 215.885 55.9759 215.888 56.3665C215.885 56.7098 215.785 57.0128 215.586 57.2756C215.389 57.536 215.116 57.7396 214.765 57.8864C214.415 58.0331 214.013 58.1065 213.558 58.1065C212.89 58.1065 212.353 57.9669 211.946 57.6875C211.539 57.4058 211.296 57.014 211.218 56.5121L212.471 56.3913C212.528 56.6375 212.649 56.8234 212.834 56.9489C213.018 57.0743 213.259 57.1371 213.555 57.1371C213.86 57.1371 214.105 57.0743 214.29 56.9489C214.477 56.8234 214.57 56.6683 214.57 56.4837C214.57 56.3274 214.51 56.1984 214.389 56.0966C214.271 55.9948 214.086 55.9167 213.835 55.8622L212.905 55.6669C212.381 55.558 211.994 55.3745 211.743 55.1165C211.492 54.8561 211.368 54.527 211.371 54.1293C211.368 53.7931 211.459 53.5019 211.644 53.2557C211.831 53.0071 212.09 52.8153 212.422 52.6804C212.756 52.5431 213.14 52.4744 213.576 52.4744C214.215 52.4744 214.718 52.6106 215.085 52.8828C215.454 53.1551 215.683 53.5232 215.77 53.9872ZM220.554 58L219.013 52.5455H220.323L221.282 56.3807H221.331L222.312 52.5455H223.608L224.588 56.3594H224.641L225.586 52.5455H226.9L225.355 58H224.016L222.993 54.3139H222.919L221.896 58H220.554ZM229.367 58.1101C229.021 58.1101 228.71 58.0485 228.433 57.9254C228.158 57.8 227.94 57.6153 227.779 57.3714C227.621 57.1276 227.542 56.8269 227.542 56.4695C227.542 56.1617 227.598 55.9072 227.712 55.706C227.826 55.5047 227.981 55.3438 228.177 55.223C228.374 55.1023 228.595 55.0111 228.841 54.9496C229.09 54.8857 229.347 54.8395 229.612 54.8111C229.931 54.7779 230.191 54.7483 230.39 54.7223C230.588 54.6939 230.733 54.6513 230.823 54.5945C230.915 54.5353 230.961 54.4441 230.961 54.321V54.2997C230.961 54.0322 230.882 53.825 230.723 53.6783C230.565 53.5315 230.336 53.4581 230.038 53.4581C229.723 53.4581 229.473 53.5268 229.289 53.6641C229.106 53.8014 228.983 53.9635 228.919 54.1506L227.719 53.9801C227.814 53.6487 227.97 53.3717 228.188 53.1491C228.406 52.9242 228.672 52.7562 228.987 52.6449C229.302 52.5312 229.65 52.4744 230.031 52.4744C230.294 52.4744 230.555 52.5052 230.816 52.5668C231.076 52.6283 231.314 52.7301 231.529 52.8722C231.745 53.0118 231.918 53.2024 232.048 53.4439C232.181 53.6854 232.247 53.9872 232.247 54.3494V58H231.011V57.2507H230.968C230.89 57.4022 230.78 57.5443 230.638 57.6768C230.498 57.8071 230.322 57.9124 230.109 57.9929C229.898 58.071 229.651 58.1101 229.367 58.1101ZM229.701 57.1655C229.959 57.1655 230.182 57.1146 230.372 57.0128C230.561 56.9086 230.707 56.7713 230.809 56.6009C230.913 56.4304 230.965 56.2446 230.965 56.0433V55.4006C230.925 55.4337 230.856 55.4645 230.759 55.4929C230.664 55.5213 230.558 55.5462 230.439 55.5675C230.321 55.5888 230.204 55.6077 230.088 55.6243C229.972 55.6409 229.871 55.6551 229.786 55.6669C229.594 55.6929 229.422 55.7356 229.271 55.7947C229.119 55.8539 229 55.9368 228.912 56.0433C228.825 56.1475 228.781 56.2824 228.781 56.4482C228.781 56.6849 228.867 56.8636 229.04 56.9844C229.213 57.1051 229.433 57.1655 229.701 57.1655ZM234.825 50.7273V58H233.539V50.7273H234.825ZM237.432 50.7273V58H236.147V50.7273H237.432ZM241.169 58.1065C240.622 58.1065 240.15 57.9929 239.752 57.7656C239.357 57.536 239.053 57.2116 238.839 56.7926C238.626 56.3712 238.52 55.8752 238.52 55.3047C238.52 54.7436 238.626 54.2512 238.839 53.8274C239.055 53.4013 239.356 53.0698 239.741 52.8331C240.127 52.594 240.581 52.4744 241.102 52.4744C241.438 52.4744 241.755 52.5289 242.053 52.6378C242.354 52.7443 242.619 52.91 242.849 53.1349C243.081 53.3598 243.263 53.6463 243.396 53.9943C243.528 54.34 243.594 54.7519 243.594 55.2301V55.6243H239.124V54.7578H242.362C242.36 54.5116 242.307 54.2926 242.202 54.1009C242.098 53.9067 241.953 53.754 241.766 53.6428C241.581 53.5315 241.366 53.4759 241.119 53.4759C240.857 53.4759 240.626 53.5398 240.427 53.6676C240.228 53.7931 240.073 53.9588 239.962 54.1648C239.853 54.3684 239.797 54.5921 239.795 54.8359V55.5923C239.795 55.9096 239.853 56.1818 239.969 56.4091C240.085 56.634 240.247 56.8068 240.455 56.9276C240.664 57.0459 240.907 57.1051 241.187 57.1051C241.374 57.1051 241.543 57.0791 241.695 57.027C241.846 56.9725 241.978 56.8932 242.089 56.7891C242.2 56.6849 242.284 56.5559 242.341 56.402L243.541 56.5369C243.465 56.8542 243.321 57.1312 243.108 57.3679C242.897 57.6023 242.627 57.7846 242.298 57.9148C241.969 58.0426 241.593 58.1065 241.169 58.1065ZM247.406 52.5455V53.5398H244.27V52.5455H247.406ZM245.044 51.2386H246.33V56.3594C246.33 56.5322 246.356 56.6648 246.408 56.7571C246.462 56.8471 246.533 56.9086 246.621 56.9418C246.709 56.9749 246.806 56.9915 246.912 56.9915C246.993 56.9915 247.066 56.9856 247.132 56.9737C247.201 56.9619 247.253 56.9512 247.289 56.9418L247.505 57.9467C247.436 57.9704 247.338 57.9964 247.21 58.0249C247.085 58.0533 246.931 58.0698 246.749 58.0746C246.427 58.084 246.137 58.0355 245.879 57.929C245.621 57.8201 245.416 57.652 245.264 57.4247C245.115 57.1974 245.042 56.9134 245.044 56.5724V51.2386Z" fill="#F6F8FF"/>
<path d="M161.341 127.099C160.867 127.099 160.443 127.011 160.069 126.833C159.695 126.653 159.398 126.407 159.178 126.094C158.96 125.782 158.844 125.424 158.83 125.022H160.108C160.132 125.32 160.261 125.564 160.496 125.754C160.73 125.941 161.012 126.034 161.341 126.034C161.599 126.034 161.828 125.975 162.03 125.857C162.231 125.738 162.39 125.574 162.506 125.363C162.622 125.152 162.678 124.912 162.676 124.642C162.678 124.367 162.62 124.124 162.502 123.911C162.384 123.697 162.221 123.531 162.015 123.41C161.809 123.287 161.573 123.225 161.305 123.225C161.087 123.223 160.873 123.263 160.662 123.346C160.452 123.429 160.285 123.538 160.162 123.673L158.972 123.477L159.352 119.727H163.571V120.828H160.442L160.233 122.756H160.275C160.41 122.598 160.601 122.466 160.847 122.362C161.093 122.256 161.363 122.202 161.657 122.202C162.097 122.202 162.49 122.307 162.836 122.515C163.181 122.721 163.454 123.005 163.653 123.367C163.851 123.729 163.951 124.144 163.951 124.61C163.951 125.091 163.84 125.519 163.617 125.896C163.397 126.27 163.09 126.564 162.697 126.78C162.307 126.993 161.854 127.099 161.341 127.099ZM167.829 127.138C167.244 127.138 166.742 126.991 166.323 126.695C165.906 126.396 165.586 125.967 165.361 125.406C165.138 124.842 165.027 124.164 165.027 123.371C165.029 122.578 165.142 121.903 165.364 121.347C165.589 120.788 165.91 120.362 166.327 120.068C166.746 119.775 167.246 119.628 167.829 119.628C168.411 119.628 168.912 119.775 169.331 120.068C169.75 120.362 170.071 120.788 170.293 121.347C170.518 121.905 170.631 122.58 170.631 123.371C170.631 124.166 170.518 124.846 170.293 125.409C170.071 125.97 169.75 126.399 169.331 126.695C168.914 126.991 168.413 127.138 167.829 127.138ZM167.829 126.027C168.283 126.027 168.642 125.803 168.905 125.356C169.17 124.906 169.302 124.244 169.302 123.371C169.302 122.793 169.242 122.308 169.121 121.915C169.001 121.522 168.83 121.226 168.61 121.027C168.39 120.826 168.129 120.725 167.829 120.725C167.376 120.725 167.019 120.95 166.756 121.4C166.493 121.847 166.361 122.504 166.358 123.371C166.356 123.951 166.414 124.438 166.532 124.834C166.653 125.229 166.824 125.527 167.044 125.729C167.264 125.928 167.526 126.027 167.829 126.027ZM174.499 127.138C173.914 127.138 173.412 126.991 172.993 126.695C172.576 126.396 172.255 125.967 172.031 125.406C171.808 124.842 171.697 124.164 171.697 123.371C171.699 122.578 171.812 121.903 172.034 121.347C172.259 120.788 172.58 120.362 172.996 120.068C173.415 119.775 173.916 119.628 174.499 119.628C175.081 119.628 175.582 119.775 176.001 120.068C176.42 120.362 176.741 120.788 176.963 121.347C177.188 121.905 177.3 122.58 177.3 123.371C177.3 124.166 177.188 124.846 176.963 125.409C176.741 125.97 176.42 126.399 176.001 126.695C175.584 126.991 175.083 127.138 174.499 127.138ZM174.499 126.027C174.953 126.027 175.312 125.803 175.575 125.356C175.84 124.906 175.972 124.244 175.972 123.371C175.972 122.793 175.912 122.308 175.791 121.915C175.67 121.522 175.5 121.226 175.28 121.027C175.06 120.826 174.799 120.725 174.499 120.725C174.046 120.725 173.689 120.95 173.426 121.4C173.163 121.847 173.031 122.504 173.028 123.371C173.026 123.951 173.084 124.438 173.202 124.834C173.323 125.229 173.494 125.527 173.714 125.729C173.934 125.928 174.196 126.027 174.499 126.027Z" fill="#F6F8FF"/>
<path d="M159.84 94.0455C159.665 94.0455 159.503 94.0313 159.354 94.0028C159.207 93.9768 159.09 93.946 159.002 93.9105L159.301 92.9091C159.488 92.9635 159.655 92.9896 159.801 92.9872C159.948 92.9848 160.077 92.9387 160.188 92.8487C160.302 92.7611 160.398 92.6143 160.476 92.4084L160.586 92.1136L158.608 86.5455H159.972L161.229 90.6648H161.286L162.546 86.5455H163.914L161.73 92.6605C161.628 92.9493 161.493 93.1967 161.325 93.4027C161.157 93.611 160.951 93.7696 160.707 93.8786C160.465 93.9898 160.177 94.0455 159.84 94.0455ZM167.032 92.1065C166.485 92.1065 166.013 91.9929 165.615 91.7656C165.22 91.536 164.916 91.2116 164.703 90.7926C164.49 90.3712 164.383 89.8752 164.383 89.3047C164.383 88.7436 164.49 88.2512 164.703 87.8274C164.918 87.4013 165.219 87.0698 165.605 86.8331C165.991 86.594 166.444 86.4744 166.965 86.4744C167.301 86.4744 167.618 86.5289 167.917 86.6378C168.217 86.7443 168.482 86.91 168.712 87.1349C168.944 87.3598 169.126 87.6463 169.259 87.9943C169.391 88.34 169.458 88.7519 169.458 89.2301V89.6243H164.987V88.7578H168.225C168.223 88.5116 168.17 88.2926 168.066 88.1009C167.962 87.9067 167.816 87.754 167.629 87.6428C167.444 87.5315 167.229 87.4759 166.983 87.4759C166.72 87.4759 166.489 87.5398 166.29 87.6676C166.091 87.7931 165.936 87.9588 165.825 88.1648C165.716 88.3684 165.66 88.5921 165.658 88.8359V89.5923C165.658 89.9096 165.716 90.1818 165.832 90.4091C165.948 90.634 166.11 90.8068 166.319 90.9276C166.527 91.0459 166.771 91.1051 167.05 91.1051C167.237 91.1051 167.406 91.0791 167.558 91.027C167.709 90.9725 167.841 90.8932 167.952 90.7891C168.063 90.6849 168.147 90.5559 168.204 90.402L169.404 90.5369C169.329 90.8542 169.184 91.1312 168.971 91.3679C168.761 91.6023 168.491 91.7846 168.162 91.9148C167.833 92.0426 167.456 92.1065 167.032 92.1065ZM172.115 92.1101C171.769 92.1101 171.458 92.0485 171.181 91.9254C170.906 91.8 170.689 91.6153 170.528 91.3714C170.369 91.1276 170.29 90.8269 170.29 90.4695C170.29 90.1617 170.346 89.9072 170.46 89.706C170.574 89.5047 170.729 89.3438 170.925 89.223C171.122 89.1023 171.343 89.0111 171.589 88.9496C171.838 88.8857 172.095 88.8395 172.36 88.8111C172.68 88.7779 172.939 88.7483 173.138 88.7223C173.336 88.6939 173.481 88.6513 173.571 88.5945C173.663 88.5353 173.709 88.4441 173.709 88.321V88.2997C173.709 88.0322 173.63 87.825 173.471 87.6783C173.313 87.5315 173.084 87.4581 172.786 87.4581C172.471 87.4581 172.221 87.5268 172.037 87.6641C171.854 87.8014 171.731 87.9635 171.667 88.1506L170.467 87.9801C170.562 87.6487 170.718 87.3717 170.936 87.1491C171.154 86.9242 171.42 86.7562 171.735 86.6449C172.05 86.5312 172.398 86.4744 172.779 86.4744C173.042 86.4744 173.303 86.5052 173.564 86.5668C173.824 86.6283 174.062 86.7301 174.278 86.8722C174.493 87.0118 174.666 87.2024 174.796 87.4439C174.929 87.6854 174.995 87.9872 174.995 88.3494V92H173.759V91.2507H173.716C173.638 91.4022 173.528 91.5443 173.386 91.6768C173.247 91.8071 173.07 91.9124 172.857 91.9929C172.646 92.071 172.399 92.1101 172.115 92.1101ZM172.449 91.1655C172.707 91.1655 172.93 91.1146 173.12 91.0128C173.309 90.9086 173.455 90.7713 173.557 90.6009C173.661 90.4304 173.713 90.2446 173.713 90.0433V89.4006C173.673 89.4337 173.604 89.4645 173.507 89.4929C173.412 89.5213 173.306 89.5462 173.187 89.5675C173.069 89.5888 172.952 89.6077 172.836 89.6243C172.72 89.6409 172.619 89.6551 172.534 89.6669C172.342 89.6929 172.171 89.7356 172.019 89.7947C171.867 89.8539 171.748 89.9368 171.66 90.0433C171.573 90.1475 171.529 90.2824 171.529 90.4482C171.529 90.6849 171.615 90.8636 171.788 90.9844C171.961 91.1051 172.181 91.1655 172.449 91.1655ZM176.287 94.0455V86.5455H177.552V87.4474H177.626C177.693 87.3149 177.786 87.174 177.907 87.0249C178.028 86.8733 178.191 86.7443 178.397 86.6378C178.603 86.5289 178.866 86.4744 179.185 86.4744C179.607 86.4744 179.987 86.5821 180.325 86.7976C180.666 87.0107 180.936 87.3267 181.135 87.7457C181.336 88.1624 181.437 88.6738 181.437 89.2798C181.437 89.8788 181.338 90.3878 181.142 90.8068C180.945 91.2259 180.678 91.5455 180.339 91.7656C180.001 91.9858 179.617 92.0959 179.189 92.0959C178.876 92.0959 178.617 92.0438 178.411 91.9396C178.205 91.8355 178.039 91.71 177.914 91.5632C177.791 91.4141 177.695 91.2732 177.626 91.1406H177.573V94.0455H176.287ZM177.548 89.2727C177.548 89.6255 177.598 89.9344 177.697 90.1996C177.799 90.4647 177.945 90.6719 178.134 90.821C178.326 90.9678 178.558 91.0412 178.83 91.0412C179.114 91.0412 179.352 90.9654 179.544 90.8139C179.736 90.66 179.88 90.4505 179.977 90.1854C180.077 89.9179 180.126 89.6136 180.126 89.2727C180.126 88.9342 180.078 88.6335 179.981 88.3707C179.884 88.108 179.739 87.902 179.547 87.7528C179.356 87.6037 179.117 87.5291 178.83 87.5291C178.555 87.5291 178.322 87.6013 178.131 87.7457C177.939 87.8902 177.793 88.0926 177.694 88.353C177.597 88.6134 177.548 88.92 177.548 89.2727ZM182.537 92V86.5455H183.823V92H182.537ZM183.184 85.7713C182.98 85.7713 182.805 85.7038 182.658 85.5689C182.511 85.4316 182.438 85.267 182.438 85.0753C182.438 84.8812 182.511 84.7166 182.658 84.5817C182.805 84.4444 182.98 84.3757 183.184 84.3757C183.39 84.3757 183.565 84.4444 183.709 84.5817C183.856 84.7166 183.93 84.8812 183.93 85.0753C183.93 85.267 183.856 85.4316 183.709 85.5689C183.565 85.7038 183.39 85.7713 183.184 85.7713ZM187.869 86.5455V87.5398H184.733V86.5455H187.869ZM185.507 85.2386H186.793V90.3594C186.793 90.5322 186.819 90.6648 186.871 90.7571C186.925 90.8471 186.996 90.9086 187.084 90.9418C187.171 90.9749 187.268 90.9915 187.375 90.9915C187.455 90.9915 187.529 90.9856 187.595 90.9737C187.664 90.9619 187.716 90.9512 187.751 90.9418L187.968 91.9467C187.899 91.9704 187.801 91.9964 187.673 92.0249C187.548 92.0533 187.394 92.0698 187.212 92.0746C186.89 92.084 186.6 92.0355 186.342 91.929C186.084 91.8201 185.879 91.652 185.727 91.4247C185.578 91.1974 185.505 90.9134 185.507 90.5724V85.2386ZM193.177 87.9872L192.005 88.1151C191.972 87.9967 191.914 87.8854 191.831 87.7812C191.75 87.6771 191.641 87.593 191.504 87.5291C191.367 87.4652 191.199 87.4332 191 87.4332C190.732 87.4332 190.507 87.4912 190.325 87.6072C190.145 87.7232 190.056 87.8736 190.059 88.0582C190.056 88.2169 190.114 88.3459 190.233 88.4453C190.354 88.5447 190.552 88.6264 190.829 88.6903L191.76 88.8892C192.276 89.0005 192.659 89.1768 192.91 89.4183C193.164 89.6598 193.291 89.9759 193.294 90.3665C193.291 90.7098 193.191 91.0128 192.992 91.2756C192.796 91.536 192.522 91.7396 192.172 91.8864C191.821 92.0331 191.419 92.1065 190.964 92.1065C190.297 92.1065 189.759 91.9669 189.352 91.6875C188.945 91.4058 188.702 91.014 188.624 90.5121L189.878 90.3913C189.934 90.6375 190.055 90.8234 190.24 90.9489C190.425 91.0743 190.665 91.1371 190.961 91.1371C191.266 91.1371 191.511 91.0743 191.696 90.9489C191.883 90.8234 191.976 90.6683 191.976 90.4837C191.976 90.3274 191.916 90.1984 191.795 90.0966C191.677 89.9948 191.492 89.9167 191.241 89.8622L190.311 89.6669C189.788 89.558 189.401 89.3745 189.15 89.1165C188.899 88.8561 188.774 88.527 188.777 88.1293C188.774 87.7931 188.866 87.5019 189.05 87.2557C189.237 87.0071 189.497 86.8153 189.828 86.6804C190.162 86.5431 190.546 86.4744 190.982 86.4744C191.621 86.4744 192.124 86.6106 192.491 86.8828C192.861 87.1551 193.089 87.5232 193.177 87.9872ZM195.639 88.804V92H194.354V86.5455H195.583V87.4723H195.646C195.772 87.1669 195.972 86.9242 196.247 86.7443C196.524 86.5644 196.866 86.4744 197.273 86.4744C197.649 86.4744 197.977 86.5549 198.257 86.7159C198.538 86.8769 198.756 87.1101 198.91 87.4155C199.066 87.7209 199.143 88.0914 199.141 88.527V92H197.855V88.7259C197.855 88.3613 197.761 88.076 197.571 87.87C197.384 87.6641 197.125 87.5611 196.794 87.5611C196.569 87.5611 196.369 87.6108 196.193 87.7102C196.021 87.8073 195.884 87.9482 195.785 88.1328C195.688 88.3175 195.639 88.5412 195.639 88.804ZM200.448 92V86.5455H201.733V92H200.448ZM201.094 85.7713C200.89 85.7713 200.715 85.7038 200.568 85.5689C200.422 85.4316 200.348 85.267 200.348 85.0753C200.348 84.8812 200.422 84.7166 200.568 84.5817C200.715 84.4444 200.89 84.3757 201.094 84.3757C201.3 84.3757 201.475 84.4444 201.619 84.5817C201.766 84.7166 201.84 84.8812 201.84 85.0753C201.84 85.267 201.766 85.4316 201.619 85.5689C201.475 85.7038 201.3 85.7713 201.094 85.7713ZM204.227 90.2884L204.223 88.7365H204.429L206.39 86.5455H207.892L205.48 89.2301H205.214L204.227 90.2884ZM203.055 92V84.7273H204.341V92H203.055ZM206.478 92L204.703 89.5178L205.569 88.6122L208.016 92H206.478ZM209.54 92.0781C209.325 92.0781 209.14 92.0024 208.986 91.8509C208.832 91.6993 208.757 91.5147 208.759 91.2969C208.757 91.0838 208.832 90.9015 208.986 90.75C209.14 90.5985 209.325 90.5227 209.54 90.5227C209.749 90.5227 209.93 90.5985 210.084 90.75C210.24 90.9015 210.319 91.0838 210.322 91.2969C210.319 91.4413 210.281 91.5727 210.208 91.6911C210.137 91.8094 210.042 91.9041 209.924 91.9751C209.808 92.0438 209.68 92.0781 209.54 92.0781ZM214.028 92.1065C213.495 92.1065 213.034 91.9893 212.643 91.755C212.252 91.5206 211.949 91.1927 211.734 90.7713C211.521 90.3499 211.414 89.8575 211.414 89.294C211.414 88.7306 211.521 88.237 211.734 87.8132C211.949 87.3894 212.252 87.0604 212.643 86.826C213.034 86.5916 213.495 86.4744 214.028 86.4744C214.561 86.4744 215.022 86.5916 215.413 86.826C215.804 87.0604 216.105 87.3894 216.319 87.8132C216.534 88.237 216.642 88.7306 216.642 89.294C216.642 89.8575 216.534 90.3499 216.319 90.7713C216.105 91.1927 215.804 91.5206 215.413 91.755C215.022 91.9893 214.561 92.1065 214.028 92.1065ZM214.035 91.0767C214.324 91.0767 214.565 90.9974 214.76 90.8388C214.954 90.6778 215.098 90.4624 215.193 90.1925C215.29 89.9226 215.338 89.6219 215.338 89.2905C215.338 88.9567 215.29 88.6548 215.193 88.3849C215.098 88.1127 214.954 87.8961 214.76 87.7351C214.565 87.5741 214.324 87.4936 214.035 87.4936C213.739 87.4936 213.493 87.5741 213.297 87.7351C213.102 87.8961 212.957 88.1127 212.86 88.3849C212.765 88.6548 212.718 88.9567 212.718 89.2905C212.718 89.6219 212.765 89.9226 212.86 90.1925C212.957 90.4624 213.102 90.6778 213.297 90.8388C213.493 90.9974 213.739 91.0767 214.035 91.0767ZM222.044 87.9872L220.872 88.1151C220.839 87.9967 220.781 87.8854 220.698 87.7812C220.617 87.6771 220.509 87.593 220.371 87.5291C220.234 87.4652 220.066 87.4332 219.867 87.4332C219.599 87.4332 219.375 87.4912 219.192 87.6072C219.012 87.7232 218.924 87.8736 218.926 88.0582C218.924 88.2169 218.982 88.3459 219.1 88.4453C219.221 88.5447 219.42 88.6264 219.697 88.6903L220.627 88.8892C221.143 89.0005 221.527 89.1768 221.778 89.4183C222.031 89.6598 222.159 89.9759 222.161 90.3665C222.159 90.7098 222.058 91.0128 221.859 91.2756C221.663 91.536 221.389 91.7396 221.039 91.8864C220.689 92.0331 220.286 92.1065 219.831 92.1065C219.164 92.1065 218.626 91.9669 218.219 91.6875C217.812 91.4058 217.569 91.014 217.491 90.5121L218.745 90.3913C218.802 90.6375 218.922 90.8234 219.107 90.9489C219.292 91.0743 219.532 91.1371 219.828 91.1371C220.133 91.1371 220.378 91.0743 220.563 90.9489C220.75 90.8234 220.844 90.6683 220.844 90.4837C220.844 90.3274 220.783 90.1984 220.662 90.0966C220.544 89.9948 220.359 89.9167 220.108 89.8622L219.178 89.6669C218.655 89.558 218.268 89.3745 218.017 89.1165C217.766 88.8561 217.642 88.527 217.644 88.1293C217.642 87.7931 217.733 87.5019 217.917 87.2557C218.104 87.0071 218.364 86.8153 218.695 86.6804C219.029 86.5431 219.414 86.4744 219.849 86.4744C220.488 86.4744 220.992 86.6106 221.358 86.8828C221.728 87.1551 221.956 87.5232 222.044 87.9872ZM223.221 92V86.5455H224.45V87.4723H224.514C224.627 87.1598 224.816 86.916 225.078 86.7408C225.341 86.5632 225.655 86.4744 226.019 86.4744C226.389 86.4744 226.7 86.5644 226.953 86.7443C227.209 86.9219 227.389 87.1645 227.493 87.4723H227.55C227.671 87.1693 227.874 86.9278 228.161 86.7479C228.45 86.5656 228.792 86.4744 229.187 86.4744C229.689 86.4744 230.098 86.633 230.416 86.9503C230.733 87.2675 230.892 87.7304 230.892 88.3388V92H229.602V88.5376C229.602 88.1991 229.512 87.9517 229.333 87.7955C229.153 87.6368 228.932 87.5575 228.672 87.5575C228.362 87.5575 228.119 87.6546 227.944 87.8487C227.771 88.0405 227.685 88.2902 227.685 88.598V92H226.424V88.4844C226.424 88.2027 226.339 87.9777 226.169 87.8097C226 87.6416 225.78 87.5575 225.508 87.5575C225.323 87.5575 225.155 87.6049 225.004 87.6996C224.852 87.7919 224.731 87.9233 224.642 88.0938C224.552 88.2618 224.507 88.4583 224.507 88.6832V92H223.221ZM234.575 92.1065C234.042 92.1065 233.581 91.9893 233.19 91.755C232.799 91.5206 232.496 91.1927 232.281 90.7713C232.068 90.3499 231.961 89.8575 231.961 89.294C231.961 88.7306 232.068 88.237 232.281 87.8132C232.496 87.3894 232.799 87.0604 233.19 86.826C233.581 86.5916 234.042 86.4744 234.575 86.4744C235.108 86.4744 235.569 86.5916 235.96 86.826C236.35 87.0604 236.652 87.3894 236.865 87.8132C237.081 88.237 237.189 88.7306 237.189 89.294C237.189 89.8575 237.081 90.3499 236.865 90.7713C236.652 91.1927 236.35 91.5206 235.96 91.755C235.569 91.9893 235.108 92.1065 234.575 92.1065ZM234.582 91.0767C234.871 91.0767 235.112 90.9974 235.306 90.8388C235.501 90.6778 235.645 90.4624 235.74 90.1925C235.837 89.9226 235.885 89.6219 235.885 89.2905C235.885 88.9567 235.837 88.6548 235.74 88.3849C235.645 88.1127 235.501 87.8961 235.306 87.7351C235.112 87.5741 234.871 87.4936 234.582 87.4936C234.286 87.4936 234.04 87.5741 233.843 87.7351C233.649 87.8961 233.504 88.1127 233.407 88.3849C233.312 88.6548 233.265 88.9567 233.265 89.2905C233.265 89.6219 233.312 89.9226 233.407 90.1925C233.504 90.4624 233.649 90.6778 233.843 90.8388C234.04 90.9974 234.286 91.0767 234.582 91.0767Z" fill="#F6F8FF"/>
<path d="M238.911 157.85C238.885 157.606 238.775 157.416 238.582 157.28C238.39 157.144 238.14 157.076 237.833 157.076C237.617 157.076 237.431 157.109 237.277 157.174C237.122 157.239 237.004 157.328 236.922 157.44C236.84 157.551 236.798 157.679 236.796 157.822C236.796 157.942 236.823 158.045 236.877 158.133C236.933 158.22 237.009 158.295 237.104 158.356C237.199 158.416 237.304 158.466 237.419 158.507C237.535 158.548 237.651 158.583 237.769 158.61L238.305 158.745C238.521 158.795 238.729 158.863 238.928 158.949C239.129 159.034 239.309 159.142 239.468 159.273C239.628 159.403 239.754 159.561 239.848 159.745C239.941 159.929 239.987 160.145 239.987 160.393C239.987 160.729 239.902 161.024 239.73 161.279C239.559 161.532 239.311 161.731 238.987 161.874C238.665 162.016 238.274 162.087 237.816 162.087C237.371 162.087 236.984 162.018 236.656 161.88C236.33 161.742 236.075 161.541 235.891 161.276C235.708 161.012 235.61 160.689 235.595 160.309H236.615C236.629 160.509 236.691 160.675 236.799 160.807C236.907 160.939 237.048 161.038 237.221 161.103C237.396 161.168 237.592 161.201 237.808 161.201C238.033 161.201 238.231 161.167 238.4 161.1C238.572 161.031 238.706 160.936 238.803 160.815C238.899 160.692 238.949 160.549 238.951 160.385C238.949 160.236 238.905 160.113 238.819 160.016C238.734 159.917 238.613 159.835 238.459 159.77C238.306 159.703 238.127 159.643 237.922 159.591L237.271 159.424C236.8 159.303 236.427 159.119 236.153 158.873C235.881 158.625 235.746 158.297 235.746 157.887C235.746 157.55 235.837 157.254 236.019 157.001C236.204 156.748 236.454 156.551 236.771 156.411C237.088 156.27 237.446 156.199 237.847 156.199C238.253 156.199 238.609 156.27 238.914 156.411C239.222 156.551 239.463 156.746 239.638 156.995C239.813 157.243 239.903 157.528 239.909 157.85H238.911ZM242.767 162.084C242.337 162.084 241.965 161.994 241.652 161.816C241.341 161.635 241.102 161.38 240.934 161.05C240.766 160.718 240.682 160.328 240.682 159.879C240.682 159.438 240.766 159.05 240.934 158.717C241.103 158.381 241.34 158.121 241.644 157.934C241.947 157.746 242.304 157.652 242.714 157.652C242.978 157.652 243.228 157.695 243.463 157.781C243.699 157.864 243.908 157.995 244.089 158.172C244.271 158.349 244.415 158.574 244.519 158.848C244.623 159.12 244.676 159.444 244.676 159.82V160.131H241.157V159.449H243.706C243.704 159.255 243.662 159.083 243.58 158.932C243.498 158.779 243.384 158.659 243.236 158.571C243.091 158.484 242.922 158.44 242.728 158.44C242.521 158.44 242.339 158.49 242.183 158.591C242.026 158.69 241.904 158.82 241.817 158.982C241.731 159.142 241.687 159.318 241.686 159.51V160.105C241.686 160.355 241.731 160.569 241.822 160.748C241.914 160.925 242.041 161.061 242.205 161.156C242.369 161.249 242.561 161.296 242.781 161.296C242.928 161.296 243.061 161.275 243.181 161.234C243.3 161.192 243.403 161.129 243.491 161.047C243.578 160.965 243.644 160.864 243.689 160.743L244.634 160.849C244.574 161.098 244.46 161.316 244.293 161.503C244.127 161.687 243.915 161.83 243.656 161.933C243.397 162.034 243.1 162.084 242.767 162.084ZM246.543 159.485V162H245.531V157.708H246.498V158.437H246.548C246.647 158.197 246.805 158.006 247.021 157.864C247.239 157.723 247.508 157.652 247.828 157.652C248.124 157.652 248.382 157.715 248.602 157.842C248.824 157.969 248.995 158.152 249.116 158.393C249.239 158.633 249.3 158.924 249.298 159.267V162H248.286V159.424C248.286 159.137 248.212 158.912 248.063 158.75C247.916 158.588 247.712 158.507 247.451 158.507C247.274 158.507 247.117 158.546 246.979 158.624C246.843 158.701 246.736 158.812 246.657 158.957C246.581 159.102 246.543 159.278 246.543 159.485ZM251.919 162.075C251.582 162.075 251.28 161.989 251.014 161.816C250.747 161.642 250.537 161.391 250.382 161.061C250.228 160.731 250.15 160.331 250.15 159.86C250.15 159.383 250.229 158.98 250.385 158.652C250.543 158.323 250.757 158.074 251.025 157.906C251.293 157.737 251.592 157.652 251.922 157.652C252.173 157.652 252.38 157.695 252.542 157.781C252.704 157.864 252.833 157.966 252.928 158.085C253.023 158.202 253.096 158.313 253.149 158.418H253.191V156.277H254.205V162H253.21V161.324H253.149C253.096 161.428 253.021 161.539 252.922 161.656C252.824 161.772 252.693 161.871 252.531 161.952C252.369 162.034 252.165 162.075 251.919 162.075ZM252.201 161.246C252.416 161.246 252.598 161.188 252.749 161.072C252.9 160.955 253.015 160.792 253.093 160.583C253.171 160.375 253.21 160.132 253.21 159.854C253.21 159.576 253.171 159.335 253.093 159.13C253.016 158.925 252.903 158.766 252.752 158.652C252.603 158.539 252.419 158.482 252.201 158.482C251.976 158.482 251.788 158.541 251.637 158.658C251.486 158.775 251.372 158.937 251.296 159.144C251.22 159.351 251.181 159.588 251.181 159.854C251.181 160.122 251.22 160.362 251.296 160.572C251.374 160.781 251.489 160.946 251.64 161.067C251.792 161.186 251.98 161.246 252.201 161.246Z" fill="#F6F8FF"/>
<g clip-path="url(#clip2_396_6053)">
<rect x="277" y="47.1816" width="11.6368" height="11.6368" rx="5.81839" fill="#546198" fill-opacity="0.8"/>
<path d="M287.012 50.0445C286.917 49.6861 286.613 49.3277 286.065 48.9287C285.626 48.6108 285.159 48.4282 284.787 48.4282C284.713 48.4282 284.645 48.435 284.577 48.4485C284.408 48.4823 284.26 48.6041 284.165 48.7866C284.05 49.0031 284.023 49.2939 284.097 49.4697C284.124 49.5238 284.158 49.5914 284.199 49.6523C283.84 49.8687 283.637 49.9296 283.61 49.9363C284.544 50.2474 285.321 50.8966 285.808 51.742L285.815 51.6608C285.835 51.4376 285.903 51.1807 285.998 50.9169C286.092 50.944 286.187 50.9575 286.282 50.9575C286.532 50.9575 286.748 50.8561 286.884 50.6735C287.019 50.4909 287.073 50.2474 287.012 50.0445Z" fill="url(#paint1_linear_396_6053)"/>
<path d="M286.038 50.7207C286.653 50.8897 286.904 50.4164 286.823 50.0985C286.735 49.7807 286.451 49.456 285.95 49.0909C285.45 48.7257 284.942 48.5769 284.618 48.6445C284.293 48.7121 284.199 49.2058 284.28 49.3952C284.314 49.4696 284.388 49.5778 284.489 49.6995C284.361 49.7874 284.239 49.855 284.138 49.9159C284.76 50.1932 285.301 50.626 285.707 51.167C285.754 50.9844 285.822 50.8221 285.882 50.6801C285.93 50.6869 285.984 50.7004 286.038 50.7207Z" fill="url(#paint2_radial_396_6053)"/>
<path d="M282.515 57.3481C284.603 57.3481 286.295 55.6556 286.295 53.5677C286.295 51.4799 284.603 49.7874 282.515 49.7874C280.427 49.7874 278.734 51.4799 278.734 53.5677C278.734 55.6556 280.427 57.3481 282.515 57.3481Z" fill="url(#paint3_radial_396_6053)"/>
<path d="M285.038 49.3141C285.173 49.3682 285.349 49.4629 285.565 49.6049C285.822 49.774 286.045 49.9633 286.187 50.1121C285.951 50.4232 285.795 50.8492 285.7 51.1468C285.748 51.2144 285.802 51.2821 285.849 51.3497C285.897 51.1806 285.978 50.9304 286.086 50.6802C286.113 50.6869 286.147 50.6869 286.181 50.6869C286.262 50.6869 286.356 50.6734 286.431 50.6125C286.485 50.572 286.546 50.4976 286.539 50.3623C286.539 50.2338 286.438 50.0715 286.228 49.8754C286.079 49.7334 285.876 49.5778 285.673 49.4358C285.092 49.0504 284.686 48.9421 284.503 49.1247C284.382 49.2465 284.395 49.3953 284.436 49.5035C284.219 49.6455 284.037 49.7469 283.915 49.8145C283.996 49.8416 284.071 49.8754 284.152 49.9092C284.368 49.7943 284.679 49.5981 285.038 49.3141ZM286.316 50.2812C286.336 50.315 286.343 50.3488 286.343 50.3691C286.343 50.43 286.323 50.4502 286.309 50.4638C286.282 50.4841 286.228 50.4976 286.181 50.4976C286.221 50.4164 286.268 50.3488 286.316 50.2812ZM284.645 49.2735C284.666 49.2532 284.72 49.2397 284.808 49.2532C284.74 49.3073 284.672 49.3547 284.605 49.402C284.598 49.3547 284.605 49.3073 284.645 49.2735Z" fill="url(#paint4_linear_396_6053)"/>
<path d="M282.514 49.5647C280.303 49.5647 278.511 51.3568 278.511 53.5682C278.511 55.7797 280.303 57.5718 282.514 57.5718C284.726 57.5718 286.518 55.7797 286.518 53.5682C286.518 51.3568 284.719 49.5647 282.514 49.5647ZM282.514 57.3486C280.425 57.3486 278.734 55.6579 278.734 53.5682C278.734 51.4786 280.425 49.7879 282.514 49.7879C284.604 49.7879 286.295 51.4786 286.295 53.5682C286.295 55.6579 284.597 57.3486 282.514 57.3486Z" fill="url(#paint5_linear_396_6053)"/>
<path d="M286.106 53.5339C286.106 55.5154 284.496 57.125 282.515 57.125C280.533 57.125 278.917 55.5154 278.917 53.5339H286.106Z" fill="url(#paint6_linear_396_6053)"/>
<path d="M286.099 53.5679C286.099 53.1554 285.382 52.9187 284.429 52.8375C283.739 52.7834 283.042 52.8511 282.244 53.0945C281.554 53.2974 280.932 53.2636 280.479 53.2095C279.472 53.0945 278.917 53.081 278.917 53.5679C278.917 54.2713 280.351 55.1504 282.501 54.8461C283.59 54.6905 284.151 54.3727 284.794 54.1563C285.49 53.9264 286.099 53.9331 286.099 53.5679Z" fill="url(#paint7_linear_396_6053)"/>
<path d="M285.606 50.768H285.592C285.552 50.7613 285.525 50.7207 285.531 50.6734C285.592 50.3623 285.849 50.0647 285.863 50.0512C285.89 50.0174 285.944 50.0174 285.971 50.0444C286.005 50.0715 286.005 50.1256 285.978 50.1526C285.971 50.1594 285.734 50.4367 285.68 50.7072C285.673 50.7477 285.64 50.768 285.606 50.768Z" fill="url(#paint8_linear_396_6053)"/>
<path d="M282.435 56.8458C280.401 56.5166 279.021 54.5882 279.354 52.5389C279.501 51.6319 279.954 50.8592 280.595 50.3015C279.661 50.8458 278.967 51.7931 278.781 52.9488C278.454 54.9981 279.826 56.957 281.853 57.2862C282.987 57.4743 283.976 57.2557 285.075 56.3617C284.362 56.7782 283.316 56.9869 282.435 56.8458Z" fill="#2700C5" fill-opacity="0.5"/>
</g>
<path d="M293.427 55.1459C294.869 55.1459 295.944 54.0629 295.944 52.5782C295.944 51.0936 294.869 50.0106 293.427 50.0106C291.971 50.0106 290.902 51.0936 290.902 52.5782C290.902 54.0629 291.971 55.1459 293.427 55.1459ZM291.749 52.5782C291.749 51.5096 292.452 50.735 293.427 50.735C294.402 50.735 295.098 51.5167 295.098 52.5782C295.098 53.6397 294.402 54.4215 293.427 54.4215C292.452 54.4215 291.749 53.6469 291.749 52.5782Z" fill="#F6F8FF"/>
<path d="M298.056 55.1459C298.938 55.1459 299.555 54.6582 299.555 53.9123C299.555 52.3487 297.324 52.9081 297.324 52.1407C297.324 51.8753 297.568 51.7104 297.927 51.7104C298.35 51.7104 298.615 51.9112 298.673 52.2698H299.469C299.397 51.5096 298.83 51.0577 297.919 51.0577C297.095 51.0577 296.535 51.5382 296.535 52.1694C296.535 53.6254 298.751 53.0803 298.751 53.9338C298.751 54.2637 298.486 54.4717 298.056 54.4717C297.575 54.4717 297.267 54.2207 297.231 53.7975H296.428C296.478 54.6151 297.116 55.1459 298.056 55.1459Z" fill="#F6F8FF"/>
<path d="M304.956 51.0577C304.418 51.0577 303.88 51.3302 303.564 51.8682C303.371 51.3446 302.911 51.0577 302.323 51.0577C301.757 51.0577 301.283 51.3589 301.083 51.7104V51.1151H300.258V55.0885H301.083V53.36C301.083 52.3702 301.477 51.7893 302.108 51.7893C302.589 51.7893 302.883 52.1335 302.883 52.6571V55.0885H303.708V53.36C303.708 52.3774 304.102 51.7893 304.733 51.7893C305.214 51.7893 305.515 52.1335 305.515 52.6571V55.0885H306.34V52.4635C306.34 51.6171 305.759 51.0577 304.956 51.0577Z" fill="#F6F8FF"/>
<path d="M309.041 55.1459C310.225 55.1459 311.078 54.2996 311.078 53.1018C311.078 51.904 310.225 51.0577 309.041 51.0577C307.858 51.0577 307.005 51.904 307.005 53.1018C307.005 54.2996 307.858 55.1459 309.041 55.1459ZM307.837 53.1018C307.837 52.3128 308.331 51.7606 309.041 51.7606C309.744 51.7606 310.246 52.3128 310.246 53.1018C310.246 53.8907 309.744 54.443 309.041 54.443C308.331 54.443 307.837 53.8907 307.837 53.1018Z" fill="#F6F8FF"/>
<path d="M313.164 55.1459C314.046 55.1459 314.663 54.6582 314.663 53.9123C314.663 52.3487 312.432 52.9081 312.432 52.1407C312.432 51.8753 312.676 51.7104 313.035 51.7104C313.458 51.7104 313.723 51.9112 313.78 52.2698H314.577C314.505 51.5096 313.938 51.0577 313.027 51.0577C312.203 51.0577 311.643 51.5382 311.643 52.1694C311.643 53.6254 313.859 53.0803 313.859 53.9338C313.859 54.2637 313.594 54.4717 313.164 54.4717C312.683 54.4717 312.375 54.2207 312.339 53.7975H311.536C311.586 54.6151 312.224 55.1459 313.164 55.1459Z" fill="#F6F8FF"/>
<path d="M315.366 55.0885H316.191V51.1151H315.366V55.0885ZM315.359 50.527H316.198V49.7021H315.359V50.527Z" fill="#F6F8FF"/>
<path d="M318.501 55.1459C319.383 55.1459 320 54.6582 320 53.9123C320 52.3487 317.769 52.9081 317.769 52.1407C317.769 51.8753 318.013 51.7104 318.372 51.7104C318.795 51.7104 319.06 51.9112 319.118 52.2698H319.914C319.842 51.5096 319.275 51.0577 318.365 51.0577C317.54 51.0577 316.98 51.5382 316.98 52.1694C316.98 53.6254 319.197 53.0803 319.197 53.9338C319.197 54.2637 318.931 54.4717 318.501 54.4717C318.02 54.4717 317.712 54.2207 317.676 53.7975H316.873C316.923 54.6151 317.561 55.1459 318.501 55.1459Z" fill="#F6F8FF"/>
<defs>
<filter id="filter0_i_396_6053" x="151" y="144" width="187" height="29" filterUnits="userSpaceOnUse" color-interpolation-filters="sRGB">
<feFlood flood-opacity="0" result="BackgroundImageFix"/>
<feBlend mode="normal" in="SourceGraphic" in2="BackgroundImageFix" result="shape"/>
<feColorMatrix in="SourceAlpha" type="matrix" values="0 0 0 0 0 0 0 0 0 0 0 0 0 0 0 0 0 0 127 0" result="hardAlpha"/>
<feOffset/>
<feGaussianBlur stdDeviation="5.00234"/>
<feComposite in2="hardAlpha" operator="arithmetic" k2="-1" k3="1"/>
<feColorMatrix type="matrix" values="0 0 0 0 1 0 0 0 0 1 0 0 0 0 1 0 0 0 1 0"/>
<feBlend mode="normal" in2="shape" result="effect1_innerShadow_396_6053"/>
</filter>
<filter id="filter1_f_396_6053" x="143.179" y="35.7495" width="30.9708" height="30.9713" filterUnits="userSpaceOnUse" color-interpolation-filters="sRGB">
<feFlood flood-opacity="0" result="BackgroundImageFix"/>
<feBlend mode="normal" in="SourceGraphic" in2="BackgroundImageFix" result="shape"/>
<feGaussianBlur stdDeviation="1.26932" result="effect1_foregroundBlur_396_6053"/>
</filter>
<filter id="filter2_f_396_6053" x="143.111" y="32.6467" width="34.5513" height="34.5511" filterUnits="userSpaceOnUse" color-interpolation-filters="sRGB">
<feFlood flood-opacity="0" result="BackgroundImageFix"/>
<feBlend mode="normal" in="SourceGraphic" in2="BackgroundImageFix" result="shape"/>
<feGaussianBlur stdDeviation="2.55556" result="effect1_foregroundBlur_396_6053"/>
</filter>
<filter id="filter3_f_396_6053" x="148.171" y="33.0044" width="28.5709" height="28.5711" filterUnits="userSpaceOnUse" color-interpolation-filters="sRGB">
<feFlood flood-opacity="0" result="BackgroundImageFix"/>
<feBlend mode="normal" in="SourceGraphic" in2="BackgroundImageFix" result="shape"/>
<feGaussianBlur stdDeviation="2.55556" result="effect1_foregroundBlur_396_6053"/>
</filter>
<filter id="filter4_f_396_6053" x="145.615" y="41.0288" width="23.6133" height="23.6133" filterUnits="userSpaceOnUse" color-interpolation-filters="sRGB">
<feFlood flood-opacity="0" result="BackgroundImageFix"/>
<feBlend mode="normal" in="SourceGraphic" in2="BackgroundImageFix" result="shape"/>
<feGaussianBlur stdDeviation="2.04444" result="effect1_foregroundBlur_396_6053"/>
</filter>
<filter id="filter5_f_396_6053" x="140.349" y="37.3491" width="32.3019" height="32.3021" filterUnits="userSpaceOnUse" color-interpolation-filters="sRGB">
<feFlood flood-opacity="0" result="BackgroundImageFix"/>
<feBlend mode="normal" in="SourceGraphic" in2="BackgroundImageFix" result="shape"/>
<feGaussianBlur stdDeviation="5.11111" result="effect1_foregroundBlur_396_6053"/>
</filter>
<linearGradient id="paint0_linear_396_6053" x1="151" y1="158.357" x2="337.77" y2="158.357" gradientUnits="userSpaceOnUse">
<stop stop-color="#284DFF"/>
<stop offset="1" stop-color="#1BB8FF"/>
</linearGradient>
<linearGradient id="paint1_linear_396_6053" x1="285.324" y1="48.4282" x2="285.324" y2="51.742" gradientUnits="userSpaceOnUse">
<stop stop-color="#5033C8"/>
<stop offset="1" stop-color="#6846B1"/>
</linearGradient>
<radialGradient id="paint2_radial_396_6053" cx="0" cy="0" r="1" gradientUnits="userSpaceOnUse" gradientTransform="translate(286.051 49.2138) rotate(155.025) scale(4.32166)">
<stop stop-color="#FFFBFF"/>
<stop offset="1" stop-color="#290078"/>
</radialGradient>
<radialGradient id="paint3_radial_396_6053" cx="0" cy="0" r="1" gradientUnits="userSpaceOnUse" gradientTransform="translate(284.375 51.0385) rotate(116.565) scale(6.57785)">
<stop stop-color="white"/>
<stop offset="0.508185" stop-color="#E7D8FF"/>
<stop offset="1" stop-color="#4E00CD"/>
</radialGradient>
<linearGradient id="paint4_linear_396_6053" x1="285.227" y1="49.0383" x2="285.227" y2="51.3497" gradientUnits="userSpaceOnUse">
<stop stop-color="#A377FF"/>
<stop offset="1" stop-color="#5B46B1"/>
</linearGradient>
<linearGradient id="paint5_linear_396_6053" x1="282.514" y1="49.5647" x2="282.514" y2="57.5718" gradientUnits="userSpaceOnUse">
<stop stop-color="#492CC4"/>
<stop offset="1" stop-color="#AE9BFF"/>
</linearGradient>
<linearGradient id="paint6_linear_396_6053" x1="278.92" y1="55.3273" x2="286.104" y2="55.3273" gradientUnits="userSpaceOnUse">
<stop stop-color="#0002E9"/>
<stop offset="0.742562" stop-color="#FF43D6"/>
<stop offset="1" stop-color="#FF82E4"/>
</linearGradient>
<linearGradient id="paint7_linear_396_6053" x1="278.925" y1="53.8663" x2="286.099" y2="53.8663" gradientUnits="userSpaceOnUse">
<stop stop-color="#0003BB"/>
<stop offset="0.820688" stop-color="#DB40E2"/>
<stop offset="1" stop-color="#F765FE"/>
</linearGradient>
<linearGradient id="paint8_linear_396_6053" x1="285.982" y1="50.0182" x2="285.466" y2="50.8561" gradientUnits="userSpaceOnUse">
<stop stop-color="white" stop-opacity="0.6"/>
<stop offset="0.29" stop-color="white" stop-opacity="0.6"/>
<stop offset="0.78" stop-color="white" stop-opacity="0"/>
<stop offset="1" stop-color="white" stop-opacity="0"/>
</linearGradient>
<clipPath id="clip0_396_6053">
<rect x="145" y="42" width="23" height="23" rx="11.5" fill="white"/>
</clipPath>
<clipPath id="clip1_396_6053">
<rect width="23" height="23" rx="11.5" transform="matrix(1 0 0 -1 145.002 65)" fill="white"/>
</clipPath>
<clipPath id="clip2_396_6053">
<rect x="277" y="47.1816" width="11.6368" height="11.6368" rx="5.81839" fill="white"/>
</clipPath>
</defs>
</svg>
