<svg width="40" height="40" viewBox="0 0 40 40" fill="none" xmlns="http://www.w3.org/2000/svg">
<path d="M20 19.728C26.2139 19.728 31.25 17.6274 31.25 15.0391C31.25 12.4507 26.2139 10.3501 20 10.3501C13.7861 10.3501 8.75 12.4507 8.75 15.0391C8.75 17.6274 13.7861 19.728 20 19.728ZM20 27.2251C15.7065 27.2251 11.9097 26.1924 9.51465 24.5972C9.02686 25.1245 8.75 25.6914 8.75 26.2891C8.75 28.8774 13.7861 30.978 20 30.978C26.2139 30.978 31.25 28.8774 31.25 26.2891C31.25 25.6914 30.9731 25.1245 30.4854 24.6016C28.0903 26.1924 24.2935 27.2251 20 27.2251ZM20 21.6001C15.7065 21.6001 11.9097 20.5674 9.51465 18.9722C9.02686 19.4995 8.75 20.0664 8.75 20.6641C8.75 23.2524 13.7861 25.353 20 25.353C26.2139 25.353 31.25 23.2524 31.25 20.6641C31.25 20.0664 30.9731 19.4995 30.4854 18.9766C28.0903 20.5674 24.2935 21.6001 20 21.6001Z" fill="#F6F8FF"/>
</svg>
