<svg width="40" height="40" viewBox="0 0 40 40" fill="none" xmlns="http://www.w3.org/2000/svg">
<path d="M19.2516 9.45257C19.2516 9.09092 18.9452 8.80315 18.5865 8.84874C17.0408 9.04517 15.5502 9.56095 14.2105 10.366C12.6796 11.286 11.3897 12.5573 10.4477 14.0748C9.50564 15.5923 8.93849 17.3123 8.79316 19.0925C8.64783 20.8727 8.9285 22.6619 9.61195 24.312C10.2954 25.9622 11.362 27.4259 12.7234 28.5821C14.0849 29.7382 15.7021 30.5535 17.4412 30.9605C19.1803 31.3676 20.9913 31.3546 22.7244 30.9228C24.241 30.5448 25.6598 29.8557 26.8917 28.9017C27.1777 28.6803 27.1909 28.2602 26.9352 28.0044L19.4766 20.5444C19.4054 20.4746 19.3488 20.3913 19.3101 20.2994C19.2715 20.2074 19.2516 20.1087 19.2516 20.009V9.45257Z" fill="#F6F8FF"/>
<path d="M27.9963 26.9434C28.2518 27.1988 28.6713 27.1861 28.8929 26.9009C30.4205 24.9354 31.254 22.5109 31.2503 20.009C31.252 18.7386 31.0379 17.4788 30.6186 16.283C30.499 15.9418 30.1046 15.7966 29.7812 15.9582L22.0431 19.8267C21.6615 20.0175 21.5789 20.526 21.8806 20.8277L27.9963 26.9434ZM29.1079 14.6174C29.4313 14.4557 29.5517 14.0531 29.3507 13.7526C28.4574 12.4173 27.2868 11.2867 25.9159 10.4393C24.5449 9.5919 23.0101 9.05044 21.4164 8.84849C21.0577 8.80303 20.7514 9.09077 20.7514 9.45233V17.7844C20.7514 18.249 21.2404 18.5511 21.6559 18.3434L29.1079 14.6174Z" fill="#F6F8FF"/>
</svg>
