<svg width="40" height="40" viewBox="0 0 40 40" fill="none" xmlns="http://www.w3.org/2000/svg">
<path d="M20.0002 7.0835C27.134 7.0835 32.9168 12.8663 32.9168 20.0002C32.9168 27.134 27.134 32.9168 20.0002 32.9168C13.0004 32.9168 7.3014 27.3494 7.0896 20.401C7.08287 20.1802 7.26258 20.0002 7.4835 20.0002H9.26686C9.48776 20.0002 9.66604 20.1793 9.6746 20.4001C9.76331 22.6872 10.6094 24.8845 12.0859 26.6433C13.6483 28.5044 15.8165 29.7553 18.2097 30.1764C20.6029 30.5974 23.0679 30.1616 25.1716 28.9455C27.2753 27.7294 28.8832 25.8109 29.7127 23.5269C30.5423 21.2429 30.5404 18.7397 29.7074 16.457C28.8744 14.1743 27.2636 12.2582 25.158 11.0453C23.0524 9.83244 20.5867 9.40038 18.1942 9.82506C15.8017 10.2497 13.6353 11.504 12.0758 13.3675L14.1507 15.4423C14.4026 15.6943 14.2242 16.1252 13.8678 16.1252H7.4835C7.26258 16.1252 7.0835 15.9461 7.0835 15.7252V9.34057C7.0835 8.98425 7.51427 8.80577 7.76628 9.05767L10.2442 11.5346C11.4556 10.1359 12.954 9.0145 14.6374 8.24646C16.3208 7.47841 18.1498 7.08178 20.0002 7.0835ZM20.9918 13.5418C21.1575 13.5418 21.2918 13.6761 21.2918 13.8418V19.4641L25.2686 23.4409C25.3857 23.558 25.3857 23.748 25.2686 23.8651L23.8652 25.2685C23.748 25.3857 23.558 25.3857 23.4409 25.2685L18.7085 20.5336V13.8418C18.7085 13.6761 18.8428 13.5418 19.0085 13.5418H20.9918Z" fill="#F6F8FF"/>
</svg>
