<svg width="40" height="40" viewBox="0 0 40 40" fill="none" xmlns="http://www.w3.org/2000/svg">
<path d="M23.7679 20.9505C23.83 20.9505 23.8803 20.9025 23.8803 20.8432L23.8803 14.2111C23.8803 13.974 24.0816 13.7817 24.3298 13.7817L29.8926 13.7817C30.1409 13.7817 30.3422 13.974 30.3422 14.2111V20.8432C30.3422 20.9025 30.3925 20.9505 30.4545 20.9505L34.4369 20.9505C34.896 20.9505 35.1614 21.448 34.8915 21.8028L27.5658 31.433C27.3414 31.728 26.881 31.728 26.6567 31.433L19.331 21.8028C19.0611 21.448 19.3264 20.9505 19.7856 20.9505L23.7679 20.9505Z" fill="#F6F8FF"/>
<path d="M10.5453 18.716C10.6073 18.716 10.6576 18.764 10.6576 18.8233L10.6576 25.4554C10.6576 25.6925 10.8589 25.8848 11.1072 25.8848L16.67 25.8848C16.9183 25.8848 17.1195 25.6925 17.1195 25.4554V18.8233C17.1195 18.764 17.1698 18.716 17.2319 18.716L21.2142 18.716C21.6734 18.716 21.9387 18.2185 21.6688 17.8637L14.3431 8.23351C14.1188 7.93854 13.6584 7.93854 13.434 8.23351L6.10833 17.8637C5.83845 18.2185 6.10378 18.716 6.5629 18.716L10.5453 18.716Z" fill="#F6F8FF"/>
</svg>
